<mxfile host="app.diagrams.net" modified="2024-04-08T20:35:03.990Z" agent="Mozilla/5.0 (X11; Linux x86_64) AppleWebKit/537.36 (KHTML, like Gecko) Chrome/123.0.0.0 Safari/537.36" etag="3-j9e5AzcopVQHb5ALDV" version="24.2.2" type="device">
  <diagram name="Page-1" id="J7aNYn0tI3yL_JWrl0Uq">
    <mxGraphModel dx="2327" dy="1982" grid="1" gridSize="10" guides="1" tooltips="1" connect="1" arrows="1" fold="1" page="1" pageScale="1" pageWidth="827" pageHeight="1169" math="0" shadow="0">
      <root>
        <mxCell id="0" />
        <mxCell id="1" parent="0" />
        <mxCell id="E23xJgEdby3LYfqKXK8S-64" value="" style="rounded=0;whiteSpace=wrap;html=1;" parent="1" vertex="1">
          <mxGeometry x="660" y="521" width="10" height="10" as="geometry" />
        </mxCell>
        <mxCell id="AOtOt-XeIziq4LyHe5DE-109" value="" style="shape=hexagon;perimeter=hexagonPerimeter2;whiteSpace=wrap;html=1;fixedSize=1;" parent="1" vertex="1">
          <mxGeometry x="780" y="285" width="50" height="20" as="geometry" />
        </mxCell>
        <mxCell id="dd-VZcG4zQwspWTg3lg_-3" value="" style="rounded=1;whiteSpace=wrap;html=1;" parent="1" vertex="1">
          <mxGeometry x="260" y="200" width="120" height="200" as="geometry" />
        </mxCell>
        <mxCell id="dd-VZcG4zQwspWTg3lg_-1" value="REG BANK" style="rounded=0;whiteSpace=wrap;html=1;" parent="1" vertex="1">
          <mxGeometry x="340" y="220" width="40" height="40" as="geometry" />
        </mxCell>
        <mxCell id="AOtOt-XeIziq4LyHe5DE-114" style="edgeStyle=none;curved=1;rounded=0;orthogonalLoop=1;jettySize=auto;html=1;entryX=0;entryY=0.5;entryDx=0;entryDy=0;fontSize=12;startSize=8;endSize=8;" parent="1" source="dd-VZcG4zQwspWTg3lg_-11" target="AOtOt-XeIziq4LyHe5DE-112" edge="1">
          <mxGeometry relative="1" as="geometry" />
        </mxCell>
        <mxCell id="dd-VZcG4zQwspWTg3lg_-11" value="" style="shape=dataStorage;whiteSpace=wrap;html=1;fixedSize=1;flipV=1;flipH=1;size=10;" parent="1" vertex="1">
          <mxGeometry x="680" y="340" width="60" height="20" as="geometry" />
        </mxCell>
        <mxCell id="AOtOt-XeIziq4LyHe5DE-61" style="edgeStyle=none;curved=1;rounded=0;orthogonalLoop=1;jettySize=auto;html=1;entryX=0;entryY=0.5;entryDx=0;entryDy=0;fontSize=12;startSize=8;endSize=8;fillColor=#fad7ac;strokeColor=#b46504;" parent="1" source="dd-VZcG4zQwspWTg3lg_-13" target="AOtOt-XeIziq4LyHe5DE-59" edge="1">
          <mxGeometry relative="1" as="geometry" />
        </mxCell>
        <mxCell id="dd-VZcG4zQwspWTg3lg_-13" value="" style="rounded=1;whiteSpace=wrap;html=1;" parent="1" vertex="1">
          <mxGeometry x="260" y="440" width="120" height="60" as="geometry" />
        </mxCell>
        <mxCell id="iTeA3gTID6XC6-GJMK1q-3" style="edgeStyle=none;curved=1;rounded=0;orthogonalLoop=1;jettySize=auto;html=1;exitX=0.991;exitY=0.299;exitDx=0;exitDy=0;entryX=0;entryY=0.5;entryDx=0;entryDy=0;fontSize=12;startSize=8;endSize=8;exitPerimeter=0;fillColor=#fa6800;strokeColor=#C73500;" parent="1" source="dd-VZcG4zQwspWTg3lg_-18" target="AOtOt-XeIziq4LyHe5DE-93" edge="1">
          <mxGeometry relative="1" as="geometry" />
        </mxCell>
        <mxCell id="dd-VZcG4zQwspWTg3lg_-18" value="" style="rounded=1;whiteSpace=wrap;html=1;" parent="1" vertex="1">
          <mxGeometry x="895" y="270" width="120" height="100" as="geometry" />
        </mxCell>
        <mxCell id="dd-VZcG4zQwspWTg3lg_-20" value="ALU" style="rounded=0;whiteSpace=wrap;html=1;" parent="1" vertex="1">
          <mxGeometry x="965" y="350" width="30" height="20" as="geometry" />
        </mxCell>
        <mxCell id="dd-VZcG4zQwspWTg3lg_-23" value="SIGN&lt;div&gt;EXT&lt;/div&gt;" style="rounded=0;whiteSpace=wrap;html=1;" parent="1" vertex="1">
          <mxGeometry x="290" y="470" width="40" height="30" as="geometry" />
        </mxCell>
        <mxCell id="AOtOt-XeIziq4LyHe5DE-119" style="edgeStyle=none;curved=0;rounded=0;orthogonalLoop=1;jettySize=auto;html=1;entryX=0;entryY=0.5;entryDx=0;entryDy=0;fontSize=12;startSize=8;endSize=8;fillColor=#d80073;strokeColor=#A50040;" parent="1" source="dd-VZcG4zQwspWTg3lg_-25" target="AOtOt-XeIziq4LyHe5DE-116" edge="1">
          <mxGeometry relative="1" as="geometry">
            <Array as="points">
              <mxPoint x="1360" y="295" />
              <mxPoint x="1360" y="330" />
            </Array>
          </mxGeometry>
        </mxCell>
        <mxCell id="dd-VZcG4zQwspWTg3lg_-25" value="" style="rounded=1;whiteSpace=wrap;html=1;" parent="1" vertex="1">
          <mxGeometry x="1230" y="220" width="160" height="150" as="geometry" />
        </mxCell>
        <mxCell id="dd-VZcG4zQwspWTg3lg_-27" value="DATA SECT" style="rounded=0;whiteSpace=wrap;html=1;" parent="1" vertex="1">
          <mxGeometry x="1320" y="250" width="70" height="20" as="geometry" />
        </mxCell>
        <mxCell id="dd-VZcG4zQwspWTg3lg_-29" value="" style="shape=dataStorage;whiteSpace=wrap;html=1;fixedSize=1;flipV=1;flipH=1;size=10;" parent="1" vertex="1">
          <mxGeometry x="1570" y="330" width="90" height="20" as="geometry" />
        </mxCell>
        <mxCell id="dd-VZcG4zQwspWTg3lg_-33" value="" style="endArrow=none;dashed=1;html=1;dashPattern=1 3;strokeWidth=2;rounded=0;" parent="1" source="AOtOt-XeIziq4LyHe5DE-37" edge="1">
          <mxGeometry width="50" height="50" relative="1" as="geometry">
            <mxPoint x="566" y="660" as="sourcePoint" />
            <mxPoint x="566" y="90" as="targetPoint" />
          </mxGeometry>
        </mxCell>
        <mxCell id="dd-VZcG4zQwspWTg3lg_-34" value="" style="endArrow=none;dashed=1;html=1;dashPattern=1 3;strokeWidth=2;rounded=0;" parent="1" source="AOtOt-XeIziq4LyHe5DE-44" edge="1">
          <mxGeometry width="50" height="50" relative="1" as="geometry">
            <mxPoint x="1070" y="660" as="sourcePoint" />
            <mxPoint x="1070" y="90" as="targetPoint" />
          </mxGeometry>
        </mxCell>
        <mxCell id="dd-VZcG4zQwspWTg3lg_-35" value="" style="endArrow=none;dashed=1;html=1;dashPattern=1 3;strokeWidth=2;rounded=0;" parent="1" source="AOtOt-XeIziq4LyHe5DE-86" edge="1">
          <mxGeometry width="50" height="50" relative="1" as="geometry">
            <mxPoint x="1470" y="670" as="sourcePoint" />
            <mxPoint x="1470" y="100" as="targetPoint" />
          </mxGeometry>
        </mxCell>
        <mxCell id="dd-VZcG4zQwspWTg3lg_-36" value="" style="endArrow=none;dashed=1;html=1;dashPattern=1 3;strokeWidth=2;rounded=0;" parent="1" source="AOtOt-XeIziq4LyHe5DE-9" edge="1">
          <mxGeometry width="50" height="50" relative="1" as="geometry">
            <mxPoint x="120" y="670" as="sourcePoint" />
            <mxPoint x="120" y="100" as="targetPoint" />
          </mxGeometry>
        </mxCell>
        <mxCell id="AOtOt-XeIziq4LyHe5DE-85" style="edgeStyle=none;curved=1;rounded=0;orthogonalLoop=1;jettySize=auto;html=1;entryX=0;entryY=0.5;entryDx=0;entryDy=0;fontSize=12;startSize=8;endSize=8;exitX=1.005;exitY=0.669;exitDx=0;exitDy=0;exitPerimeter=0;fillColor=#1ba1e2;strokeColor=#006EAF;" parent="1" source="AOtOt-XeIziq4LyHe5DE-1" target="AOtOt-XeIziq4LyHe5DE-9" edge="1">
          <mxGeometry relative="1" as="geometry" />
        </mxCell>
        <mxCell id="Bdlb1lmYMD555LV4zm37-3" style="edgeStyle=orthogonalEdgeStyle;rounded=0;orthogonalLoop=1;jettySize=auto;html=1;entryX=0.5;entryY=0;entryDx=0;entryDy=0;fillColor=#1ba1e2;strokeColor=#006EAF;" edge="1" parent="1" source="AOtOt-XeIziq4LyHe5DE-1" target="7UdGeY0yiiPvAIjpiM3S-4">
          <mxGeometry relative="1" as="geometry">
            <Array as="points">
              <mxPoint x="150" y="300" />
              <mxPoint x="150" y="420" />
              <mxPoint x="-473" y="420" />
            </Array>
          </mxGeometry>
        </mxCell>
        <mxCell id="Bdlb1lmYMD555LV4zm37-7" value="immed locator" style="edgeLabel;html=1;align=center;verticalAlign=middle;resizable=0;points=[];" vertex="1" connectable="0" parent="Bdlb1lmYMD555LV4zm37-3">
          <mxGeometry x="0.8996" y="1" relative="1" as="geometry">
            <mxPoint as="offset" />
          </mxGeometry>
        </mxCell>
        <mxCell id="AOtOt-XeIziq4LyHe5DE-1" value="" style="rounded=1;whiteSpace=wrap;html=1;" parent="1" vertex="1">
          <mxGeometry x="-200" y="220" width="120" height="120" as="geometry" />
        </mxCell>
        <mxCell id="AOtOt-XeIziq4LyHe5DE-2" value="INST&lt;div&gt;SECT&lt;/div&gt;" style="rounded=0;whiteSpace=wrap;html=1;" parent="1" vertex="1">
          <mxGeometry x="-140" y="240" width="60" height="40" as="geometry" />
        </mxCell>
        <mxCell id="AOtOt-XeIziq4LyHe5DE-3" style="edgeStyle=none;curved=1;rounded=0;orthogonalLoop=1;jettySize=auto;html=1;exitX=0.5;exitY=1;exitDx=0;exitDy=0;fontSize=12;startSize=8;endSize=8;" parent="1" source="AOtOt-XeIziq4LyHe5DE-1" target="AOtOt-XeIziq4LyHe5DE-1" edge="1">
          <mxGeometry relative="1" as="geometry" />
        </mxCell>
        <mxCell id="AOtOt-XeIziq4LyHe5DE-10" value="" style="endArrow=none;dashed=1;html=1;dashPattern=1 3;strokeWidth=2;rounded=0;" parent="1" target="AOtOt-XeIziq4LyHe5DE-9" edge="1">
          <mxGeometry width="50" height="50" relative="1" as="geometry">
            <mxPoint x="120" y="950" as="sourcePoint" />
            <mxPoint x="120" y="100" as="targetPoint" />
          </mxGeometry>
        </mxCell>
        <mxCell id="AOtOt-XeIziq4LyHe5DE-12" style="edgeStyle=none;curved=0;rounded=0;orthogonalLoop=1;jettySize=auto;html=1;entryX=0;entryY=0.5;entryDx=0;entryDy=0;fontSize=12;startSize=8;endSize=8;exitX=1;exitY=0.5;exitDx=0;exitDy=0;fillColor=#1ba1e2;strokeColor=#006EAF;" parent="1" source="AOtOt-XeIziq4LyHe5DE-9" target="AOtOt-XeIziq4LyHe5DE-23" edge="1">
          <mxGeometry relative="1" as="geometry">
            <Array as="points">
              <mxPoint x="160" y="300" />
              <mxPoint x="160" y="255" />
            </Array>
          </mxGeometry>
        </mxCell>
        <mxCell id="AOtOt-XeIziq4LyHe5DE-13" style="edgeStyle=none;curved=1;rounded=0;orthogonalLoop=1;jettySize=auto;html=1;entryX=0;entryY=0.5;entryDx=0;entryDy=0;fontSize=12;startSize=8;endSize=8;fillColor=#1ba1e2;strokeColor=#006EAF;" parent="1" source="AOtOt-XeIziq4LyHe5DE-9" target="dd-VZcG4zQwspWTg3lg_-3" edge="1">
          <mxGeometry relative="1" as="geometry" />
        </mxCell>
        <mxCell id="AOtOt-XeIziq4LyHe5DE-14" style="edgeStyle=none;curved=0;rounded=0;orthogonalLoop=1;jettySize=auto;html=1;entryX=0;entryY=0.5;entryDx=0;entryDy=0;fontSize=12;startSize=8;endSize=8;fillColor=#1ba1e2;strokeColor=#006EAF;" parent="1" source="AOtOt-XeIziq4LyHe5DE-9" target="dd-VZcG4zQwspWTg3lg_-13" edge="1">
          <mxGeometry relative="1" as="geometry">
            <Array as="points">
              <mxPoint x="160" y="300" />
              <mxPoint x="160" y="470" />
            </Array>
          </mxGeometry>
        </mxCell>
        <mxCell id="AOtOt-XeIziq4LyHe5DE-19" style="edgeStyle=none;curved=0;rounded=0;orthogonalLoop=1;jettySize=auto;html=1;entryX=0;entryY=0.5;entryDx=0;entryDy=0;fontSize=12;startSize=8;endSize=8;fillColor=#1ba1e2;strokeColor=#006EAF;" parent="1" source="AOtOt-XeIziq4LyHe5DE-9" edge="1">
          <mxGeometry relative="1" as="geometry">
            <Array as="points">
              <mxPoint x="160" y="300" />
              <mxPoint x="160" y="90" />
            </Array>
            <mxPoint x="190" y="90" as="targetPoint" />
          </mxGeometry>
        </mxCell>
        <mxCell id="AOtOt-XeIziq4LyHe5DE-48" style="edgeStyle=none;curved=0;rounded=0;orthogonalLoop=1;jettySize=auto;html=1;entryX=0;entryY=0.5;entryDx=0;entryDy=0;fontSize=12;startSize=8;endSize=8;fillColor=#1ba1e2;strokeColor=#006EAF;" parent="1" source="AOtOt-XeIziq4LyHe5DE-9" target="AOtOt-XeIziq4LyHe5DE-41" edge="1">
          <mxGeometry relative="1" as="geometry">
            <Array as="points">
              <mxPoint x="160" y="300" />
              <mxPoint x="160" y="620" />
            </Array>
          </mxGeometry>
        </mxCell>
        <mxCell id="AOtOt-XeIziq4LyHe5DE-49" value="b_addr" style="edgeLabel;html=1;align=center;verticalAlign=middle;resizable=0;points=[];fontSize=12;" parent="AOtOt-XeIziq4LyHe5DE-48" vertex="1" connectable="0">
          <mxGeometry x="0.9148" relative="1" as="geometry">
            <mxPoint x="-19" as="offset" />
          </mxGeometry>
        </mxCell>
        <mxCell id="kHn4_M405axso_W69Q0X-38" style="edgeStyle=none;curved=0;rounded=0;orthogonalLoop=1;jettySize=auto;html=1;entryX=0;entryY=0.75;entryDx=0;entryDy=0;fontSize=12;startSize=8;endSize=8;fillColor=#1ba1e2;strokeColor=#006EAF;" parent="1" source="AOtOt-XeIziq4LyHe5DE-9" target="AOtOt-XeIziq4LyHe5DE-50" edge="1">
          <mxGeometry relative="1" as="geometry">
            <Array as="points">
              <mxPoint x="160" y="300" />
              <mxPoint x="160" y="-32" />
            </Array>
          </mxGeometry>
        </mxCell>
        <mxCell id="AOtOt-XeIziq4LyHe5DE-9" value="INST" style="rounded=0;whiteSpace=wrap;html=1;" parent="1" vertex="1">
          <mxGeometry x="100" y="290" width="40" height="20" as="geometry" />
        </mxCell>
        <mxCell id="AOtOt-XeIziq4LyHe5DE-18" style="edgeStyle=none;curved=1;rounded=0;orthogonalLoop=1;jettySize=auto;html=1;exitX=0;exitY=1;exitDx=0;exitDy=0;fontSize=12;startSize=8;endSize=8;" parent="1" edge="1">
          <mxGeometry relative="1" as="geometry">
            <mxPoint x="190" y="130" as="sourcePoint" />
            <mxPoint x="190" y="130" as="targetPoint" />
          </mxGeometry>
        </mxCell>
        <mxCell id="AOtOt-XeIziq4LyHe5DE-22" value="&lt;font style=&quot;font-size: 8px;&quot;&gt;dest&lt;/font&gt;" style="rounded=0;whiteSpace=wrap;html=1;" parent="1" vertex="1">
          <mxGeometry x="260" y="320" width="30" height="10" as="geometry" />
        </mxCell>
        <mxCell id="AOtOt-XeIziq4LyHe5DE-23" value="&lt;font style=&quot;font-size: 8px;&quot;&gt;a_addr&lt;/font&gt;" style="rounded=0;whiteSpace=wrap;html=1;" parent="1" vertex="1">
          <mxGeometry x="260" y="250" width="30" height="10" as="geometry" />
        </mxCell>
        <mxCell id="AOtOt-XeIziq4LyHe5DE-25" value="&lt;font style=&quot;font-size: 8px;&quot;&gt;b_addr&lt;/font&gt;" style="rounded=0;whiteSpace=wrap;html=1;" parent="1" vertex="1">
          <mxGeometry x="260" y="295" width="30" height="10" as="geometry" />
        </mxCell>
        <mxCell id="AOtOt-XeIziq4LyHe5DE-65" style="edgeStyle=none;curved=0;rounded=0;orthogonalLoop=1;jettySize=auto;html=1;entryX=0;entryY=0.5;entryDx=0;entryDy=0;fontSize=12;startSize=8;endSize=8;fillColor=#b0e3e6;strokeColor=#0e8088;" parent="1" source="AOtOt-XeIziq4LyHe5DE-27" target="AOtOt-XeIziq4LyHe5DE-63" edge="1">
          <mxGeometry relative="1" as="geometry">
            <Array as="points">
              <mxPoint x="420" y="310" />
            </Array>
          </mxGeometry>
        </mxCell>
        <mxCell id="AOtOt-XeIziq4LyHe5DE-27" value="&lt;font style=&quot;font-size: 8px;&quot;&gt;a_data&lt;/font&gt;" style="rounded=0;whiteSpace=wrap;html=1;" parent="1" vertex="1">
          <mxGeometry x="350" y="305" width="30" height="10" as="geometry" />
        </mxCell>
        <mxCell id="AOtOt-XeIziq4LyHe5DE-66" style="edgeStyle=none;curved=0;rounded=0;orthogonalLoop=1;jettySize=auto;html=1;entryX=0;entryY=0.5;entryDx=0;entryDy=0;fontSize=12;startSize=8;endSize=8;fillColor=#d0cee2;strokeColor=#3333FF;" parent="1" source="AOtOt-XeIziq4LyHe5DE-28" target="AOtOt-XeIziq4LyHe5DE-64" edge="1">
          <mxGeometry relative="1" as="geometry">
            <Array as="points">
              <mxPoint x="460" y="330" />
            </Array>
          </mxGeometry>
        </mxCell>
        <mxCell id="AOtOt-XeIziq4LyHe5DE-28" value="&lt;font style=&quot;font-size: 8px;&quot;&gt;b_data&lt;/font&gt;" style="rounded=0;whiteSpace=wrap;html=1;" parent="1" vertex="1">
          <mxGeometry x="350" y="325" width="30" height="10" as="geometry" />
        </mxCell>
        <mxCell id="AOtOt-XeIziq4LyHe5DE-29" value="&lt;font style=&quot;font-size: 8px;&quot;&gt;data&lt;/font&gt;" style="rounded=0;whiteSpace=wrap;html=1;" parent="1" vertex="1">
          <mxGeometry x="260" y="360" width="30" height="10" as="geometry" />
        </mxCell>
        <mxCell id="AOtOt-XeIziq4LyHe5DE-31" value="&lt;font style=&quot;font-size: 8px;&quot;&gt;&lt;b&gt;REGW&lt;/b&gt;&lt;/font&gt;" style="shape=trapezoid;perimeter=trapezoidPerimeter;whiteSpace=wrap;html=1;fixedSize=1;rotation=-180;size=10;" parent="1" vertex="1">
          <mxGeometry x="275" y="400" width="90" height="10" as="geometry" />
        </mxCell>
        <mxCell id="AOtOt-XeIziq4LyHe5DE-32" value="&lt;font size=&quot;1&quot;&gt;&lt;b style=&quot;font-size: 8px;&quot;&gt;SRC&lt;/b&gt;&lt;/font&gt;" style="shape=trapezoid;perimeter=trapezoidPerimeter;whiteSpace=wrap;html=1;fixedSize=1;rotation=0;size=10;" parent="1" vertex="1">
          <mxGeometry x="680" y="330" width="50" height="10" as="geometry" />
        </mxCell>
        <mxCell id="AOtOt-XeIziq4LyHe5DE-42" style="edgeStyle=none;curved=0;rounded=0;orthogonalLoop=1;jettySize=auto;html=1;entryX=0.5;entryY=0;entryDx=0;entryDy=0;fontSize=12;startSize=8;endSize=8;fillColor=#008a00;strokeColor=#005700;" parent="1" source="AOtOt-XeIziq4LyHe5DE-35" target="AOtOt-XeIziq4LyHe5DE-32" edge="1">
          <mxGeometry relative="1" as="geometry">
            <Array as="points">
              <mxPoint x="670" y="150" />
              <mxPoint x="670" y="290" />
              <mxPoint x="705" y="290" />
            </Array>
          </mxGeometry>
        </mxCell>
        <mxCell id="AOtOt-XeIziq4LyHe5DE-77" style="edgeStyle=none;curved=1;rounded=0;orthogonalLoop=1;jettySize=auto;html=1;entryX=0;entryY=0.5;entryDx=0;entryDy=0;fontSize=12;startSize=8;endSize=8;fillColor=#008a00;strokeColor=#005700;" parent="1" source="AOtOt-XeIziq4LyHe5DE-36" target="AOtOt-XeIziq4LyHe5DE-43" edge="1">
          <mxGeometry relative="1" as="geometry" />
        </mxCell>
        <mxCell id="AOtOt-XeIziq4LyHe5DE-36" value="MREAD" style="rounded=0;whiteSpace=wrap;html=1;" parent="1" vertex="1">
          <mxGeometry x="536" y="60" width="60" height="20" as="geometry" />
        </mxCell>
        <mxCell id="AOtOt-XeIziq4LyHe5DE-38" value="" style="endArrow=none;dashed=1;html=1;dashPattern=1 3;strokeWidth=2;rounded=0;" parent="1" source="AOtOt-XeIziq4LyHe5DE-39" target="AOtOt-XeIziq4LyHe5DE-37" edge="1">
          <mxGeometry width="50" height="50" relative="1" as="geometry">
            <mxPoint x="566" y="660" as="sourcePoint" />
            <mxPoint x="566" y="90" as="targetPoint" />
          </mxGeometry>
        </mxCell>
        <mxCell id="AOtOt-XeIziq4LyHe5DE-78" style="edgeStyle=none;curved=1;rounded=0;orthogonalLoop=1;jettySize=auto;html=1;entryX=0;entryY=0.5;entryDx=0;entryDy=0;fontSize=12;startSize=8;endSize=8;fillColor=#008a00;strokeColor=#005700;" parent="1" source="AOtOt-XeIziq4LyHe5DE-37" target="AOtOt-XeIziq4LyHe5DE-44" edge="1">
          <mxGeometry relative="1" as="geometry" />
        </mxCell>
        <mxCell id="AOtOt-XeIziq4LyHe5DE-37" value="MWRT" style="rounded=0;whiteSpace=wrap;html=1;" parent="1" vertex="1">
          <mxGeometry x="536" y="80" width="60" height="20" as="geometry" />
        </mxCell>
        <mxCell id="AOtOt-XeIziq4LyHe5DE-40" value="" style="endArrow=none;dashed=1;html=1;dashPattern=1 3;strokeWidth=2;rounded=0;" parent="1" source="AOtOt-XeIziq4LyHe5DE-35" target="AOtOt-XeIziq4LyHe5DE-39" edge="1">
          <mxGeometry width="50" height="50" relative="1" as="geometry">
            <mxPoint x="566" y="660" as="sourcePoint" />
            <mxPoint x="566" y="100" as="targetPoint" />
          </mxGeometry>
        </mxCell>
        <mxCell id="AOtOt-XeIziq4LyHe5DE-76" style="edgeStyle=none;curved=1;rounded=0;orthogonalLoop=1;jettySize=auto;html=1;entryX=0;entryY=0.5;entryDx=0;entryDy=0;fontSize=12;startSize=8;endSize=8;fillColor=#008a00;strokeColor=#005700;" parent="1" source="AOtOt-XeIziq4LyHe5DE-39" target="AOtOt-XeIziq4LyHe5DE-45" edge="1">
          <mxGeometry relative="1" as="geometry" />
        </mxCell>
        <mxCell id="AOtOt-XeIziq4LyHe5DE-39" value="REGW" style="rounded=0;whiteSpace=wrap;html=1;" parent="1" vertex="1">
          <mxGeometry x="536" y="100" width="60" height="20" as="geometry" />
        </mxCell>
        <mxCell id="E23xJgEdby3LYfqKXK8S-74" style="edgeStyle=orthogonalEdgeStyle;rounded=0;orthogonalLoop=1;jettySize=auto;html=1;entryX=0;entryY=1;entryDx=0;entryDy=0;fillColor=#1ba1e2;strokeColor=#006EAF;" parent="1" source="AOtOt-XeIziq4LyHe5DE-41" target="E23xJgEdby3LYfqKXK8S-66" edge="1">
          <mxGeometry relative="1" as="geometry">
            <Array as="points">
              <mxPoint x="631" y="620" />
              <mxPoint x="631" y="699" />
            </Array>
          </mxGeometry>
        </mxCell>
        <mxCell id="AOtOt-XeIziq4LyHe5DE-41" value="DEST_REG" style="rounded=0;whiteSpace=wrap;html=1;" parent="1" vertex="1">
          <mxGeometry x="531" y="610" width="70" height="20" as="geometry" />
        </mxCell>
        <mxCell id="AOtOt-XeIziq4LyHe5DE-83" style="edgeStyle=none;curved=0;rounded=0;orthogonalLoop=1;jettySize=auto;html=1;entryX=0.5;entryY=0;entryDx=0;entryDy=0;fontSize=12;startSize=8;endSize=8;fillColor=#008a00;strokeColor=#005700;" parent="1" source="AOtOt-XeIziq4LyHe5DE-43" target="AOtOt-XeIziq4LyHe5DE-81" edge="1">
          <mxGeometry relative="1" as="geometry">
            <Array as="points">
              <mxPoint x="1340" y="70" />
            </Array>
          </mxGeometry>
        </mxCell>
        <mxCell id="AOtOt-XeIziq4LyHe5DE-43" value="MREAD" style="rounded=0;whiteSpace=wrap;html=1;" parent="1" vertex="1">
          <mxGeometry x="1040" y="60" width="60" height="20" as="geometry" />
        </mxCell>
        <mxCell id="AOtOt-XeIziq4LyHe5DE-46" value="" style="endArrow=none;dashed=1;html=1;dashPattern=1 3;strokeWidth=2;rounded=0;" parent="1" source="AOtOt-XeIziq4LyHe5DE-93" target="AOtOt-XeIziq4LyHe5DE-45" edge="1">
          <mxGeometry width="50" height="50" relative="1" as="geometry">
            <mxPoint x="1070" y="660" as="sourcePoint" />
            <mxPoint x="1070" y="90" as="targetPoint" />
          </mxGeometry>
        </mxCell>
        <mxCell id="AOtOt-XeIziq4LyHe5DE-91" style="edgeStyle=none;curved=1;rounded=0;orthogonalLoop=1;jettySize=auto;html=1;entryX=0;entryY=0.5;entryDx=0;entryDy=0;fontSize=12;startSize=8;endSize=8;fillColor=#008a00;strokeColor=#005700;" parent="1" source="AOtOt-XeIziq4LyHe5DE-45" target="AOtOt-XeIziq4LyHe5DE-86" edge="1">
          <mxGeometry relative="1" as="geometry" />
        </mxCell>
        <mxCell id="iTeA3gTID6XC6-GJMK1q-9" style="edgeStyle=none;curved=0;rounded=0;orthogonalLoop=1;jettySize=auto;html=1;entryX=1.012;entryY=0.189;entryDx=0;entryDy=0;fontSize=12;startSize=8;endSize=8;fillColor=#008a00;strokeColor=#005700;entryPerimeter=0;" parent="1" source="AOtOt-XeIziq4LyHe5DE-45" target="AOtOt-XeIziq4LyHe5DE-105" edge="1">
          <mxGeometry relative="1" as="geometry">
            <Array as="points">
              <mxPoint x="1200" y="110" />
              <mxPoint x="1200" y="737" />
            </Array>
          </mxGeometry>
        </mxCell>
        <mxCell id="AOtOt-XeIziq4LyHe5DE-45" value="REGW" style="rounded=0;whiteSpace=wrap;html=1;" parent="1" vertex="1">
          <mxGeometry x="1040" y="100" width="60" height="20" as="geometry" />
        </mxCell>
        <mxCell id="AOtOt-XeIziq4LyHe5DE-47" value="" style="endArrow=none;dashed=1;html=1;dashPattern=1 3;strokeWidth=2;rounded=0;" parent="1" source="AOtOt-XeIziq4LyHe5DE-45" target="AOtOt-XeIziq4LyHe5DE-44" edge="1">
          <mxGeometry width="50" height="50" relative="1" as="geometry">
            <mxPoint x="1070" y="100" as="sourcePoint" />
            <mxPoint x="1070" y="90" as="targetPoint" />
          </mxGeometry>
        </mxCell>
        <mxCell id="AOtOt-XeIziq4LyHe5DE-82" style="edgeStyle=none;curved=0;rounded=0;orthogonalLoop=1;jettySize=auto;html=1;entryX=0.5;entryY=0;entryDx=0;entryDy=0;fontSize=12;startSize=8;endSize=8;fillColor=#008a00;strokeColor=#005700;" parent="1" source="AOtOt-XeIziq4LyHe5DE-44" target="AOtOt-XeIziq4LyHe5DE-80" edge="1">
          <mxGeometry relative="1" as="geometry">
            <Array as="points">
              <mxPoint x="1280" y="90" />
            </Array>
          </mxGeometry>
        </mxCell>
        <mxCell id="AOtOt-XeIziq4LyHe5DE-44" value="MWRT" style="rounded=0;whiteSpace=wrap;html=1;" parent="1" vertex="1">
          <mxGeometry x="1040" y="80" width="60" height="20" as="geometry" />
        </mxCell>
        <mxCell id="kHn4_M405axso_W69Q0X-10" style="edgeStyle=none;curved=0;rounded=0;orthogonalLoop=1;jettySize=auto;html=1;entryX=0.5;entryY=0;entryDx=0;entryDy=0;fontSize=12;startSize=8;endSize=8;exitX=0.998;exitY=0.696;exitDx=0;exitDy=0;exitPerimeter=0;" parent="1" source="AOtOt-XeIziq4LyHe5DE-50" target="kHn4_M405axso_W69Q0X-2" edge="1">
          <mxGeometry relative="1" as="geometry">
            <Array as="points">
              <mxPoint x="430" y="-40" />
            </Array>
          </mxGeometry>
        </mxCell>
        <mxCell id="kHn4_M405axso_W69Q0X-20" style="edgeStyle=none;curved=0;rounded=0;orthogonalLoop=1;jettySize=auto;html=1;entryX=0.5;entryY=0;entryDx=0;entryDy=0;fontSize=12;startSize=8;endSize=8;exitX=-0.001;exitY=0.466;exitDx=0;exitDy=0;exitPerimeter=0;" parent="1" source="AOtOt-XeIziq4LyHe5DE-50" target="kHn4_M405axso_W69Q0X-19" edge="1">
          <mxGeometry relative="1" as="geometry">
            <Array as="points">
              <mxPoint y="-70" />
              <mxPoint y="65" />
            </Array>
          </mxGeometry>
        </mxCell>
        <mxCell id="AOtOt-XeIziq4LyHe5DE-50" value="" style="rounded=1;whiteSpace=wrap;html=1;" parent="1" vertex="1">
          <mxGeometry x="195" y="-130" width="120" height="130" as="geometry" />
        </mxCell>
        <mxCell id="AOtOt-XeIziq4LyHe5DE-51" value="HDU" style="rounded=0;whiteSpace=wrap;html=1;" parent="1" vertex="1">
          <mxGeometry x="260" y="-130" width="35" height="20" as="geometry" />
        </mxCell>
        <mxCell id="AOtOt-XeIziq4LyHe5DE-58" style="edgeStyle=none;curved=0;rounded=0;orthogonalLoop=1;jettySize=auto;html=1;entryX=0.5;entryY=0;entryDx=0;entryDy=0;fontSize=12;startSize=8;endSize=8;fillColor=#008a00;strokeColor=#005700;" parent="1" source="AOtOt-XeIziq4LyHe5DE-53" target="AOtOt-XeIziq4LyHe5DE-57" edge="1">
          <mxGeometry relative="1" as="geometry">
            <Array as="points">
              <mxPoint x="955" y="130" />
            </Array>
          </mxGeometry>
        </mxCell>
        <mxCell id="AOtOt-XeIziq4LyHe5DE-53" value="ALU_CTRL" style="rounded=0;whiteSpace=wrap;html=1;" parent="1" vertex="1">
          <mxGeometry x="536" y="120" width="60" height="20" as="geometry" />
        </mxCell>
        <mxCell id="AOtOt-XeIziq4LyHe5DE-55" value="" style="endArrow=none;dashed=1;html=1;dashPattern=1 3;strokeWidth=2;rounded=0;" parent="1" source="AOtOt-XeIziq4LyHe5DE-59" target="AOtOt-XeIziq4LyHe5DE-35" edge="1">
          <mxGeometry width="50" height="50" relative="1" as="geometry">
            <mxPoint x="566" y="660" as="sourcePoint" />
            <mxPoint x="566" y="120" as="targetPoint" />
          </mxGeometry>
        </mxCell>
        <mxCell id="AOtOt-XeIziq4LyHe5DE-35" value="SRC" style="rounded=0;whiteSpace=wrap;html=1;" parent="1" vertex="1">
          <mxGeometry x="536" y="140" width="60" height="20" as="geometry" />
        </mxCell>
        <mxCell id="AOtOt-XeIziq4LyHe5DE-57" value="&lt;font size=&quot;1&quot;&gt;&lt;b style=&quot;font-size: 8px;&quot;&gt;ALU_CTRL&lt;/b&gt;&lt;/font&gt;" style="shape=trapezoid;perimeter=trapezoidPerimeter;whiteSpace=wrap;html=1;fixedSize=1;rotation=0;size=5.000000000000227;" parent="1" vertex="1">
          <mxGeometry x="905" y="260" width="100" height="10" as="geometry" />
        </mxCell>
        <mxCell id="AOtOt-XeIziq4LyHe5DE-60" value="" style="endArrow=none;dashed=1;html=1;dashPattern=1 3;strokeWidth=2;rounded=0;" parent="1" target="AOtOt-XeIziq4LyHe5DE-59" edge="1">
          <mxGeometry width="50" height="50" relative="1" as="geometry">
            <mxPoint x="560" y="1270" as="sourcePoint" />
            <mxPoint x="566" y="160" as="targetPoint" />
          </mxGeometry>
        </mxCell>
        <mxCell id="AOtOt-XeIziq4LyHe5DE-62" style="edgeStyle=none;curved=0;rounded=0;orthogonalLoop=1;jettySize=auto;html=1;entryX=0;entryY=0;entryDx=0;entryDy=0;fontSize=12;startSize=8;endSize=8;fillColor=#fa6800;strokeColor=#C73500;" parent="1" source="AOtOt-XeIziq4LyHe5DE-59" target="E23xJgEdby3LYfqKXK8S-80" edge="1">
          <mxGeometry relative="1" as="geometry">
            <Array as="points">
              <mxPoint x="610" y="470" />
              <mxPoint x="610" y="585" />
              <mxPoint x="650" y="585" />
            </Array>
          </mxGeometry>
        </mxCell>
        <mxCell id="AOtOt-XeIziq4LyHe5DE-59" value="IMMD" style="rounded=0;whiteSpace=wrap;html=1;" parent="1" vertex="1">
          <mxGeometry x="536" y="460" width="60" height="20" as="geometry" />
        </mxCell>
        <mxCell id="AOtOt-XeIziq4LyHe5DE-63" value="A" style="rounded=0;whiteSpace=wrap;html=1;" parent="1" vertex="1">
          <mxGeometry x="536" y="300" width="60" height="20" as="geometry" />
        </mxCell>
        <mxCell id="AOtOt-XeIziq4LyHe5DE-64" value="B" style="rounded=0;whiteSpace=wrap;html=1;" parent="1" vertex="1">
          <mxGeometry x="536" y="320" width="60" height="20" as="geometry" />
        </mxCell>
        <mxCell id="AOtOt-XeIziq4LyHe5DE-67" style="edgeStyle=none;curved=0;rounded=0;orthogonalLoop=1;jettySize=auto;html=1;entryX=-0.036;entryY=0.042;entryDx=0;entryDy=0;fontSize=12;startSize=8;endSize=8;strokeColor=#009999;exitX=1;exitY=0.5;exitDx=0;exitDy=0;entryPerimeter=0;" parent="1" source="AOtOt-XeIziq4LyHe5DE-63" edge="1">
          <mxGeometry relative="1" as="geometry">
            <mxPoint x="596" y="275" as="sourcePoint" />
            <mxPoint x="659.6400000000001" y="500.8399999999999" as="targetPoint" />
            <Array as="points">
              <mxPoint x="630" y="310" />
              <mxPoint x="630" y="501" />
            </Array>
          </mxGeometry>
        </mxCell>
        <mxCell id="AOtOt-XeIziq4LyHe5DE-68" style="edgeStyle=none;curved=0;rounded=0;orthogonalLoop=1;jettySize=auto;html=1;fontSize=12;startSize=8;endSize=8;strokeColor=#3333FF;entryX=0;entryY=0.5;entryDx=0;entryDy=0;entryPerimeter=0;" parent="1" source="AOtOt-XeIziq4LyHe5DE-64" edge="1">
          <mxGeometry relative="1" as="geometry">
            <Array as="points">
              <mxPoint x="620" y="330" />
              <mxPoint x="620" y="510" />
            </Array>
            <mxPoint x="660" y="510" as="targetPoint" />
          </mxGeometry>
        </mxCell>
        <mxCell id="AOtOt-XeIziq4LyHe5DE-70" value="&lt;font style=&quot;font-size: 8px;&quot;&gt;data&lt;/font&gt;" style="rounded=0;whiteSpace=wrap;html=1;" parent="1" vertex="1">
          <mxGeometry x="1230" y="340" width="30" height="10" as="geometry" />
        </mxCell>
        <mxCell id="AOtOt-XeIziq4LyHe5DE-72" value="" style="endArrow=none;dashed=1;html=1;dashPattern=1 3;strokeWidth=2;rounded=0;" parent="1" target="AOtOt-XeIziq4LyHe5DE-71" edge="1">
          <mxGeometry width="50" height="50" relative="1" as="geometry">
            <mxPoint x="1070" y="650" as="sourcePoint" />
            <mxPoint x="1070" y="120" as="targetPoint" />
          </mxGeometry>
        </mxCell>
        <mxCell id="AOtOt-XeIziq4LyHe5DE-71" value="DEST_REG" style="rounded=0;whiteSpace=wrap;html=1;" parent="1" vertex="1">
          <mxGeometry x="1035" y="610" width="70" height="20" as="geometry" />
        </mxCell>
        <mxCell id="iTeA3gTID6XC6-GJMK1q-17" style="edgeStyle=none;curved=0;rounded=0;orthogonalLoop=1;jettySize=auto;html=1;fontSize=12;startSize=8;endSize=8;entryX=0;entryY=0.5;entryDx=0;entryDy=0;fillColor=#6d8764;strokeColor=#1A1A1A;" parent="1" source="AOtOt-XeIziq4LyHe5DE-73" target="AOtOt-XeIziq4LyHe5DE-22" edge="1">
          <mxGeometry relative="1" as="geometry">
            <mxPoint x="1649.9999999999995" y="620" as="targetPoint" />
            <Array as="points">
              <mxPoint x="1560" y="620" />
              <mxPoint x="1560" y="880" />
              <mxPoint x="230" y="880" />
              <mxPoint x="230" y="325" />
            </Array>
          </mxGeometry>
        </mxCell>
        <mxCell id="AOtOt-XeIziq4LyHe5DE-73" value="DEST_REG" style="rounded=0;whiteSpace=wrap;html=1;" parent="1" vertex="1">
          <mxGeometry x="1430" y="610" width="70" height="20" as="geometry" />
        </mxCell>
        <mxCell id="AOtOt-XeIziq4LyHe5DE-75" value="" style="endArrow=classic;html=1;rounded=0;fontSize=12;startSize=8;endSize=8;curved=1;exitX=1;exitY=0.5;exitDx=0;exitDy=0;entryX=0;entryY=0.5;entryDx=0;entryDy=0;fillColor=#1ba1e2;strokeColor=#006EAF;" parent="1" source="AOtOt-XeIziq4LyHe5DE-71" target="AOtOt-XeIziq4LyHe5DE-73" edge="1">
          <mxGeometry width="50" height="50" relative="1" as="geometry">
            <mxPoint x="1160" y="580" as="sourcePoint" />
            <mxPoint x="1210" y="530" as="targetPoint" />
          </mxGeometry>
        </mxCell>
        <mxCell id="AOtOt-XeIziq4LyHe5DE-80" value="&lt;font size=&quot;1&quot;&gt;&lt;b style=&quot;font-size: 8px;&quot;&gt;MWRT&lt;/b&gt;&lt;/font&gt;" style="shape=trapezoid;perimeter=trapezoidPerimeter;whiteSpace=wrap;html=1;fixedSize=1;rotation=0;size=10;" parent="1" vertex="1">
          <mxGeometry x="1250" y="210" width="60" height="10" as="geometry" />
        </mxCell>
        <mxCell id="AOtOt-XeIziq4LyHe5DE-81" value="&lt;font size=&quot;1&quot;&gt;&lt;b style=&quot;font-size: 8px;&quot;&gt;MREAD&lt;/b&gt;&lt;/font&gt;" style="shape=trapezoid;perimeter=trapezoidPerimeter;whiteSpace=wrap;html=1;fixedSize=1;rotation=0;size=10;" parent="1" vertex="1">
          <mxGeometry x="1310" y="210" width="60" height="10" as="geometry" />
        </mxCell>
        <mxCell id="AOtOt-XeIziq4LyHe5DE-87" value="" style="endArrow=none;dashed=1;html=1;dashPattern=1 3;strokeWidth=2;rounded=0;" parent="1" source="AOtOt-XeIziq4LyHe5DE-120" target="AOtOt-XeIziq4LyHe5DE-86" edge="1">
          <mxGeometry width="50" height="50" relative="1" as="geometry">
            <mxPoint x="1470" y="670" as="sourcePoint" />
            <mxPoint x="1470" y="100" as="targetPoint" />
          </mxGeometry>
        </mxCell>
        <mxCell id="AOtOt-XeIziq4LyHe5DE-90" style="edgeStyle=none;curved=0;rounded=0;orthogonalLoop=1;jettySize=auto;html=1;entryX=0.5;entryY=0;entryDx=0;entryDy=0;fontSize=12;startSize=8;endSize=8;fillColor=#008a00;strokeColor=#005700;" parent="1" source="AOtOt-XeIziq4LyHe5DE-86" target="AOtOt-XeIziq4LyHe5DE-89" edge="1">
          <mxGeometry relative="1" as="geometry">
            <Array as="points">
              <mxPoint x="1610" y="110" />
            </Array>
          </mxGeometry>
        </mxCell>
        <mxCell id="iTeA3gTID6XC6-GJMK1q-21" style="edgeStyle=none;curved=0;rounded=0;orthogonalLoop=1;jettySize=auto;html=1;entryX=1;entryY=0.75;entryDx=0;entryDy=0;fontSize=12;startSize=8;endSize=8;fillColor=#008a00;strokeColor=#005700;" parent="1" source="AOtOt-XeIziq4LyHe5DE-86" target="AOtOt-XeIziq4LyHe5DE-105" edge="1">
          <mxGeometry relative="1" as="geometry">
            <Array as="points">
              <mxPoint x="1720" y="110" />
              <mxPoint x="1720" y="790" />
            </Array>
          </mxGeometry>
        </mxCell>
        <mxCell id="E23xJgEdby3LYfqKXK8S-8" style="edgeStyle=orthogonalEdgeStyle;rounded=0;orthogonalLoop=1;jettySize=auto;html=1;entryX=0.5;entryY=0;entryDx=0;entryDy=0;fillColor=#008a00;strokeColor=#005700;" parent="1" source="AOtOt-XeIziq4LyHe5DE-86" target="AOtOt-XeIziq4LyHe5DE-31" edge="1">
          <mxGeometry relative="1" as="geometry">
            <Array as="points">
              <mxPoint x="1720" y="110" />
              <mxPoint x="1720" y="940" />
              <mxPoint x="410" y="940" />
              <mxPoint x="410" y="430" />
              <mxPoint x="320" y="430" />
            </Array>
          </mxGeometry>
        </mxCell>
        <mxCell id="AOtOt-XeIziq4LyHe5DE-86" value="REGW" style="rounded=0;whiteSpace=wrap;html=1;" parent="1" vertex="1">
          <mxGeometry x="1440" y="100" width="60" height="20" as="geometry" />
        </mxCell>
        <mxCell id="AOtOt-XeIziq4LyHe5DE-89" value="&lt;font size=&quot;1&quot;&gt;&lt;b style=&quot;font-size: 8px;&quot;&gt;REGW&lt;/b&gt;&lt;/font&gt;" style="shape=trapezoid;perimeter=trapezoidPerimeter;whiteSpace=wrap;html=1;fixedSize=1;rotation=0;" parent="1" vertex="1">
          <mxGeometry x="1570" y="320" width="80" height="10" as="geometry" />
        </mxCell>
        <mxCell id="AOtOt-XeIziq4LyHe5DE-94" value="" style="endArrow=none;dashed=1;html=1;dashPattern=1 3;strokeWidth=2;rounded=0;" parent="1" source="AOtOt-XeIziq4LyHe5DE-71" target="AOtOt-XeIziq4LyHe5DE-93" edge="1">
          <mxGeometry width="50" height="50" relative="1" as="geometry">
            <mxPoint x="1070" y="610" as="sourcePoint" />
            <mxPoint x="1070" y="120" as="targetPoint" />
          </mxGeometry>
        </mxCell>
        <mxCell id="AOtOt-XeIziq4LyHe5DE-97" style="edgeStyle=none;curved=0;rounded=0;orthogonalLoop=1;jettySize=auto;html=1;entryX=0;entryY=0.5;entryDx=0;entryDy=0;fontSize=12;startSize=8;endSize=8;fillColor=#fa6800;strokeColor=#C73500;" parent="1" source="AOtOt-XeIziq4LyHe5DE-93" target="AOtOt-XeIziq4LyHe5DE-96" edge="1">
          <mxGeometry relative="1" as="geometry">
            <Array as="points">
              <mxPoint x="1120" y="300" />
            </Array>
          </mxGeometry>
        </mxCell>
        <mxCell id="AOtOt-XeIziq4LyHe5DE-110" style="edgeStyle=none;curved=0;rounded=0;orthogonalLoop=1;jettySize=auto;html=1;entryX=0;entryY=0;entryDx=0;entryDy=0;fontSize=12;startSize=8;endSize=8;fillColor=#fa6800;strokeColor=#C73500;" parent="1" source="AOtOt-XeIziq4LyHe5DE-93" target="AOtOt-XeIziq4LyHe5DE-107" edge="1">
          <mxGeometry relative="1" as="geometry">
            <Array as="points">
              <mxPoint x="1120" y="300" />
              <mxPoint x="1120" y="190" />
              <mxPoint x="960" y="190" />
              <mxPoint x="750" y="190" />
              <mxPoint x="750" y="285" />
            </Array>
          </mxGeometry>
        </mxCell>
        <mxCell id="AOtOt-XeIziq4LyHe5DE-123" style="edgeStyle=none;curved=0;rounded=0;orthogonalLoop=1;jettySize=auto;html=1;entryX=0;entryY=0.5;entryDx=0;entryDy=0;fontSize=12;startSize=8;endSize=8;fillColor=#fa6800;strokeColor=#C73500;" parent="1" source="AOtOt-XeIziq4LyHe5DE-93" target="AOtOt-XeIziq4LyHe5DE-120" edge="1">
          <mxGeometry relative="1" as="geometry">
            <Array as="points">
              <mxPoint x="1120" y="300" />
              <mxPoint x="1120" y="400" />
            </Array>
          </mxGeometry>
        </mxCell>
        <mxCell id="AOtOt-XeIziq4LyHe5DE-93" value="ALU_OUT" style="rounded=0;whiteSpace=wrap;html=1;" parent="1" vertex="1">
          <mxGeometry x="1040" y="290" width="60" height="20" as="geometry" />
        </mxCell>
        <mxCell id="AOtOt-XeIziq4LyHe5DE-96" value="&lt;font style=&quot;font-size: 8px;&quot;&gt;addr&lt;/font&gt;" style="rounded=0;whiteSpace=wrap;html=1;" parent="1" vertex="1">
          <mxGeometry x="1230" y="295" width="30" height="10" as="geometry" />
        </mxCell>
        <mxCell id="AOtOt-XeIziq4LyHe5DE-131" style="edgeStyle=none;curved=0;rounded=0;orthogonalLoop=1;jettySize=auto;html=1;fontSize=12;startSize=8;endSize=8;fillColor=#f0a30a;strokeColor=#4D4D4D;entryX=0.018;entryY=0.084;entryDx=0;entryDy=0;entryPerimeter=0;" parent="1" source="AOtOt-XeIziq4LyHe5DE-99" target="E23xJgEdby3LYfqKXK8S-66" edge="1">
          <mxGeometry relative="1" as="geometry">
            <Array as="points">
              <mxPoint x="650" y="600" />
              <mxPoint x="650" y="690" />
            </Array>
            <mxPoint x="870" y="710" as="targetPoint" />
          </mxGeometry>
        </mxCell>
        <mxCell id="AOtOt-XeIziq4LyHe5DE-99" value="R_ADDR" style="rounded=0;whiteSpace=wrap;html=1;" parent="1" vertex="1">
          <mxGeometry x="536" y="590" width="60" height="20" as="geometry" />
        </mxCell>
        <mxCell id="AOtOt-XeIziq4LyHe5DE-104" value="" style="endArrow=classic;html=1;rounded=0;fontSize=12;startSize=8;endSize=8;curved=1;entryX=0;entryY=0.5;entryDx=0;entryDy=0;fillColor=#1ba1e2;strokeColor=#006EAF;" parent="1" target="AOtOt-XeIziq4LyHe5DE-99" edge="1">
          <mxGeometry width="50" height="50" relative="1" as="geometry">
            <mxPoint x="160" y="600" as="sourcePoint" />
            <mxPoint x="330" y="450" as="targetPoint" />
          </mxGeometry>
        </mxCell>
        <mxCell id="AOtOt-XeIziq4LyHe5DE-130" value="a_addr" style="edgeLabel;html=1;align=center;verticalAlign=middle;resizable=0;points=[];fontSize=12;" parent="AOtOt-XeIziq4LyHe5DE-104" vertex="1" connectable="0">
          <mxGeometry x="0.7029" y="2" relative="1" as="geometry">
            <mxPoint as="offset" />
          </mxGeometry>
        </mxCell>
        <mxCell id="AOtOt-XeIziq4LyHe5DE-105" value="" style="rounded=1;whiteSpace=wrap;html=1;" parent="1" vertex="1">
          <mxGeometry x="890" y="720" width="120" height="90" as="geometry" />
        </mxCell>
        <mxCell id="iTeA3gTID6XC6-GJMK1q-2" style="edgeStyle=none;curved=1;rounded=0;orthogonalLoop=1;jettySize=auto;html=1;entryX=0;entryY=0.25;entryDx=0;entryDy=0;fontSize=12;startSize=8;endSize=8;" parent="1" source="AOtOt-XeIziq4LyHe5DE-107" target="dd-VZcG4zQwspWTg3lg_-18" edge="1">
          <mxGeometry relative="1" as="geometry" />
        </mxCell>
        <mxCell id="AOtOt-XeIziq4LyHe5DE-107" value="" style="shape=dataStorage;whiteSpace=wrap;html=1;fixedSize=1;flipV=1;flipH=1;size=10;" parent="1" vertex="1">
          <mxGeometry x="780" y="285" width="60" height="20" as="geometry" />
        </mxCell>
        <mxCell id="AOtOt-XeIziq4LyHe5DE-111" value="" style="shape=hexagon;perimeter=hexagonPerimeter2;whiteSpace=wrap;html=1;fixedSize=1;" parent="1" vertex="1">
          <mxGeometry x="780" y="340" width="50" height="20" as="geometry" />
        </mxCell>
        <mxCell id="iTeA3gTID6XC6-GJMK1q-1" style="edgeStyle=none;curved=1;rounded=0;orthogonalLoop=1;jettySize=auto;html=1;entryX=0;entryY=0.8;entryDx=0;entryDy=0;fontSize=12;startSize=8;endSize=8;entryPerimeter=0;fillColor=#e3c800;strokeColor=#B09500;" parent="1" source="AOtOt-XeIziq4LyHe5DE-112" target="dd-VZcG4zQwspWTg3lg_-18" edge="1">
          <mxGeometry relative="1" as="geometry" />
        </mxCell>
        <mxCell id="AOtOt-XeIziq4LyHe5DE-112" value="" style="shape=dataStorage;whiteSpace=wrap;html=1;fixedSize=1;flipV=1;flipH=1;size=10;" parent="1" vertex="1">
          <mxGeometry x="780" y="340" width="60" height="20" as="geometry" />
        </mxCell>
        <mxCell id="AOtOt-XeIziq4LyHe5DE-115" value="" style="endArrow=classic;html=1;rounded=0;fontSize=12;startSize=8;endSize=8;curved=1;fillColor=#fa6800;strokeColor=#C73500;entryX=0;entryY=0;entryDx=0;entryDy=0;" parent="1" target="AOtOt-XeIziq4LyHe5DE-112" edge="1">
          <mxGeometry width="50" height="50" relative="1" as="geometry">
            <mxPoint x="750" y="230" as="sourcePoint" />
            <mxPoint x="740" y="280" as="targetPoint" />
            <Array as="points">
              <mxPoint x="730" y="320" />
            </Array>
          </mxGeometry>
        </mxCell>
        <mxCell id="AOtOt-XeIziq4LyHe5DE-118" style="edgeStyle=none;curved=1;rounded=0;orthogonalLoop=1;jettySize=auto;html=1;entryX=0;entryY=1;entryDx=0;entryDy=0;fontSize=12;startSize=8;endSize=8;fillColor=#d80073;strokeColor=#A50040;" parent="1" source="AOtOt-XeIziq4LyHe5DE-116" target="AOtOt-XeIziq4LyHe5DE-89" edge="1">
          <mxGeometry relative="1" as="geometry" />
        </mxCell>
        <mxCell id="AOtOt-XeIziq4LyHe5DE-116" value="DATA" style="rounded=0;whiteSpace=wrap;html=1;" parent="1" vertex="1">
          <mxGeometry x="1440" y="320" width="60" height="20" as="geometry" />
        </mxCell>
        <mxCell id="AOtOt-XeIziq4LyHe5DE-122" value="" style="endArrow=none;dashed=1;html=1;dashPattern=1 3;strokeWidth=2;rounded=0;" parent="1" target="AOtOt-XeIziq4LyHe5DE-120" edge="1">
          <mxGeometry width="50" height="50" relative="1" as="geometry">
            <mxPoint x="1470" y="670" as="sourcePoint" />
            <mxPoint x="1470" y="120" as="targetPoint" />
          </mxGeometry>
        </mxCell>
        <mxCell id="AOtOt-XeIziq4LyHe5DE-124" style="edgeStyle=none;curved=0;rounded=0;orthogonalLoop=1;jettySize=auto;html=1;entryX=0;entryY=1;entryDx=0;entryDy=0;fontSize=12;startSize=8;endSize=8;fillColor=#fa6800;strokeColor=#C73500;" parent="1" source="AOtOt-XeIziq4LyHe5DE-120" target="dd-VZcG4zQwspWTg3lg_-29" edge="1">
          <mxGeometry relative="1" as="geometry">
            <Array as="points">
              <mxPoint x="1520" y="400" />
              <mxPoint x="1520" y="350" />
            </Array>
          </mxGeometry>
        </mxCell>
        <mxCell id="AOtOt-XeIziq4LyHe5DE-120" value="ALU_OUT" style="rounded=0;whiteSpace=wrap;html=1;" parent="1" vertex="1">
          <mxGeometry x="1440" y="390" width="60" height="20" as="geometry" />
        </mxCell>
        <mxCell id="AOtOt-XeIziq4LyHe5DE-125" style="edgeStyle=none;curved=0;rounded=0;orthogonalLoop=1;jettySize=auto;html=1;entryX=0;entryY=0.5;entryDx=0;entryDy=0;fontSize=12;startSize=8;endSize=8;strokeColor=#6F0000;fillColor=#a20025;" parent="1" source="dd-VZcG4zQwspWTg3lg_-29" target="AOtOt-XeIziq4LyHe5DE-29" edge="1">
          <mxGeometry relative="1" as="geometry">
            <Array as="points">
              <mxPoint x="1760" y="340" />
              <mxPoint x="1760" y="910" />
              <mxPoint x="200" y="910" />
              <mxPoint x="200" y="365" />
            </Array>
          </mxGeometry>
        </mxCell>
        <mxCell id="AOtOt-XeIziq4LyHe5DE-126" value="" style="endArrow=classic;html=1;rounded=0;fontSize=12;startSize=8;endSize=8;curved=0;entryX=0;entryY=1;entryDx=0;entryDy=0;fillColor=#a20025;strokeColor=#6F0000;" parent="1" target="AOtOt-XeIziq4LyHe5DE-112" edge="1">
          <mxGeometry width="50" height="50" relative="1" as="geometry">
            <mxPoint x="750" y="910" as="sourcePoint" />
            <mxPoint x="800" y="390" as="targetPoint" />
            <Array as="points">
              <mxPoint x="750" y="360" />
            </Array>
          </mxGeometry>
        </mxCell>
        <mxCell id="AOtOt-XeIziq4LyHe5DE-127" value="" style="endArrow=classic;html=1;rounded=0;fontSize=12;startSize=8;endSize=8;curved=1;entryX=0;entryY=1;entryDx=0;entryDy=0;fillColor=#a20025;strokeColor=#6F0000;" parent="1" target="AOtOt-XeIziq4LyHe5DE-107" edge="1">
          <mxGeometry width="50" height="50" relative="1" as="geometry">
            <mxPoint x="750" y="410" as="sourcePoint" />
            <mxPoint x="810" y="350" as="targetPoint" />
            <Array as="points">
              <mxPoint x="730" y="310" />
            </Array>
          </mxGeometry>
        </mxCell>
        <mxCell id="AOtOt-XeIziq4LyHe5DE-128" value="FRWRD" style="rounded=0;whiteSpace=wrap;html=1;" parent="1" vertex="1">
          <mxGeometry x="890" y="783" width="50" height="10" as="geometry" />
        </mxCell>
        <mxCell id="iTeA3gTID6XC6-GJMK1q-6" style="edgeStyle=none;curved=0;rounded=0;orthogonalLoop=1;jettySize=auto;html=1;entryX=0;entryY=0.5;entryDx=0;entryDy=0;fontSize=12;startSize=8;endSize=8;fillColor=#e3c800;strokeColor=#B09500;" parent="1" source="iTeA3gTID6XC6-GJMK1q-4" target="AOtOt-XeIziq4LyHe5DE-70" edge="1">
          <mxGeometry relative="1" as="geometry">
            <Array as="points">
              <mxPoint x="1130" y="470" />
              <mxPoint x="1130" y="345" />
            </Array>
          </mxGeometry>
        </mxCell>
        <mxCell id="iTeA3gTID6XC6-GJMK1q-4" value="DATA" style="rounded=0;whiteSpace=wrap;html=1;" parent="1" vertex="1">
          <mxGeometry x="1040" y="460" width="60" height="20" as="geometry" />
        </mxCell>
        <mxCell id="iTeA3gTID6XC6-GJMK1q-5" value="" style="endArrow=classic;html=1;rounded=0;fontSize=12;startSize=8;endSize=8;curved=0;entryX=0;entryY=0.5;entryDx=0;entryDy=0;fillColor=#e3c800;strokeColor=#B09500;" parent="1" target="iTeA3gTID6XC6-GJMK1q-4" edge="1">
          <mxGeometry width="50" height="50" relative="1" as="geometry">
            <mxPoint x="860" y="350" as="sourcePoint" />
            <mxPoint x="910" y="390" as="targetPoint" />
            <Array as="points">
              <mxPoint x="860" y="470" />
            </Array>
          </mxGeometry>
        </mxCell>
        <mxCell id="iTeA3gTID6XC6-GJMK1q-27" style="edgeStyle=none;curved=1;rounded=0;orthogonalLoop=1;jettySize=auto;html=1;entryX=0.5;entryY=0;entryDx=0;entryDy=0;fontSize=12;startSize=8;endSize=8;strokeColor=#666600;" parent="1" source="iTeA3gTID6XC6-GJMK1q-10" target="iTeA3gTID6XC6-GJMK1q-26" edge="1">
          <mxGeometry relative="1" as="geometry">
            <Array as="points">
              <mxPoint x="860" y="150" />
            </Array>
          </mxGeometry>
        </mxCell>
        <mxCell id="iTeA3gTID6XC6-GJMK1q-10" value="" style="shape=image;verticalLabelPosition=bottom;labelBackgroundColor=default;verticalAlign=top;aspect=fixed;imageAspect=0;image=data:image/png,iVBORw0KGgoAAAANSUhEUgAAARIAAAB3CAYAAADPec9+AAAABHNCSVQICAgIfAhkiAAAABl0RVh0U29mdHdhcmUAZ25vbWUtc2NyZWVuc2hvdO8Dvz4AAAAmdEVYdENyZWF0aW9uIFRpbWUAZG9tIDMxIG1hciAyMDI0IDE5OjEzOjE02Y23vQAAIABJREFUeJzsnXd8HsW1978zu/tUdbn33nDFDjYGDDZgOpiSl5ZAKIGbAoEkhACBhCQ3hBK4JJCENCBA7g0YCPVSDRhscMEdgm1cMC6yLVldT9ndmfeP2V09suRCwGlXh89jiUdbZs7MnDnld86IDdt2ai0EWms0hhTC/CKCn/+mJPa3fxpaubOPZyJgfx+r9/eZ7P9Y6P1taWf/99R/HXzaPnY/27qHZ8qO3rPbM3d/rwZ0tBTbP1cAon1DO+y/oP2whM8Mr+/oPi3MH1QHM0AAMvjS3r0DGmEGTRf8/z8pCTPD9/fiT9WXA8GHA8Nbsd8s+ST0f6n/Hd//6dra4SLdxz0ivEh0IDA+wXv29be93WPeqxF67xywiaSSQLeResJ8t5eb//Ek9nt4O95lPuPmhO/4jJ97IJ4Jnf0/IP3fwzN1hzNw3xQJkz3cu79P7FCQfQIG7Gud2Xt6qf7nVUQ6qZP+Bakj4+Lfh2Ro+2jRumv/c2shndRJnfTPRoGPRKMK3A377YTrpE7qpE6iY2dyJ3VSJ3XSJ6JOQdJJndRJn5o6BUkndVInfWrqFCSd1Emd9KmpU5B0Uid10qcm2Rmh6aRO6qRPSx0C0v6VqBM410md9I+nf2lB0gmc66RO+uegTh9JJ3VSJ31qaqORfKJ07U7qpE7qpIAijUQI0SlEOqmTOulvIiNIOgVIJ3VSJ30KsuHfObm5kzrpU9I+Kq51wicMdTpbO6mT9kSfoGzj/3X6lw7//q0UlpjprL3y702FpYT+lrHen+vDKmP/1zWT/5uCJJghBaVpO+nflaIiO5/8Rh0WTN0HhZvS/tC/q7j5hwsSIfavdmahxP8ktSbbPedvvvMTvmcvO5TWurXT/8d3ss+MOpgT7UqdfgJeq0iQAIjg8SJ4TFs9Rwe/hxX024mf3Zr2t474JxFYf2/6hwsSrTRCfjJXzf4KlQ7L9bd5eVsnkS7QUPZHFd5zFU6NVnu5+9MIj93s9v0/UkKjdGuvorLZQiAL+f8v4xdoO0JtD1Yo+C5ij9xnJXYtCoVH259CyOBhIa9UpNFGVwpAChRt554Q5q7CSuwyePQn3RTlHo/Q2PuJCoVz+0DQP0SQtNFC9lMliXAuHSykT6OhtHkHfz+JHwrPT9p2IWVb4befz4gme3TMSLAEtOGfEALDYnlgyqt/prSbEBECKUBKaw/nCmh8pdFq708VBaqEbJ2gre+LVByBDo7vEVKCNN8qrVGhZlJwd8ftN38UfJL5q1Fqb50Q/zBfzQEVJIbRAs/z2blzJ7ZlUVFZiRCSXTXVZDIZHMfBdmzD0A6eoZSiqKiIdDpNLpdj+/btOLZNeXk58USiDWOFCDQcIdhWVQVK0aWyC7ZtI6VESonWil01NSilKS8vp7GpkYaGRoSAoqIiSsvLO+yL1hqlFfX19WRaMiCgW5euxGMxBFCzaxcNDQ3YloXjOEhpmYkSDqwOrG6lSKZSpFMpNNDU1ERdXR1SSkpKSigvL+9wsvieDwJqd9WSz+exLEm37t33qc3tqqmhpaUFrTVOLIZlWaZNoUDWmqLiYoqLivCVQillhAp7FqpKKVpaWti1q4aysnJKS0s/M2G+JwqFXfXOnWRzGSorK4jFYpHmV1dbi/J9M8ZBv7QG27aIx+LEE0kSiQQg9rAYzSk7VVu3kUwmKC8rpa6+nqaGRqSU+L5CSptQD9UokGBZAqSgqKiYZDqN57pU7ahGaU23rl1JxOP4vgIhsIK5YFkC3/Oor6unsbGZ8vJyiorSwabYtlVCQCabpa62FiktHMeO+NGqh2lsy6KoqAjbdtBaobUO5vv+8VcIaG5uoaW5mcrKShACrRTSsvbr/gMqSDSQiMX5+ON1/PDmmzl25kxOOukkYrEY9913H889/zz5fJ5EIhFNxMIJqZQim81y/vnnc/lll1FbV8v119/Azp07ueiii/jCF74QTYpQMxFS8tFHH3HdddehleLOO35Gt25dowFobGjip7f8lEQizrev+Q5PPvkkD/7xj7jZHNNnzODb13yb0tKydluJFIJcJsftt97GO++8Q1FREbf85CeMHT0Gy7b45T338sQTT+DEHKSQZjFKYzYIYSav67ooX3HarNO47rvXobXiidmzefDBB/F9xXHHzeT662/ALhi8iBta09LczE03fo8VK1ZSUVHB7XfcwbARw/fIf9fNc8899/DKq6/S0NBgBEkgeJQyk82yLPr168f0o47izDPPpLyiAtuyEJaFQHc4EaUQvPTSS9x777184Qtf4IILLsDazwn3aUgpxe//8AdeeOF5fvjDH3LsscdSV1dLQ1093732WjZs3Ijv++RyOdBmcVhCUlFezrARIzn73HOZfMhkLEuidjM9bcuioa6Oq6+6imNnHM0XLzifZ554gj89/AhOzKG+vtGYwpZlhKwwC9jzXFzf40tfupiLL7mEpoZGfnDDDfz1g9Vc9uUvc9FFF+H7njkzyrIBjfJh7Zq13HvvvXz00cd8+9vfZurUQ3GcGEr5bXgupGT1Bx9w8803U11dbTQfpdCBwFdaI4UgmUox8eCDOf/8LzBmzBiUUpFQ2b2vHVE+77Ji+XJ+fd99XH755Uw74gjDx/2kAypIpJRkMhl+/7vfsau2lhkzZpBMJvE8j53V1VRv3EhZnz4MGTIEy7LwPA/f96P7tdbYtsWQIUNIpVIUFRVxwgkn8KMf/Yjf/va39OrViyOOOAIA3/eRUlC1rYobb7yRpUuXctmXv8yAAQPwfQ8hJL7vs3HjRhYvXsw555xDZUUFDQ0NbFm/HnI5Xn1F8eXLLjOChLZ2rrQkO7fvYMH8t6nauIFkZSXxeNxcJyTZbIbmmmp6DhpE/wEDAlPMqK5mwBW+56OUonv37sHCs6ipqWHb2g/BsXlr7ptsOPtDhg0bDqioDQoQQrNjxw5WvfceOzduIJfPkc/vfaCFkOysrmbHunX0GDqUQYMG4ebz+OEk9H0aGhv58MMPWfH223z44Ydc/c2rTfvAaC+095nEYjGy2SxVVVVkWlqIx+P4nndAzULHcXBdl+rqnWzbto2GhgY8zyWdSrOruoaPP97Mti1bGDlqFLF4HCEEtpRopWloaGDOa3OY8/rrXHzRxVx11VXtni+lxXvvv8+2bVvp1r0byWSSlpYWNq5fT8+ePRkxfBjZnIvWoUbiIyXEHAtpWQzq24cYUJZOccE55/Cta67ht/f9ijGjRzFp0iSjHQSbXn1DA/fddx+vvPIKl112OWPHjkUIGQh3CLcPrUErRVNTE2vWrEFrzciRI4nF4kjL2FNKGcG5raqKJ2c/zuJ33+WmG2/iqKOOQkqBUhIh1T41xkQ8zvARwyktKeGuu+6kf79+9OzVa7/H54AIEiFAKaNu/e9LL/HKq69y7bXXUl5ejtaaWLgzxuOcf/75XHrJJaaje7Dvkskkjm2jtOa0005j9erV/PnBB/nTn/7EqJEjKSsrQ2mN6yoe/OMfWfD225w6axbXXXcdyvPxfYUljVmxfNky8tksRx5xBAKzY+H7VPTtR319PSuXL2dAv36EQjw0HGKWzauvvEJDfT0lXbqQy7t4+XzkcFVaQzzB8ccdx9evuAJjrxL4Hoy2pJTC8zwcxwGtcWwblIZEgmQiyY6tW3l34UKGDx0KBE7oYALYsRhvvPYaO7ZtpdfgwdQ1NBDIqj0fxajNjkksxpe+dCFf/MIXqaurIxaLYTsOAA0NDaxZs4bv33QTzz37LEfPmMHRRx+NLW2072NZFr6vsG0brVVkFllCoH2FJS0S8TgZrYwKv9v7jUliuiEDP5fWOlpUIYWCwrZto2XuNhekEEjAsQzPLCFRnkJKgSUl+XyO8ooKvnX1N5k4caKJngS7dS6X4+WXX+VHP/5P7v3FL+jXpw+nnHIKTsyJTM94LMaSJUuorOzCwKGD0VKgULhensOOOIxvXfMdErEUUpuxc4ULlsKxJW42h+PESCQSJIGZR01n1okn8efZj3Hv3T/nx7f8hF69ehNPxGlpbuZ//vu/eebppzj8iGmcfvrppFLJoL3hghcF/DP9t2ybvn36cMcdP6Nr167ROhPC9H3Hjp3cfvttvP7c8zz88MNMnjIZx7ZxHAfP9RBC4MRiCAGe5+F5nnluoElKIagoq+Css87iO9dey8uvvMKFF1ywh5nVnj5zZKvWCs/zsaRkV20tTzz5JF26dGHy5MlIKUkkEq0LTwiKi4ooKSkhmUqRSiZJp1Ok0+k2HyllZMKk0ynOP/98howezdy5c3n8iSfwAi3m2Wee4ZFHHmH02LFc9Y1vRIvXti1s26aluZnFixfTq2dP+vXti/J9fM8DpTn88MMpKipizpw5EWNCP70A6uvqWPruu/To2o2B/QdgSYktrVbAk1Lg+5SWllJWWkpZaQklxSUUpdOkU2mK0mlSyRRlZWUUBX1Ca9x8HktIxo8ZQ2V5OSuWLqW5sRG0QqIR2hyc6uVyLFzwDv369mX48GH4vosl9x6J0Fob34rvk0ymKCkpoaS0lOLiYuLxOIlEgp49ezJ16lSOm3kcUgjeXfwujm0jAz+JQNDc3MT2qiq2btnCzh07ybRkUL4CbT6e77fZ8UKeGb+UQCsdjaHnusb2lhLLsqKPGSebbC7XoQ9D+b6ZN74CLRBIbMs2Y+j7IASe69GlSxfKyspIp9KUFBVTUlxCt27dOe/cc7n2mmtwHIc/Pvgg1dXVhndK47semz76iFWrVtGvfz969umNjNloKRC2RSqdonevXnStqKR7WQVdS8upLC2juKiYeCpJcXkZdjJOxsuRdfNIAVd+7WtMm3oYb7/1Fg899BD1DfUopZgzZw5/uP9+Bg0ZwqVf/jI9e/bEtu0gghNyL+CjEJFPSwZRo8rKSkpKSigqSpNKpYjHYxQXF3PQQaP4+tevINW1Kx9/vImtW7cWCHIzhju2b2fjho1s3bKFpsYmlO9HZpKbz2NJwbixYznkkEN4/vnn+XDduv1e95+5RiKERODjeR6LFy9m1apVnHD88VQEtndTYyPJZLKNBqKUMotCyj343AO70PcRQjBk8GAuvugifnLLLfzpT39ixPDhCCH49X33EY/Huebb36Znz55ks1kcy0Jrc//mzZt5/733mHHUUaTTaeOADHbmQ6dM4eNNm/jf55/nv+66y/SFMEyqWf3+X/lwzRqmTTuSjzdtYr1Y36atlmW16Y8oQLuFO7Lt2GbALBsZahOejyUE48eNQ2rNsiVLqN6xg+KiAeD7hPiEjRvWs3LFCq66+mpeeeUVs0MH/o49aiWBIEUpCPxHtmXhBQLUdhw8z0MrRa9evRBC0tzchJRWoBZrNm3axGOPPcq8efOora0jHo9xxhlnUFdXj7QsMza+Hzk9RdhhjN+hrr6JV1991ZhBmQy+55l22HabCENpSQnTZ0ynd+8+HUYeVOBE10EIWwhjbmrXLBZLmgWXy2Vx3bwZ86Bt+D5CSGbNmsVLL73EO/Pns3jRIk4+5RRsy5gmmzdvpqqqitPOmEVxaSlKa4QlsR0HJxYjbtuQ93G0h0Lhax9XKPK+i681wnbQGiytcZSgV8/ufOPKK3h/7RqefPJJDp44kV49e/KLX/wCN+9y+WWXcdjUqRRCitqvJSIfm9Yay7bM5uD7CGG0uHCzbG5upqKinO49upPPuzQ1NhKPJ/A8j+XLl/HY7NmsXLmSfC5PNptlwoTxHH/CCcyYPiNYA4aPXSq7MH36dG655RbmvfUWQ4YM6bhxu9FnLkhMh20sy2LuG29QXV3NoVOnGmYATiyGRCC1sUtjtmPUVYFxRirVFowoBL7nYzu2cVhpjWPZzDzmGKp37OTOu+7krjvvxLZtNn+0iWuvvZbPTZzY6lTUreG4Hdu309LSwpixY0nEE/ihVzrQjE45+WSWLljAE7Mf57zzzsXN50Fr8rkc8+fNw5YWh0+dyuytW7CEwBISGWADHCHB87ERoFrxCCJY5UKY6JVt2607NgIRqPmpRJLTTj2Vn/70Fha+8w4D+vclkUiQy+fwfZ8nH38C5fl8buIkXnnpZXNvyCdNhwJYChGYAgoB+K6LJDA7pcQWEmxJc3Mzq1atRGtF7959sATY0mJndQ133HYbzz/3HMNHjODQyZPZXlXFA3+4n6LiYry8aya2Uq04hgIh4CtFJpPh+eeeY8nSpbieZxZ2B2RZFv3796dP7z7t+7EHq7fwKx1sRlJa+J5vhFwU7xVoraioqKB3797guqxduzYytXzP46/vv082k2HihAmgNb6v8D2N55k54uKRyTXgKB9f+eSQOMkUlrLR2sdTGt8SuFqQ9o02O3LUKL504YX89I7b+fWvfk3Pnj1Y+977XHzZlzlu5nFB6L5DdrQjHYR+jbamg81RR3xJJlOsWrWKHTt2MHDAAHr16kU2m2HBggX85JZb2LljJ5MmTaJbt2589NFHvP7GGyxduowe3bszYcLB5h3ajOPBEybg+z5vzH2DE086ie7duwUCb8+N/ewFiVLYsRjbq6pY9d579OjRgwEDjCmglWoTkVCey2uvvUZjY2MUGm2rlQiKitKcffbZxgNv2ZGNXVpaxqxZs5g37y0WzJ0LTowTTz6Jk08+mUQiiS6w2bXQ5F2P999/n7KyMkaNHIXnB85B4yghk23h4Anj6TNwAE8++SRnnHEGaLPg6hsaWLJkCb169WT4iBFIIaPITPgI0yGfRYsWoXbHugBaCCzbQkrJZZdcaoSJFUzkQK0/aPRoyisqeP2NNzjltFOIxWIIIamr3cXSpUsYOXIE/fr13e+xEAgTrdKaqm3bWLN6Da7r4nletMtt2bKZBQsW8vprr9OrV28mTz6EfN7FcWK89PLLvPzyyxw7cyZXXnklQ4cMobmlhTfnzuXW22+H0NmrOwZDKaUoKS7mq1/9KtU1NXvFOLiuy4iRIzsEpetQ8u5l0fnKhMetYAcv1AgJ5o4Ti9GzZ08Adu7ciR/4YloyGd555x3Ky8qoqKhA+R5KBuFPYN6bc7n7zp8h3Ax2PgOOgyccLCdF3vXp0ac30445Gqc4jULgm7g/sXiMc845h5Uf/JXn/vIX3l+mOWL6dC744gVUVJSTzbuBb6Sg03vYFNDg5vN89NFH1NSkAbMRe54Zz4ULF/HInx6hubGJ448/norKSjzX5d1332Xr1q18+1vf5tRTTwkiOZqnn36Kn/3sTh6bPZvRo8cQi8UwyquitLSUgw46iNVr1lBVVcXAgQNpaWneq9D7TAWJDrQJ3/f5ePNmdu7YwaCBAykrLSUei5kdKbCPAcjnmT9/PsuXLyfv5gM7McAFBtwc0H8Ap502i3TaRimz00ghUcqnW7duTJw4kQXz5oNWjBgxgpKSYqQUxioIpqUAWlpaWLzkXUaMHEnXbt3Iuy5IgRs4nfJunp69etKnTx/WrVvL+g3rGD50GL7rsWPHdtauXcuZZ51FMpU0mpEwkZQQrBTuFCtWLGfJ0iVtgGJSymjCWJbFZZdeGmksCgNi0hJ69+1DWUU5a9auZceOnaSLirBtmy1bt7JmzVrOOe88SkpLo4LXYfxgT+MrhA4Wr+Y3v/kNc+fOjcKjoSCprqkmm83St09fzj77bIYPH0YykSCTyfDYY48igK999atMGD+e5pZmunfrxvEnnMD7H3zAb+6+2/RBd5yVYlkWyWSSSZMmYdkWSul2u9ru8kEpH6XaAq9CLofyJFR+ovOqg+hGKM8igWVU2gAXY35WVFQAxsksNFhC0BRErg47bCrJZML4p7QG35hM69as4ZGd28jU7cLRHlYySSarSCZLENJm0IhhHDp1Kql0mqzvoWXMGKRS0rNXL2ZMn8Grr75KNpNlxIgR9O3Xz/j1QgkiiDbI3RmiEShtwsDr163nxhu/hxdgiqSQ5N08+Vye+oZ6EvE455x7LrNmzUL5xrFfV1eP8n2y2QwtLc106dKFeCLBKaeeYuZ8jx5IS6CUMaOV75NMGZ/Q8uXL2bZ1Kw0NDW3Rzx3QgQn/ak1tbS11dfVUlFeQjCcip6bQBZMpFuess87kuOOOi5xCYPwsRhgokskkZWVleJ5nfAtS4nkuWsOaNWuYN28eCIGMOTz77HPMmDGDESNGEi5u2zbAsI82beK99//KpZdeQrq4CEuakGxzcyPEjH3bvWcPDp92OEuXvMua1R8wbsxoGnJZ3njzDeLJBEdMm2a0nWCIg+lsFrPywJLMnHksJ51yMgCeZ0LSIdBIKT8YkABXKlTrMyxBeWUFn5t8CP/zP39mydKl9O3XHxC8OW8+SgiOP+EE4olEG1ynFODrAlOqAKRkfjUO0X79+tC1WxcThfE8PvzwQz7etImy8nK+9tWvcNppp9G9e3ez2DHCb/XqNXTt1o1hw4fj+T6WtMgHkZV+/fthlxTvdRoopcjnctTs2oXr5o3vRYgCiRNux8YMqqyspKioqF1EJ4KcEwoSs2G5wU8RaCJ+ZOuZ1Wjmk+G/r3xampvN3JOSdDKJbUly2SwfvP8+yvcZO3YsRek0Gp+Y5WAj8fIuM4+ewXmfPxPfd4kl4wg7js5pHOHgKU26WzldK7sgnTjNuUZkTKJ8w//1Gzfw+BOPg9bEYzFefvkVZsw4mkOmTAYhAuh966bTLnopBXnPxbItioqL6du3bxAq9mlqamLhwkUo32fW6bO44IILGThoIGWlZQaflUwyatRInn0uxu//8Dvemvcm48aO5fDDD6d//wH8v89/nlgsZhzmykcG7oeY41BeUUG2ro6tW7eSSibJu/m94lEOiCDRQHNzM9lshmQyEQmF0KETOiMtx2bkyJFMnz7DhCmDGWYWn/Hq+8rHzbsAAVjHOJt27drFAw88wMqVKzll1iw2b9nM0kWL+P3vf8/NN99MIpEMwpZmcS1ctBClFIceeqjxFyjfSF8nhtSKuGMh0Rx91FH81x0/Y87Lr3DCzOPIZrMsWrSIcePGMWjwIJxYzMz/Nj1WxGI2KI++fXsz/agj20UyfN83iFchcF2/VQwFq8P1fdLFRUw97HAee/xx3lm4kFmnn059fQMLFy5k6qFTGThoEEIWGn7mH61acQIR0nU3Ffnzn/9/nHTSiViWRSKZZNNHH/H7P/yBN15/gw8//BAVIG4FglwmS0tzM1JKUqkUAhMylFLiuS5CSuKxOMlkKogoiGjytynZqTU1u3Zx++23s2rVqgJ+tOIk/CBykEgk+P73b+KwqYe107C0IIKkhzcWhpCNmSmj0HQricjMsS0bDdTW1YG0SKXSgVNZsmzZckpKShk5cgSe5xKPWcSlhSMk6XiCg0aMYObRR9OkPNzSEoqI4+Q1Iu+BhGYHpBbkPY/ioiIsF3wJjS3N/Pa3v2PBggWccfrpJBNJ/vjb3/Kb39zHgIED6dWnD3nPR2ljYmll8qGs1tFFCoHv+zQ3NTN48CC++c1v0qVLFwCy2SxPPPkk9913HytXrqKuro5kIhlhqkAyffp06utref7551mxYgXvLl7MQw89xIABA5gyZQpnn302Q4YMoaUlgw6VjlDT9j3yrtuaGbAXOiCCRCm/dZAtCxBR53TgYTLhVQOKkgI8143uD3dVEUQmrODjK4XruTQ1NfHnPz/Kiy+9yMSJk/jmN69my5atXHPNNTz99DMMHDiQCy64kETCAMZaWppZvmw5Q4YMpmvXbvieb9T+EA/heVhK4+dyDBs8mFEjRrBs2VLq6uv561/fZ9269Vx88XSKiorI5XM4jmMAWIWTVmtsxyFmWTi2bTQwNF5gzoWRJyMkDU8IHVhCBjBsn9FjRjNq1EGsWrWK9evXU7trF2vXruVb3/oWyWSSNuJBtO7SYVSjUHiIgqtjjk33bt2iNo8dM4av/sdXqNq6lWcem41AcP1111HZpQuJeAI375oICxCLx834FWAOCtHIhaShVesUgmQiwaBBg8jnc2ZHK/AfiYAnSilS6TTl5RVmUXXsJTD3BHPcOO+D3BYhosjYnhyCQkBzUzPvrVqFtC1GjhyBbdts27aVJUveZeiQwaQSSfB9pLYCB7aMHMZ510Wm4tRmMghbQnOOEjsGOZ8mpYnZNspTgWAXuJ7LnDlzmP34bAYNGsQlF19CNpNh+dKlvD1vPg8//DBfu+JKpB34/dqMWtuGGwSyJJ1OU1nZhS5duuD7Jmnw8ssuRwB3//zn/PCHN3PnnXcxadJEWlpacByHiooKvvDFL3LiiSeyefMWlixdwuuvv85f3/8rq1evZsXKlfz+d78LfCQqmsuhjynyN7UT0m3pwGgk2ky+WCxGNpMNYLoqWEAqMmxl0FgTgeg43QptFjxBPoGvFKtXr2H247OJx+NcfPHFdOvWja5du3HFFVfwox/9iIceephDDjmESZM+h1I+VVVVrF79AUceOY2y0mIEBpsBoFwPqcARAlsLhGNz/HHH8V93/5y/PPkk1TU1WFIwevRBSCmJxZwohKq0bntAl26b5SkQ2EKibSsCWZlcEBHZ86Fd7DgOQkjSRUVMmTKZX993H/PffpuPNmxESkn/AQOMsFF+q5MY84t5X6vjQEgTpQj5CyZXx7GNADQCSDBk0CCuuvIbfGP9Bp579lnGjh7Neeefj0AQT8RJpdNU19SwdcsWevYyTkoT5YK6ulqam5vajpkIzapw6DQlJSVc9KUv4StFMpEwgLMAawRG+5TC5MfEYjFyuZzBVXRAbcwb2m6SoRDx95DU5vs+7//1fVavWUPXLl2YMGECoNmyZQvbt2/n+JnHUVlRgRAGUq60xlMe0rIRliSrPPBtSlIpcjkPS2qyuSyOUjS4eYoSKWwlkFpTUlrOOwsXcnfgQzr33HMZOnQo2ZYWLrn4Yr7//e/z2KOPMXzkSKYffQzCsgKTN3SQ7FmQFpLWEA9AnS+88CLvv/sud955Jz//+d2kUmkymQyLFi2irq6WY49VkCsJAAAgAElEQVQ9hl69ejFlymQuv/xyVq9ezaWXXsqypctYvXo1o8eMKXiuDh9OSXFxtBnujQ5IqUXbtkmlUsTicerqao1jM7TX0YFDNbTr26q7banVG+H7PplshubmJm699ads3bSJ008/nSOPnBYt0JNOOokjjzySnevXceutt5FMJYnFYmzduoWGxnqGDh2ME7fQwkcHbVG+0RwMAMvknkw78khSyQRvvPYaq5YvZ0DffvTv1xfbNjiLXC6HE3MgGvxCMghMqc3HkpYBr1mWwSwUxqRE4FwWZufzlVHzD5k8mZKSEhYsWMC8d96mT//+lFdU4CtFNp8PvCrGESelCHYtCH0vrWK59V1aqwDrQhC5Mb6OyVOmcMEFX0QpxZ/++7/5eNMmPNfD93yOOuoodlVX8/QzzxhTIuBTU1Mzr7/+OrqhIeJ9uHPtHpnRQLqoiNLSUhLJJE4sRiwWJ5VMBoCqBI7jmHQDrffp1GvlcqvmGnQwAld1RI1NTTzwwIPs3LGDcePH079/fzKZLB988AGZTJYBAwaYvjiOwZ8Is0nYMZu874Njk89kcHdW47k5LFvg6zzKzxJ3BFIopFZIBdu2VnHPvfeyYf0GTp91OieffArZXA7bsTn55JM5+5xzqKmp5pe/+iW1tbsibExHFKaMdLg6tCabzVJaWsp//uePAc1bb73JY489huPY+L7PI488wm233cbChQsjaIYUgkOnTGHK5Mnkc9l2OTW+79PU3IydTFJSWrrHkH0hHRCNxPd9hg4dSp8+ffhg7Rq2bNvC4IEDEcKAv5TQ+FqRz2XYuGE989+e18qw3dQnpXxKiksYOWoUzc1NXP+9G1i5eBEnnXEGV1/1DRKJhNEMghDqTTfdxNp1H7J0wTt87Yor+OHNN7N0xXIqKyv43OcmgTYqoRH+Gi0UQsLOul34tqB6104GDxnI5AnjePPlOfTo1p1vXHctvXv2JOO6eL6Hp0xOUF1drVn82kYICykttm2tYs5Lr4IUOI5jcmxCdT5YaMmiNEOGDMVx0lEoFiGM+mxbjBo9moPGjOGVOXPIZ7Pc9IMf0LtPHzzfx1EKpQ1mIpvPoY37nq1V21i6dCkxJ8a0Iw4nnU4Tsx3jTJMWtu3g+6GPSSGlxhdGUzz/vPNZtGgRb730Evf95jf84Affx/cVl1xyEcuWLeE3v/kV9fW1TJ8+Hdu2+eUvf8kbc+dCPBahUiMQXtDPyBksZYSw3OuuFvzNCrN3dyNzvzZQ/eBao7kYc9dkmbt8sHo12Ww2wJFofN9j3YfreOrpZ1i1fAVjxo3jp7fdRiKdprHB+J969+7NoCGDcT2fnO/ixCxcNL4FdXW72LhpM2+99Q6OJdG5fMBPCwdNkW2R1RpXxBk2chyJWJJf3HMP8+a9zVHTZ3DllVfRvWcP6utqTZqAlFx4wQUsXrqExW++xc9//gu+e/31xONxstkMr7/+BrlMhqlTp9Kje3d838e2rAh9GovFIn5odAQmmzx5Cjf+5Cf86MYbuf/+Bzh44kRGH3QQxxxzDHPffJPrrrueiy+5mEOnTKGpuZk33niDp2fPZviYMYwbN75NsKixsYn33nufisoKBg0caJJPVYBG3wMdMEHStUsXpkyZwh//+Ec2btzI0MGDo9wT31dYlgTP5c+PPsqjjz0aeaKVUm3Er5vN0H/wYJ5++hmeeuopXnr2WUZNGM9//MflkQoshQRL4AYQ6auvvpobvvc9nnrqKY48chpvv/0248ePp1v3bmSyGRLxWHRfvCgBNkhb4Ll5youLUL7PoYdP5bU5c+jZry/jRh2E9H3wPVzXeNATqRRaCDLZLGDenXdNf2Y/NptsPmfAd1KaYjfhjqlh4OBB3HPPPfTu05tEIoFtW1iWxHZsbN/B941T+NVXX2Xg4MGMP3gCVmASCCmNzyJA5YYJeKtXr+YHN99M/379mXjwBNLpNE7MiXw1BlfjGRBgLGZ8NQBounXvzllnfZ4VK1by5BNPMG7cWM4880xGjRzJDTdcz69++St++9vf8uijj2LbRmAecsghrHzvPTy31QekQ/NtL3iRfdHefHpe0JfQt+R5HplMBjBCpbmmhjvvvBOl/OBagesaJHE6XcQZn/88X/mP/yCZSIDW1NfVsW7dOqZNO5Lu3XvQkm3BicVRwifru3j42Ik4L77yKm8vXoTyXHQuT1LaxC2JFCZi15LL02fgcO6+5z6WLlvJk089RSKV5OtXXEE8kaCpuRkFWAJc16N3795cfdXV3LCrltmzH2PMuHGcNus0fKW459572L51Gw/cfz/dunWN/EfxRCJwTnuB4DZoXYUBGzY1NXHqqafx4ksvsXDuXB555BFuuvEmjjnmWLZtq+LRx/7Mz+64g2Qyafw+LS2MPvhgbrjhBtLpFPl8PuJzdXUNmzZtYsKE8fTq3Xu/QHMHRJCEeRQTJ07kySefZPHixRxx2GGkkkkDa9aaQw45hFgsRiqRoqGhHqugjke4s0kpcPMuFZWV5HI5Nm7cwJnnnMNhhx3O+AkTyGVzgZNRRxBi31eMGzeOr3/962zcsIFNmzYxePBgjp5+FPFYDF95ZhdHo4Rg0IjhzDr7bAaPGoWVSpHNZCgtLWXStMM566ILmXDQWAYPH0Ymm8EXUFycZsqUKZRVVNCnT19sx0EpxecO+RypVBKBIJ/L4WsV5RNpjIPSsixEkG+ULioiHo8zbtx48nmXAQMG4rommSrmOBx88MFceOEF9O3bj6HDhhGLx8i7Lr7ymfS5SXTv0YMuXbsEbglBjx49+PxZZ9G1a1cqKiqxLJtsNseUQ6dg2Ta9evXGksa3E5oPSusgwxeOO+44WlqaWbp0KY2NxnwrKyvniMOPYNSog3j55Zf4aONHpFIpjjnmGLL5PE89/TSjDhrVmtMRjP8BqU2iTbLnxImTyGQy9OjRA9/zSCdTqLJyTjzxRHZNnoK0LGKOg5Aiyt8ZOGAgw0eMZOyYsRHq2vd90ukijj32WCZNmoRtW6RSKfLKM8BBSzJo8CC+cOEXaclmkY7RhFQuTxpJQkpAgWOR9xQ9e/VHCIutVVWccNKJjBo7homTD6GhuRlPK6wA0UwgAMePH88VV17BvPnvUF1dTXNzM7Zlc/qs09lRVUUylcJxTK2b8vJyTjzhRPr07oUIaqOYqGbrOHpunu7du3PF17/OE716U1JSQk1NNcOGDeOrX/0KRx89nddem8PHH39MIpHg4IMPZubMmVHkSghTq0drzfLly3FdlylTDiWVSpk8p31sDmL99mqtAF+DbmPvt7Wx92usg53JkhJpWVRXV/Pd715LVdU27vvVr+gaFHrJ5XIBalMYR2uwGEJb2/C7Ff4LragNMJgDk7beGocPSQXhYdtxjNmjfCO9tSKfyyItI0S01mghUJaFZQnyeeMXSKeSZsH6HkknjteSIy4kCoinkqjAK59z8+Ty+SiZLBGLk4zH8V0PLQXSsY2tHaj9EpN7EqaLhx/LktF3oVMrxFoIYXJSZJBj4SkjnEJfhBQCN5eLEuLiiYSZ7AHYyQSEjDPThNcLx9ZwNXyWZdkBHsOKapUoHfizAkCUZQXFoZQxTRESpcD1vTY4oAhc9RmRBlzPI27Z6FyOoqJimvM5pGOhlY9QCrug/SZE3tZ5n8nmABGZYFLKKDHRvMTw18fHFwLwsSXgB2hr28HzfYTSJLUgJsymgGMhLQetNPlcHi8wu5QlyaPwAq+VVApLa2RYB8Zx8AGkZQCOtOKrwmRQr8A3ITGbUVjbJjQzClG8Wrddf2C0OOWrAvAk0X1gxjU0rwWCXbW7+O51pubPnXfdRb9+Brci2Lu2eGAAaUHsu6ysjNNPP52f/OQ/mTdvHmecfgau65JOF5HP58i7bpCBaJxsjmNHNrXvq4Jcid3IkoHmsofXS4nnezS1NEfITik0Wgq0MBENLRRKamJpG7dpF8V5l2QWyhBUOQLLVSRzOTzXx41LWlBgSZoaTVKb7ys81zMmSVDiIJPNGtMNAXkVhSjR4ANeOPgQhdLMIAf9lAIprCD8Zr7yfd8sWkIHa4inIUrcM/yz8FwXf7cESK21iTB1sCmELlmlNPG4SSgMtQut2iJmDVYlSDkIBInSYFlOtMOHvp7PWiPRGIGo0DjxOI0tzSgpEJ4yOUNBXo3r+ghcNOH8aeW3Zdkgg8RKKUGY2qqy4B1amH9CTiltzF/l+wgViiZJTkNWGb+c9jWW8JE6jASadnrKxxNm3Fu9PsL4VyzLoHKD7GmtRWv0T0M+cKhbltU6T8KFH/wbQRCDqKYItAq0xg+0nvCRwpIUbsUhhkpKCZ7Jr/FdDycWY/nKlax67z0uufhi+vTubSr9sXctU/MZCxIRLlKlcGIxfN/j0EOnMnPmcfzPnx9l2rQj6dK1krxn4OnG428yTS3b4C9M/oAHQrUXgaKVHWYxtgeIh07NEK8CIKTJSwh5YRaEcWC1NGWx/SSulUIlFDnlk/ME0rbI+uDEDCReosnmXKRlE4vFcF03KC4TtEaACMyysHpW2OgInxX8I4M2Fu6I4d+0MEmGhSFUrXS70CrBYlFBfD9EHYalBtuIDSkC/EX7yaCDtmdyWfOFDx3mYGsdTH6jpRhYvBEaJqQcTPGCnbLt7Z9OuERZsAiT3h8KSqXxCvoSRq1su22VuTBp1DTOpCaIQMC3XkUAbNNEXBAa244ZfIvSKOXhI1HIyGkfxiBFqMHJ1nEqrBunAyhGmOelAKELtadQQOggkq8K/kK0KRnUspklWofP0cEcDK8X0XoM8TuioI9WMHcVrXiv2tpaHn30UQYMGGDqtTiOaUsHQ6d3+/2z1UiEQCKDIkN5bMumtKSE008/gw0bNjL/nXeYNevUNo7H0KQBia80Sgel5nT7ybyvYHHhNSE8GkLHnB8IHyDCDkqk0ghs8hKwNFqb3cUXJhqS1eAEplcIr/Z836j6BYWHdIApUVFguYAtFCxsYXY6QQde8FB/lKLDrwsUU6OKFszSCGLNnnNf9G6AtYgdn5BagW8mR0OF30kZqOkd3PM3viu81xRJBh+NsAqwnzqsJYfZMQIq7L9u8yRaK/wXtLVAVwz+zwgSGY1pUPBZGg0O0arPtCYVGh3PbAZthUj4BtUhe8IM9QBgJ2XoU257dyhECu7StM47GczREAoQauMqECLtAuvCrIHQjbB8+XIymQyXXHIxPXv1MpFUHb29g1YXPOqz9JG0vsE0PkRrOo5DfV0dQoqoyK0XIUNlFH2JJqjW7dq+P+X02y62tlQIQosmQAfXG7Rka5lDoY2UDwsIaQFWtIxoFSTRe8DtoK27c1PupTMdISn21jfTjLaaQDvnmNa79X7PVHhvyIPw/hDzEGokRpVvFSR7mjGfpbFTaLLsrbBTyHPTvvCb/Xi+UIEoMWPtC/AxYXehCueRAGG15/Ve2tyujbuNl0KjtUnUQ7Rqh4Wo5Ugoi7Byfev30MprUwDaCGChVVSoq6BVkeautaYlk6GpsZGS0nIS8TjxeDxKam3XH/g7CBJaGxc6fWzbCiqhm/RsP7C5pZBYITagwNG6J9rHiQLm/g4WcniOyP6QHyi8Zkdqz4N9CRJvH2zbmxCJ2rob7UuQFFKHE/tTCpLQd9K+PbLNLvv3PA5hX4Lkb39wQU2cwJzyMYsc7UeASiEk5r9P3+e2ZzW1EVXt/h5dh5nrfsG4RMWfdKs5bBQTHfhxOiZTRjPE/Agc244c7h1eT9v5eOCKPwcSNHTqeJ4fpCpDpJoLkw3avl5rx4rw/s6Zjq7rSNXfE9mRHWra0kbytskeK/i+zTUdWmb/sqRpP3H2aFruY+f9rCkqqfAZC5RwBoZCMjTDlZCB49qYCoGL6jMQJe3fDwVCf7clUmjiG/hD61+ECAt6tba9Y5hfwfsCs9D4oqwgYrf/TD2wB2QFwiQETUV+hsB+K8waLbip4Pf96MgeFvXfZPtjVEDh++bUNSFQQhd4zGWQam0GqRCSHfUneHekjRX4UCKTDhEAwjqefqGPp3Ay7DFEVXBXoV+oTb8CR6M5woDWa0KzTXR81kuh30VHzw+/Mc+JnNodtE8E7RZBGzzfb1MiMnrSblrd7m0PtanQeRj5OtpcFy4GsxuH72i/FnTkRwjLSe6Lwh1eSInQEh2EUj/JQgt5LCDIhQq+7+ja4GeY1AoExbdbExR9raMERxP9bZ1n0XchipvdN9I9z6XQmf5J6cCftCdM7kkbVS2MfXcoRPYsBtr9RexZ5Wv35P0YdIHGBhMu0xo/HJ5gksqgfTqYrFqbQjDh+3RwCJdtWbi+RzweJ5/L4fk+XlDHQ4ggXdzvePFJKbCDBD7tGui3ZdkRmrGjbghhwrCOY+PmDYw/5IBSqqCehE88Fg/Qrq2LVAa4g0LcgmGkRkiLZCJu6rwGf1e+j/IViWSCnOsFUSjaRMrCcQAiO1trjXRM0qOZB9KEkQMetuuc1thOCCBT5PN5PM8z9xfm5GhNPkB8JhPJqLC2kBLt7843HRXXEsJGhs7TDucDrZNJKRKxBNmcKb8ZZq+LvZgLbZ6DgetbloVt2biumR+u67a7VohWn1yYSa0CrEdUOlQGOmLQvpjjYDk2+XzeRBQjgBlEZxLrAlPnM6a/z5Gdof4X/L5//eh4d20T9wcIYvD7lqH7HnCFya+wpIWXd8m7Hr4yHpNkMmUmJkYzCVZN5PMxrRWBwIFcNktNzS4qgvNvfNejqaExOGNHRIPbrg1KkUgk6VJRgac1dTW1YFkUFaWjmH67numw/ovBsZSUlBgOCpPvk83lqKraRteuXXFdl8b6hujwrnQqFRWujgR1MFSO49DU3MzWbVuxLIuS4hJs26aouIjGhga2VW3D9VSrRqJ1G0EfamjSsigtLUEKQXNTE7VZE2oWUlJWUUHMcUxIVLe9V0hTT7ahvgHP8ygvLycWj7XX5IQwJQSVqWi/q6YGMGAsO6jjWjgPYrEYqVQqwizBng+RkhCEfn02bVhHLJ6kvLwMYyzsn00TXaKN6bB9+3aKior3oJG33qOVwg7aXt9Qb7R7X5FOJRG2hbACDU2A9qC6eieO4xgeCRUdO2oq0B+Q/NyI/u5n/4YaySe8g9YaYIV2oxmIMNyq92Ioy/0bc3yt8X2Bj2T+wkUsX74CIU3ls6FDhxKelRLuHJY09VstKXBssyvsqq3lzjt+huU4fOfaa0ErZj/2GA8++CDZbBalVeA3ausRD52HJ510Etdccw3ZTIbb77iDuW+9yQUXXMDZZ59DaWlppBkIYVTezZs38+Mf/yfr16/jyiuu5PgTTgj+LrAsyb333subb77Jww8/zIrly7n2O98BoFePntx1151UlFeYxWhZuJ4blJIUZHM57r3nHp559lmkEHzlq1/l/PPOI5fLsWDBQm69/TZ27Kwhm8uaoyEKCiyFHXLzLpMnT+aWW26hsrKSFStX8sMf/ADXdenbpy+33X4bvXv3RnkqSAAM8q0si0wmy333/ZqnnnkGKSVf+Yqp5CbkHhafFPzv/77ArbfeCpgap7ZlmSMrQvSrFHSprGTUqIM477xzGT16TKCdtD9EKnyLBVRt386FF1zA1KmH8b0bv4dlmdQIYXcs3KPxDJ8hLSzp8+D9D/DyK69w13/dRTLZPdqEEG1jilIILNvBc/Pcf/8DPPzwwwjAsi369OrN1678OgdPPJic6xpQpISf/fRWkskk11xzTZCP5UcNORA+6UL6+x8ivr8aiTGKCaPfvjAxdgAr4IoWRgNQEJwkv/sD2r4XKKgV0vbK0IQBM4A5N0smr6htasHXiuZcPgJ/FWiUEAgT2zJ1WV3P48UXXmD+/Pn86Mc/JpmIk8mYVO1NGzfSp19fevbshVK+yaUQrQZbKEgqKipwbJtkeTknHH88899+m9tvvY2KykrOPPPMVkeb0tTW1nH//Q+wYMECpk+fzmGHH96my5lMhueff46DDjqIdDpFY1MjG4PzSmqqq1n67hKOP+EEctksWDLwaRmHXU1NDa++OsecRBiLUVdbBxjTJpPN8PHHHxOLJxk2dFiHNUTCxLoePbpH8O7mpia2bN5CPpejvr6eNavX0Kd3b2OKYLQ6GUCym5saef3119m8YQNgtK49+SVM8R+LhoYGdmzfTkVlJYMGDTLajuthzlvy8H3F6jWreW/pMt59dzG/+tWvGT16dCTgtWovTIQG5Xls+XgTtbuGg/LBMngp2aaeGR3eq4XRUHfu3MmLL77I4YcdRtcuXYw/osO+mI1zR/UObr3lp8x+/HGGDR9G3z598XyP+e+8w0ff/S43fO8GJh9yCAKIxSxmnXIK119/A0MGDeLCC79EJptBWlakrR9IYfJ3EyRtwlvhd7tdowuuNTklBkqsBHiB5iGgDehJCmGSoqRF2+PmQxdhEJvHwOOlJgCh0cbcUoIIRq58sJwELXmPhrxLMp3EkxY+YjeGBZU/pEkJ8D2flmyGP/zhD0w+ZDKTJk4EwHHswGGnOProY7jqqm+glI7OI4ZWAWeaZVCXEsEx02fw3qpV/Pzee3ng/gcYPXYsgwcPDtrp8+KLL/LMM88watRILrroS5QUF0fOXjAFg7du3cbll1+O63pBIWrjtWppbmH+2/M5Yto0YrEYvmd8CVYAOa+prqFmVw1l3btTF5gLu40qE4MM0sqg/N/u5Ng2uVzOVFRTrYdbAzTW1vLWW28Fx67qoKatSZgzx3PW0FDfgBOP4zY1oZRPPp8PKsXtmVQ+z6hRI7n+uuvp27u3yb2ynUjb+eCDD7jllp+ybNkyHn74Ia655jukUimTZ4RPoSxpVXI1fj6HRAcREFX4x1ahEf5P4ZhqY7Kueu893HyeadOmAYJMpsWUBBWth7FB63x9b/UHPPfiC0w98gi++93rGDpsKK7v8z+PPsrdP7+bX9//AENHjqJXly7k8x7Dh41k7LjxPPGXpzhy+tH07NWrY9/TAaC9GE4Bs/YLubFvKnxa+PG1Lvi0VgXXgKvBlZJm32X1po9YtGIF8xe/yztLl7F8zRo2bN1Gi+8jEnEUkHNdWrJ5ahsaqW9qJud6VO+qZcWq95j/zkLeWryYtZs30+R6eMJAnDUSXwuqdu1i1eo1vLtiJW8tXMjq9RvYWV+PKwQ5X+HrAM6mW2usEv2QgRPLLNDf/f5+auvqOPnUk0mmU5GzK/T8O45DUVExJcXFpFLp6JNOp0kFJwsWp4uMyaTNcRhfPO98Tpg5k9VLlnDn7XcEtrLP0qXLeOCBB9Ba86UvXcTQocMiIaK1qd3x2uuvUVJSwsCBgwx+xzPVwocOG8boMaNZumQpW7ZsiY7KNOaScby+/PJL5HI5Tj311OCwLtpUIFNKIaQITn4rIplMkojH23yS8QTpZMo43H0f33VRWjHpc59j4JChvPnmXOrqagtSGIzpaFsWzz33HMlkkjFjx4JttzkCpMM5Fp774uaxbYfS0tKAt0WUlBRTXFxCSUkp48eP56qrvoF2XVasWEFNTY2JvgXZwlJIGurrWffhOnbu3EFLS5N5bi4fBQqkEAEAOdAmA6ERmiWObdPS0hycjaTIZXM8++yzTJw0iaHDhiGEIBaPt0O6aoJsXt/jhRdeRFgWJ51yCoOGDkFZklgqyRlnnclh06axeOkSPli9GseJgYZ0uohzzz2ftes28NTTz2IFh3a16uBBsEAHWo+OWrzbp+P1WvjZXTT9/U2bfZBG40lJHsH26h3MX7iIpStXkM/kgkVgAF+VFRVMGDeWo6YdTlE8QXVVDW+99SabN3+MZdmMHnMQ8+fPo6GhgcZMCyIeZ/CQoRw19TAmDB8ZOTxr6mqZt2ghy1atYlddHVJapFNFDB40GMuSxJ0YjrRaa9BKCQUQ63Au2Y7D+g0beOLxxxk0eDCjR4+hpaWlAK4c3YLvmyNNfb/VRxLC5gUEPheDChYauld24eqvXcHSxe/y2rPP8uc/TWPG0TO468472bxlM1++5FKmTJlizhIWYcaxprp6J3PnzqVbt250794Nzw80kqBi+8gRI3n4oYdYtHAhQwYPjg6VymdzCK15+qmn+NzEiQwbPASCM4LaVcvSxmnakckhhMB13SBsKY0gVop8Lk9lZSUDBg5g9kMPMW/+fE44/vgIy5DN5ti2bSsLFy5k0KBBdO3ahSXvvovtOHsswxiaCTqoZ2NJGZ1EB61FpsPQb0lpKdgWnmeiUWHGdGNjI8888xT/++ILbN2yFaF8ph11BJMnHxJE74LykFKaiAoaLQyEPgQa3veb3+CHkTppoXyPjzZ9zJw5czhu5kz++09/wtea6UcfTf+BA9r1xbJtGurqeOGFF+hSWcnY0WPQyifb1GKOvPU9xo4+iNffeI3l761kxrRpaK2wHZsJkw5m2IjhPP/i85xw0gn06dsnGKaOgxcd8pJPbgb98wkSDT4CD81f137IO0uWoIBkPEk87aClYGdDPR/v2Im3YiVlFeUcMm4CWkh21tSyfWc1UkrcZR4t2SxFpaVYySQN+Tzvr1sHQjKwTz/Ki4pxPZfF763inWXLcH0fJ5kinUpjS4fVH64LAEcSQagu6cAD3r70nJQWS5YsoaGxkXHjx1NUXEw+nwtO17OCyIE5bS+fz2FZdhSGRRgzxnwgHo+ZOiuBbe4rxfBBg/napZdxy+238cv/uptlixazZP58Tjh9Fv/v7LNJp1PBubhGA4rFHD5cu5Z169dz6imnUlZWbuqd+B4yiFpMnDSRvzz5pKnEf+opFBUV4fumduqcOa9Sta2KSy+5lEQiAegOnZye75PJZEgGx2S04YkQKM9kBcfj8TZn/TqOw5TJk3n22Wd5+aWXOOboo025xQADsXz5CjZv3syxxx5DNpuNIh571UiCD0GhcNu2DVakYFfWWpPJZFi5YiW4LkVFaUpKSnBiMTItLTzwwAP8/ve/pWv3bowaNSMh//8AACAASURBVBILmDPnVTasXxck3oTHqGJ8eIFJLDDaqgb+PPsxGhobkZjyEm4mQ03NLqRtMffNN1mwYCGV3bowZNhQ+g8c0BYPA+QyGbZt3UpTfT0Tx46ltChF0rHRbg7puxTFHbqVlxCzJRs2bSCbb6E8XUxjQwMi5jBt2mH86te/ZvmKZfTq3dPwrYBH+xIof4sh9E8nSMDsKl7eY+uWrfieori4mOOPPpZBAwayvbqav7z8Ilu3V1H//8l77/i6rjLd/7t2O1W92Cq2JduyJfcm17ikMCEd0ghD71xKhgztEhjaXLiQYWjDkARIAqQQSCdOsdMcp9uOu2W5yF1ualY7Zdf7x1p7Sy5JzAzh8ru/9fkcW5bPObut9a63PO/zDGbI2h5oskXcC+RD9XyJV7jk0suoqq5mz4H9LH/mGTKZLMd7ejja2UW6oJCOgX7W79hBdzZLMpZg4tjxnLt0KQSCV195ldfWvEYyGcdWFIVhG/mZDIlh6Gzbtg3XdZnb3CwpA8OkcEDkCaxbt47/+I9fyPAhqtoITE3DVJ3Q11xzDRWlZQSeJ3s9goCEaXHVpZfRvncvv/zNr1n+0MNMnT6d6z/7OSorKvCU4jxIT8DzXA4cPEAul+Oii96JaZrYti3b4h0Hx3WZOGECDQ0NvLZmDSdO9GJZMUzTxDQMlj+6nHQ6RXPzHFpbW884uzRNY//+/fzyl79kxIgRKpkZCj/JkUokWLBwIdOnTVO7uYZuyP6UadOmM2b0aLZta6G3t5fq6moA+vszbN68Gdd1Offc83j44YdAeRSSw+X0SkkUbmgaJBJ0dXXRtns3SaUzHULH87bN86ue57bbbiNVUsJFF11EcXERjm2zbetW7r33D4wcOZIbv/F1pkyeTEVpGWvWvMx3v/ttYqkk+XyewPPBkon+sPPGFxLz4QvBl776FYQQZDNZChIJDrTt5Z577uGKd72LaTOmA5BMpRg1ZrScH5yMfYoZBrmBQfQgIGVZlKRTGMLHMiDwbCwrTs3IcjRcAt/BdXJ4rompg+c7TJvSRODmadm6iQvOOzfKKfknHeWvCyb5uzMkAjARJHWdJfPmMa5uHLFEnMmTphBPmJjxOOWVFbR3HMcNAjTDxPEkN4bjezgEmLrO+IYGZs2eTcyKkS4qYkPLdjL79pHJZunu6SYYO5bOEyc4cPwoOc+luqSYc89dxuiaWlwvYP6ihbQfO8Lx40dxfP8trbTv+2zcuIl4PM7ExkbJ7eq6Sl9EVi/wfXbv3s3evXvRjaHyrwAMoWEpNvE5i+ZTXFxETNNwsjmZYNY1CpIJrrricn53950EmmBC/VjG1o4GV4ZKYV+EbuhkslnWrl1HcVEx06ZNB2QDlwjBWggKi4qYM2c2v/3t79ixo5Vq1fF59NgxtrW0UF9fT0V5Ba3s4EyWxPM89rTt5sjRI6qSdTIFggBqqqR64ZTJkxV5kgRx4ftUlJcxbfp0HnjgAXbv3k1NTQ2e59PZ2cWqVauYNm0qtbW1Mj/hyx6XNyJ3BgXkEgIGB9m8eRNfu/FG7FxOdWpLcijbtjm4by8jqmu46KJ3cvnlV2BZMZx8nhUrVnD8eAcf/MD7WXLOYimhEfjMnD2L977//dz41a/gC/ACXy4claQHFJYmwAs8Fi45B8MwiGnydevNNzO6ro73f/ADFJeWksvlCATE4nHJ5yuGGZMARdwsybU8x0Ygc1eBBg4BMT0A4WOZGoHvYJoa2ewAuhC4jktVeSkjS0vYt2snTm6QmKmj66Z8Nm9Tq8LfnSGRLdmCWDzO+PHjiRcU0dXVzYZNG+no6qb92FEOHD+K43vSFRZiiNTY97H9gFjcpKqqGl3oaAEkDIuiRJKUYWIIHeEGeFmb3GAWT4HIiouKqSyvkHE8AQXFRZSUl3H42JGohU8LhnIipz6OwcEMe/bsobRUdk6GKnshO72pyGUuOP9crrrqKhlDu45i9ZbxtqbCp8rqaga1ADdm4BlSP2bAc8gMDPC/b7uVjO8ivIBXX3uV5559miuufDcDmUyUJ0haSY4dP8aWLZtZsmQJpmlEEPiQCyWcT7Nnz+aBBx7k5ZdfZvHixXiex5ZNm+jq7OSaq66SVSCVFwmxOOFL1zSaGifxiU99klQyGdFORozyAH7AhAkT8IMAYxhXBkg5zMsuvYxHHn6E5557jiVLluL7Pu3t7XR2dvK+972PkpJi+Zw17aSEpnoMJ5m36GfHoSCVZlJjE7adx3Ecjh/vYPPmTQS2zXUf+CDvec+1jBo1isLCQmzHZqC/n33791NcXETTpEk4joNhmORtmwCPd1z4D9x44/+UbHW+HxljESiyLGVCBWCZMSxDR3M9Du3ZzcrHH+Wdl11KuqSAwPAxLJm/cRSPi7wOLaIq8AUIw5BEV4aumPUkdN3QZf4syNsEGSmHoQkpN2IYJpbQKU2mMdE5dvgoru2QSCSx3dNxMn/N8XdlSGTGWjI42Y7D4Y5Onn/5VQ61t9PT10ffYIZ4MomZTkmKQl0KEUkuVCF5KnQNzTQoKCwk8CSThBEIhONhuB6pZBxT00kYJoHryV0yECRDKU5NQCDQTRNhGFFZOBJ4eINnYdt5Mn29VNdUE1futKEbkh09UKVe06Cmqor58+ZCEGC7DvFEAl1ocrF6snIwqEkqgpzvqp4fie24/d67ee7Vl5kyczqzZ87kj/fcy+2338ao0aOY2NRE4Ll4gJ3Ps71lO52dnbznPdfJe6tyJwRD7q1pGEycMJEJDQ289uprHDp4iJqaGl566SV8z+Pd73pXxFoecn2IYNg9CAJGjKhkwYIFFBcXS0BZyNWiq4ZMT4YikVBYCMlX9JKzZs2kprqa++67jy998YvEYjHWrl1DQTpN85zZUnReIWejdOEZ8AMR4ZLvgaYxefIUPn/95ykrLcPzXNrb21mxYiX/+Z//yd69e+nr66ekpERWi1yfXF6qC5qmSTKZHEqEq4VeUlqKMHQMTUP40uiLQJKtqY6XSEv4tttvx8lmsHyfrkPt7Nm2lU3VI+nq7caIWWi+oLy0lAULFzGqfqxM0oqhNeAJsBIxjJhJoDFEXxByv/gBltAxfTB8gWXG8X0XXegQeMS0GKYw6O0+wWB/RqEiNIIIQPHXH39XhkQ5IwhN4+iRw6x45hl27t2Pbpo0TJzAmLp64skEr2/bwolduxSjtlTNC0cAUSLTdaSCXuB5xDQd3QccFwOBqeng+Wi6hLQ7nodmmghDJ/AleY7QJNjNU66nFijI9BnO3bJiYJqqz0FEO3bYRakJ2UOj6zp2PicrBUjCajcIwPMxle5NTPF7eqopS9MEK596mofuupukEHzzm/9CWUkJe9vaeGHVau6+6y6++KUvkyxIEyjU7M6dO3EcV6FxibhgI0U+X5aWR9XUMHvmTO655x62b9tGUWEhGzds5MILL6SwsFBx0oYG6NQHJqUwdU0j8H3yjoOm6wjFPxveB5kkHeppCfusBJBOJLn4oov4z5//nCcef4KLLrqI5599jtkzZzJ61Ghcx1XHHzqspMo8vQoRnWIigRWPkS4oIJlM4LoejY2NjB/fwPHjx7nvT3/Etm1GjaqltrYWTcl1IER0rrFYDNt2ELrkqLVzOYTrERc6pi+wfOl/RNW2CDMScN8993B4zx7Kk0nIZon5Pi8+/RS8ksDXdBKaSUVFBXW1o6mvG6vyK0QhjoeHZuqgCfoG+unt6yWdTspj+AH5TI5j7UewM3lSsRSmESeXy+B5AbgBhm5RXFhCMNCPblh4no8XEIEy3w5j8ndlSICISKj98GH27z8gVebGjOFdV1xBSVkx3b0DrN28iYAhnRQRKLc7Sm5KhKIuBHroZqubGCbeNE1jRNVIfCEINI3jXV0c7+6muLiYIBASIdnRqdrG1TEYwo6oIxHO8FQqCYqUOjMwSGFRYZTZD918z7ZxbRtdaAgtkAsv+poA4fnoCCwhvaIAuUB3tO7kjh//jETO4X/eeCOzGycRCPjW17/Bx/Z+gueee45p06ZzyWWXYibiDAwM8PLLLzF27FhqaqpPyisMJ2mWRkVjypQpuK7L5s2bsR2H/fv38YlPfiLqOJWxXNjXMTQJhfrDdV2J8gy9B8UeJ6s2Lr5SWpS3Y4jTVVPcsosXL+aOO+5g9erVlJaWcvDQId773vdSXFysELGcNPc9z0MzDAzFCG/btoSaK3lYDGNYhWfo2ZumwQ9+8APWrFnDhrVr+OlPf8Y3v/kvGIakz6ypqWHjxo20t7czY8YMUqmUpAV1XNr37oNsHi2bo0ATFGg6fT5k0dECLeJs1YCbvvuvxH3Y9toafnfzL/n2d79B5fg6evJ5XKHjZvOUlpRQPWo0VoBa5PLafGSYUlFewaJzzmHXthYOHjhE1ciRaEIn0AKS8SR79+whmx2gsXE8J3qOUxBPYmiyobQn18/xjiOYiQS6DrqhKWNyan3orzfe3k6e/8IYbt2Ha5ccO3aUrs5uXnx+FceOHVWLOkAoaJnAJ+y6kbwnPrqudhhdUyGCTyACPN/FCzwKCguoqa1BaIJjHR08sWIlHV3dHOvo4OFHH+Vge/tZn7fv+9SPG8fA4CBd3V3ErFA7R1UShMC0LAzDwPNciTJV+R3btiXxsuej+QGmGxD3AlI+2D29/PmuP3Di4GEuPe8ClsxbgBHINoGRI0Zw9dVX09vbyx/+cA979uzBNEwOtR9iz569jG8YTyKZxFfVEjkC1XaukpOaoLm5mZqaGp577jkef+xxkskUdWPGRN6L50lCqvDfQw9L9hfFYjEEUsEv9MBCFGlItRCC3YZkDyTvazaTYeqUKdTW1PD666/z8MMPU1VVxXwl9i7E6a3+YXVJU93WkdFQxz6pA1mFPNIrkx243/rWN4ml06xevZrXXltDKp2mrKyU+fPnI4DHH3+C48c7cBxHAujyeZY/8CApTcf0HEw/IBZo6L6kfpRE2JLImSBgUmMT0yZNJnuilxkTGrn4vPOZP2MWFyw9l2WLl3Du0mXMmTWb2urqyMsdLvWKH1BQkGbhggXs37mTp556ilw2R8yMETdjrF+3lhdefJ7KijKmTW2iuDCJEC5oDmgOvf2dZLK91IwaQTxhkM324/sOstr49uRJ/qYeyVvbQNV74HsKFRnDy9t0dXZw2223YZmmlME0dZJhbVyJkBuabJwTgI2P0LUo0eni46IsskAq5fkepiaYUjeWjrZ95ByXltbttLRuh0AiOFOpFNlcJtLS5RQXe/hV2bZD8+w5PPjgA7QfamfK5MkK6ORGKFOha3R3d7N71y7y+Tx+EGCqblbh+VgIEkIjaVjUjx6DaZo88MAD3P/Qg0xsnMjHP/lJRo4YEZ1CzLK45JJL2Nayjaeeeppf/epWfvzTn7KztRXD0Fm0aBG6aeD53lBCV5OMdJrqFRkYGMC0LBYuWsStv/gFBw8d4rLLLqO6tlYp+pmy0qNc/iAIIkpFIQQ9PT1s2LiRdCqF5/tSDF4I6S1oGo5tY5omo0eNZsSIEUAg9XSVcLquAGYLFizgd7fcwktKZa6kpIS+/n7KQoOsQo+QrNpxHF566SXyts3c5mZSqVSkp4Q6NzmjkEYwiDIZzJw5k6uuvJJ77vgtd975eyZMnEDd6DEsXryY6bNmsOr5VRT8OM2111xDMh7npeee5d67fkNhChIxXZWRPXKeh2+Y6niyEuUHPrFkgsMHD/H0Ky/z+Y9/FLO0mLwGvpDoZzMh5TRt15UeMeG5DvGu6JrGonMWMbV5Dg899CBjR49hwsQJuL7Lb2/7FQcPHOC6666jsbFR5XNChLjPse4uPBFQN7aedEGBRC0PO044Z/+aPsnfrtfmLd8RRH/qQjBhbD0L5zbz8tp1DORyaL6H5mrUlFcwbfIUVq19jZ7MAEcOHkLMC0gnk8QMg7hpYquEa0gM4/oegSbI5LOkEwkS8RhCh6JEgvNnzsTM27y6fgPdJ3rxfJ94PM7IqioKCgvZvHkzMSV3CadwVwynQfMDli5eyp/+8Aeef34V55yzUOKXlAZJb98J8gP9/OGPf2D5nx9GCImnyNm2RLB6PnGhUWjFqKocyY9/8hO6+07wq3vvRpQU8JEvfJ7qhnEIhJQTQEKpa2ur+fBHP8yutl08tvxR6sfWM5jNUVpSzLQZ0wi0sMIiBdzj8TiOJxOSmqGTLijA9VzmL1zAgw8/RMehQyxeuoR4IkEsFpO5DkMnnkpSWFiErmkSS4GkGXj1lZdZt2H9aZpEYSjjuS4FhYX863e+wyUXX4zrutJ4qFK0obRoP/ShD3H33XeTyWSYM2cOJcXF8jgqVEoouoN0oRS1Ni2LT3360xiGwR//+EcaGhokF4xhgCq7S6F3PwKOhRtVKp3mf3zmM6xbt45XX3yJ3/z6N9z49RspLivl2//6Hb7/ve/z5MoVrHzyCRKmhZvJcvW7lrHi8T/jkCdRVMhAziermkp9yUWpVO88NC3gV3+6l+6EwYh5M+hKGZJ83HeJlpyQ1R7ZcBrC0kO9JfmW6uoqPn/957j5Jz/j+9//35i6IaU9s/1cfdWVfOBDHyYWS4Aw8DVp4P3AZmPLDnw9xszZ8zCMOJqm4wcaQxpQ/z/IkYT0dUXJJMsWLqRuTB17Dx7Eth0qSkqZNmEilmWhmxo9g4OkUikG+k5QkC5gSuNEiktLcJMW6XgMTfgYukB3AxrGjqW4oADdDygsSOE6eYIALNPg3AULaBw1mgMHDtLb109NbQ1j6urIZDLUFxQgBNRUVhLoioPiDN6h53lMmzaN+nFjaWlpYWBggOLiIjyVPxhTV8/7PvIRsoOD0U3XdB1Nxfi+4xITGgVWjIqKCkTcYt+OwyxYtpQp06ayaNlS9LgsKzuOChMQDGazTJ8+na985SusWLGCfD4fKdSnUilVmpTYB8swqK6p4YMf+ADjxo1D13XytrwPExom8LGPfZzjx4+xYMECPM8jn89jGAa1NbW8+91X0tTURIAss9dU13D5ZZfRc6JX7fhBlAsKtZgDZMI5mUoxduw4hNCorR3FFVdcQUPDeEzTlJwhhkFdfT0f+vCHMQ2DCy+8EN/3MU2TfC7HzJkzuOqqq5gwYSKDAwNSdtLzeP/73ofn+xQVFqpGw4DJkyZx3Qc/yKSmJizT5KQcIwBSSLtyxAj+5dvf5oEHHiCRStLX308inWJcQwM/+fnPWffaK6x+9lliQuei8y9g3tw6SiuKGVM3iawW4MZMDHQMhSuR3CTSp+jp62X7zh28853vZMTIajI5G0sJYp2eqB/qbYEhakdNCJLJJBdddBGzp05j9bOradnaQlFRIYsXL2TmrBnEUwkcz8MJQOg6rufTO9DPg488zviJk5k6Yw5Ct1QP2/DC+V9/vAn58+kX+7ccfhDgBzJxJkxLWnDHxXBlFcHVBS6Kcs51iccTUgbD98h4eZK6ia6Sl/nAx9OU4JDnY/qBElWSMS5CYGg6htAiL8NTDWnhcG0bQ1d0iqrHQsa0cgr4rovnudx226+5867f8/3vf493XHA+dt5Wx5DoV03IMCZQJeEgkOU9LRCYQsMSGr4QZF0HRwS4QlaUhC8TeYYQDPFrCjwFQQ87iU0rhuf6DOZzBLqOF07MIMDSDXzHHWrQUx5bWKkIxbZ834u0dIRQIlFBEPGFeJ6UoAwAoUSnZMgzLCuqMC0heU+gWNWCwFdJWSKuEIGE2ksdZAM7nwcxpDQgVA+Q0DTyjiOvVx0fiAyY4zqAvBeGbuC4rmyaO6lMLK/TVKJmpim7gh3HJVQQ8AWYmobwPIwANM8BMYiuB/i+jutbBFocVxg4obfju+C7aCLAdl0Otx9lRHk5JQUpNCETzgE6PuYpM33o5MK+HflbHwMhy8yOhy4MCUvQdYLABl0abzSB6wfolkU+b/PMs89yww038NnPfI5PfOITkvBJqPYwcXbr+L/Spvt355GEI8xv+J4bofF0P0BXiTNN1ew1IfA0CftGgBEEpNHQw4Sb7xHTNQKhYdsOcSuGLmS5NQQlBApp6aOhC5kY1UF10knwlKGJqMJyeiVUGpZYLMaFF76Tx5Y/ypNPPMHcOXNIp1ISB6COlbdt9EASEjmuK2kXA1/yWgg5kR2FI3EFOIHU2NF1mZ9x/ABdhDkAgRmLScSmKrc6mSySE1aPekAg5P+UizHq4A1O5jb1vLCyop2smUOY9JR5hnD3D0BSGYYHOcMMDJsJIqdaaBHnR8hgFnKZZjMZRTM5xFWKGOKTDYbB44d3ITP8u4MAx3bwdD8qxZ/8HlnVk9QChkyoKli/rxayp5LFWiBlPLXAw9DjuIGP5wcgdAUcC4bEx4QM1TQREI/Hqa+rwzJMCFz8CMdxuiDEm41QJVELApnTM2N4mvwuX8lzBtJa4/o+WdvmyZUrmTJlCuddcD6O6yqjLU51y/7q4++uajN8SG3gADxX5kgCH11IDIil6VhCwwgCdA38QOr7GoFPTH1OUytfKFxG0rQketT3o1KdHgQYQYApwDIkQZEuQBNS5lPhDYdNSGVFRPizfBUWpDFNg/r6Oq677jo2btzI1q1bo+sAyRYWYlQCVXOSbGQaaFI/xR328hCSTElIw4CmgS4Tn2F87XqeIiKSkzTiGzmLiROiKP8rr0gU6r81gqE2ASFU97EST+P0dvWzqTcMVXrOJFI6NDzfk0bElaRHZ6LF8oXA1zQ8TccTBp5mgREj0HT11IfSpEIZ94iAW4V78n3irIzIKSaPQIBm6PiaINAFvg6+rhFoAl8LOXQCAk3DsEza9rSxdt06Lr38ciY1TcKKxd6mGs3p4+/WIwmHEAJdSRcGCCRVrjdEjiuT+BgasipB2PEhx1Dno3r0SpMELZTBkP/0gwAReAjNlw/eD06eXKpiEf4s/5buiQZksxnCfpZLL7uUvfv28cILL9HYOIl0QVryP/gaugIa+cO+OGxDD4SI4ugwojXUFWkhHkKdbziiH6MqRbjC5b9P1tAJOLvl+NYjXCD/PWMSMqBDCFALz+4kA3KmYtkbfmWoNjekqfRGI2TpP1mIPpAeqzqilMIcJoMqht1dEQx9xzC8SqDCCC8IFQ9DI/JWN0tSEfgilENVZ6HrIFv0IJBz3w+vVZ4ywg94+OFHuOKKy3nXu6+U/68NfcfbrTf0d5sjeeMhhv15+tIQqJ1MvSHMYwznYxgelYowtEFNBk0gzqQCEpy+ZwkC1X8ydBYBslKTyWboPXGC8vIKdF1Trql5xlb8UwU2T15MJ5vG4Z8WoLRjT/k+tTCGdvQw1fbXMyRD33p2E/RMAmVn+nRECzg8r/GXntd/o6ckIJAhC6HTqZ7CGWxmgNS5ke8d8k5D70O+P8Q3Dblxb37HTj7+qWJqAShVBtVIKhSzXwAnenqIxeKkUwVDQMJonH1Y9f9UjuSNRzDsTzne6vacOq2iJF34d7iLEW4BYW7k7M9m6Lvky9B0qquqEZqkDRRCk3iUM37HmY8Vdpe8+dQ7k5EPm8iGzvDMRz7TIlVXFJz+DnGWybq/1vhbueXDhzTOp/4Gznw2wRnu66lPa5jqrppTf4mY1+nfTpSTkfNVRD9XVFbKcMo904bxRgc9fW6daba91Sn/f9CQvPmIjMRfOAv/ctdv6ACB8snDHUwLIKni05ANTUpZDE27U43ZG5zVW7zjDf5/WAIjdMe1yECe6QpO+XgQqNBu2JFUTui/6iKf7HP9vzqGX+FfstWd/bdrBJKjRm0ww4/iuK7ECwlOJ7EWQ5vJ0Nw7ef681Zx8syX1d2tIzsoJf4PY+a0+N3yPOZNMxRtP+jc+q9CY+MqzMXRDarUgKzQITtJRDRf4f2vbDd7gTMVZ3T35VsEpVSh5Uqf5fadIlZ6azzjT0YZP02DYV7wter3/l4Zg2P07W3vxX37uKjMVgIHMp7mnpM08X1JqhC0kqNyeHkiBt4AhrIp8FjIp7anyfRB550Nz+mxSG29iSP7v7B+n7tgwFC+f2Vk7u/OMSoOOg6EIhHRNV4Q5w75Frc1AJdFM08QPfBzHJplIkstlCQDLMhGA6zoEiqfE9SRq0zQkAtHzPLLZjEI8asRjMXr7+kin09h2HkMfQswKIVGzCUVB4Hk+vudHxsdQSnjpVEoiGBXFYeDLkq6hKh6uezILenhRPpBMJOju6SaVSuHYsi8mFo+hKbSqqUqvIUo1wpiECoKGge95Ep+hdj9PqfeZpkk2myGby2EaQ1iJMF9hqka6fC5HYWFhJC1xeiAQMnlBWJ7WNI1YPC4V/oaRTAW+T9620YTU4EkkEjiK+Pmsxml5L3kGZ5pRw3+n67oS9ZI9SPm8fdInE/EE/QMDCCR5UdhvFJp9XZMKg/I52LK1wHWjio+mSruhF5jNZTFNQybfdQPPddB9WZr2knFi6Biej4U0Hif0ACECdM8jLgS6H3Civ5dUYRGxZJLBXDY6W99xSKbTZPI5ZUxOkToVEKX/g+gXp4238Ej+tsbkpJ1NnHnHO5l1W8AZko1nGgcP7OfIkaPk8znG1Y+lsrKSeCx2UrIy2ovDCa5JzMTG19ezd+9eli1bRll5Ge2HDrFi5QoGBwejUmOgOlwtK4aumvQ0TWPkyBHMnz8fTdN55pmnOXLkCE1Nk5g3b14EBIMwTyPRpKuff4Ht27czY+ZM5s6dC0Be9ay89tpr7Nixg6XLlmGaJo8tX05vXx+lpaUsW7aMujF1DGYyp91Zz/fZvmMHK1euxDRNxtbXs3jJEnzfp7urmydXrGBgYECCxFSTnavCslCJDyCdTnHRRRdTVFzE7rbdPP/8agYygyQSCf7xvf8oDaxKKEe6LWpVvL5+PRs3biSfyzF37lya58zBP0UkbPjKPnr0KM8880xEznyqsLUmBCWlpdTW1jJ9+nQcx8YyrZM8vzcdp7tjah68+ZzaunUra9euo6FhPEuWLMFzXUm8rcahQ+08qZAEtwAAIABJREFU++yzuK7L2LFjWbhwIcNNZoDg2LFjbNiwkcHBQZYuWUJFRcXwbJRc5J4E/7Vsb2Xrlk1MnzKZ2dNnoAcBljKwfbYj1SGH5Up8ZYDQpMeiGQaFhQXomsBz8uhK89jOZnj+2ecoLC5h7oL5Q0bkJB/n7NbX3y60CdGgb5Cwk6VYFdcLwfDK/vBM/mmP/SxtXUtrK6+88ioQkEymGFlVpWDdp2fGpXyED4FGa2srP/7xT5i/YD7pdBrf91i/YT033XSThLa7SrtVaEN+ru9LwJuh0zxvPjXVNYwbPx7btrn5llsYM3oMN930Q5qaJg0DeoHjuLQfaudnP/8ZAwMDNE2aFF45iUQC3/e566672LJ1K3PnzaO7q4vb77iD9vZ2amtrKSospKK8/IyJ4lQqxWOPPcbPf/hD9HSaz37mM1x88cXkbZuDhw5x1113sWvnTlLpNK5ChIYTK+wADnI5Ro4Zw6RJk5hcMAXbtrnl1lvpaT9EvLycyVOmsPicc7Bte/iDBaB/cIAHHnyQR5c/SuBJPeKZ06dLozv83ivPLACOHD7MT3/2MxzblgTQZ3j0AVBcXMxll17KF264QZJcnWmODfM+/pI8z3DahXDs27ePX/3qVs4//wKam5uJxWKq41z9/969/PrXv6ajo4OmpibmzZsXtQOE57J7dxu33XYblRUVnLtsmSR/OoWhPwjAtEw2b97MD7/7Ha6/4QtMnjCBhGZw5Fgnyx9/nOnz5jGtuZms55PVZZLdk9lYXNOg33MJhEeJBoaTJ2GlyNh5GdaIgF07W3nxpZf5Sf3PqVQ6OEPr7Ow36r+NIQnkjiiEpI4LEZQAvucrWjsD3dClWxugYGCAUChGMUSiE0lDRpNDO+VwQcTEpasdNplMAwLHdrDzNpYVU+jJM9Qt1OTp6+3jtttvJ5PJcOGFF0od4Jyj4O0mU6dO5WMf+yiVlSNwHBvX9aL+Dsex0XWdkpISqqurSSSSXHnllaxfv56H7riDW2+9le/9r+9RVFyMAPL5PMePH+eb3/oWhw4d4p+u/yfOPffcaPJ5nkdmcJANGzfS2NhIUVERuVxOKsTZNgfa2ti8eTPnnXcehnm6a5/P5XjyySdB1yUviueRyWbQNB3Hcejt7WX0mNFc//nrqaquPomUKQzzwjF16rTomXieC55Hrv0wD93/APPmNA9LjAzd2+6ubl5//XUGu7pBEVHnbZtkPH7G+y+fvfQYRo2q5ctf/gqpVApd1yOW/e7ubl55+WUefOgh7vz97wH42te+dhIqV00hlZ8Z8pTeaEQUkSG6Vl2/jwwXNE3yt5imxaZNm+g43kH92HpsWy5e3/fZ1rKNgzt3MHpiI9u3b+dwezujx4yOeGFcoG33bnbt2sWcOXMoLimRRiQIM1OyVynUZp4zZzaf/9KXmTFlCjErRlmqkLt/fTu3/PJmfnDTaKyZvkRJBwZ2Lk9xWoVMAkzDwnUdHN/HEwF2dgBXk+Tbumnwmc9+lpUrnuIXP/8PvnzjjaRLSoY63f+C8TcTEReaRiBk30gubxNKLApNkyhOzyVmGpEMp/qYygdIKLmjei90FW/7vjeUGR02N/xAkvyGC14IoXpnJDo077houiHDBV0bllSSf4WYj4Pth1i1+nmuuOJyKisrT7usZDLBpEmTqKqqYki7RUL4g8DHNC3i8TiDgwM4jkNRUTGf/exn2b69laeeeppx48Zz/fXXR7vt4489xtatW7n88it4//vfH0G3Q4PYtmcPfX19nHfeeZSVlbFz507y+TwlFRV4nsfGTZvo6emh4gzn+tyqVRw6dIhJM2bQ0tJC4PtkMlkKVJu550kJ0WnTp1M3ZkyUh/EVHiFae4FEowYCXMfFtm2SI0aiaYJNmzbR09NNUXHx0IHV51paWujq7qJu4gQOHTiIbigU6xmmSwBRXsG2bTzPp6mpKaJQMBXTnO/7LFy4kKqqKn76s5+xZcsWTvT2UlpaeuZ5eBYhT2jERIRKlUPXtch7LC4uYeLEiWzcuJHDRw5TV1cny/sqUfn8qudJlVdw1ZVX8pMf/YgVK1fy4Q9/KDq8nc+zd99ePM9johLLMgxDbbgeAolU1YRGf38/M6bPYMG8eQjXI9fXR3dnJ57rosVjBKWFdNtZtJhFzs5iGIJcNkOB4qHJeQ4GGq7nEALYQm9f1zUsIbj2Pe/ht3feyYsvvchFl12OUEm2s3RGgLfRkEQuoVAds5rG/gP72b27jTXrXpdYC8OgrKyM8vIKJk2aRHVNNbF4nLxts//gATo6OkFAdU0N7e3ttLW1MdA/gBWLUTdmDOMbGhg5ciS6kItf0zS6urpZufIpunu6yefyjKqtpaGhgc7ubtxAsmh5vicnSSDjQR9F1aoetKZr5PJ5nn3uORCCpUuXYlrWMEsdcjtoWFYcwzDJ5fIIvAiPIo2AfBKe4i3t7x+gqqqGf/7nL/KNb3ydO++8k9mzZ7Fg/gLuu/8+7n/gfhYsWMAHP/gh8vk8ViwmWb+CgHwux7p167Ask7nNzWSzWWKWRRAEFBYWMmrUKA4cOMCevXupHDFChkvK6BIEPP3001iWxayZM2ltbY1ErXRdNbCpPE88FpOeiBK2ChGnIfxbV+dju46iWAyoqhlJZWUlmzdvpq2tjVmzZoezAEM3sB2b119fRyqRZM7sORxpP4ym6W8oBk4IphLDiL09L8oT5bJZyYkiBCUlJSxcuJA/3fcn9u7bx/79+yktKZHPUdPo7e2lo6ODjs5OslmZtKysHMHIkSNJJhOozLrUQnIdOjo62bljB5lsFtM0JZN+RTkb1q+nsKiI2bNnk0wkGD1qNBvWb+Bw+xElsuViWTF6+06wb98+lixezLnLlnHrrbeyccMG7Pe+F9M05b2zbdoPHqKosJAJEyZAEPDcs8/iOA6NjY3s2rWDbCZLYVEhzc1z2bljK9u2bGFaUyMT6uvZtmET+/btYyAzyJNPr+RI53EuuOACSgqL6O3uxiooYPeOFjo7O+ns6SIzOEj92Hqqa2spKi1BCwRBhHoVNM+bx2/vvpvnV69mweIlpAoK/+L1/rYYkiE6PVlOsv2AvXv38NqaNezes2doEQDdJ06w98ABjnd2cN755zNqzBgcz+XFl19mw8aNFBQUMGPmTFp37KC/vx/LiuO6Ljva2th38BAXX3IJpaUleAKOdXTw5JNPsn37DjzPI5VM0d+6gz379mEYOp7vRzuL53sKQh1aaSK4tqmb7N27j8cef4yZM2fS0DAxapMHycXmBQF+ALFYnHg8iW27KpwSSntFww/AdeRO73m+1LXVdBYtOoerrrqGW265mf/4j18wOJjh9tvvwHU9Lr74YmpqqhEM9YuEejGvvvIK1dU1VNfU4Ng2qXSKWCxGMplkyeLF/P7OO3nt1VeZP28evi8b03Rdp39ggNbW7UyZMoXRo0cTEi2lkklcN+RZ8TEME9txcB0nIi8aPsKqF+peGLqOqeskEwmWLV3Kq6++yvPPPx8ZEk01VR4+eIgXnl/NpMZGRtXWYts2GZUQfstSvUpax2OxSKMGXZfdxyrs6O3ro7e3D8MwSCTikbdy5OhRbvvNb3hu1SqOHj0aIYuLCotYuGABH/v4x6mvr5cdzb7PK6+8yi9+8QsOHDggvY/AJ5lI8o4LLuDPjz7K9OnTueXmm4lbCaZMmsIjDz3C2jVreec/XIhhmBiazlMrn6K/t4+5c5oZM3o0VSNHsmd3G92dXZSXl2FZMY4ePszOnTtpGDee0bW15LM5fnv7HRw4eIB58+bx0osvAlBdXcPPfz6R19e+zve++22++sUvUl1axt13383aNWuws1leefoZWtdvoKl6FDUzZ2Dn8/zpkYd48IH76Dh+DN+WGkZCN5jZ3MynP/dZ6homYKWSZDIZTCvBiOpqZs6ewyuvvMquXbuYEW4Ef0GJ+m0xJEPeCJI4N59n85Yt7N6zB8fzmDipibKycgYHB9i1ezcDAwPsPXSQA4fbKSwrlQtdgJmII0yDjVs2M2rUKBomTqT3RJ8Ufhq0aT96hMNHj1BWUU4+m+PVNa9xvLODZFqyZY2rH0tBOs2RI0c4fKQdD9l8FwjZLUmkwhbCjuVwPY/VL73IkWPHefdVV5EuLITAixZWaCiz2Sx79uwhn8/T398vPQBVWhZCkj0XFxdHSUtfLex0Os0nPv5xdu7cwTPPPEVfXx95O8/73vc+lqnEWxAopTrVM3L02DHWb9jApz71KaUeF5DP22iqsjSxsZHy8nI2bNxAb18fhQUFJOJxEIJ1a9dy8OAh3nvde2VYks/LUMayImMTUgscP3ZMliKHXSvq3sTjcWKxGAUFBYStBX4QkMlkmTt3HvX19Ty5YgU33PDPKt8riFkWu9UzXnbuufR0d8uS9bBw97T5M+zn0JA4rksmk1EtDAKhunZ37drF4489xokTJ5g/bx4lxSV4vsf+/fu57777eejhh5k/fx4f+tCHqBszhrxtc9999/Ho8uXEEwm+/OUvoWk6W7du4ZZbbuHw4Xauu+46mpubyeWyvLD6BR586CEG+/txHUc1RUJd3Riqa6pp291GZ2cX1dVV9PcPsHnzZvzAZ8rUKSQSCaZPm85TT62ks7OD2tpaLMtk3779uK7L1KlTpIi4JzeKI4ePsOa117jxxq+TSiXp6OgkmUwqBv4ATdeIJxPc8KUvcfPNN3PfQw/ynn98H7Ob5zJ2/Hhyrsczq57j3276IQ0N4/n89f/EuLHjGBgYYOVTT/Hwn/9M54kefvqfv6QkLg2uqwn0RIIJk5p49oXnefHFF5kxa/ZJGKCzgcy/bYYEQh4LuTNWVo6g0fMYyGW55LLLZe06k8EJnmTbtm3kHJec42IlEjIu9iFAw3Z8mpoaWbpkKeXl5QwMDPLQQw9x+PBhbMclk8kRBIKOzi727t1Pf38G07RYtuxcZs6YQcy0OHr0KI899iiHjxzGcTwZboUaNQodFWJJAiCXz7Np4yaCwGdsfb10wQNJVTh0jXDgwAE+/vGPE4vFcFwHgTjJkFRWVPClL39ZlXClF+AqLERxSQnXX389GzduYPeOHSxcvJhLLrmYdDpFPu+gKdyLAKxYjHXr1iGEoKGhAZBhhmXJpKOu69TV1TFlymQefvgRtm3bxty5cyMawxdeeIHCwkIWnXMOq1atAhSBshCSGMeVuY7dGzfyjX/5FzzPxbadKN8DUsZTCMEnP/EJrrzqyug+SJJnqBszmoXzF3DXXXeyeeNGmuc2k8vm6O7uZuPGjZSXlzFt2jTWrFkDQmIxJGvbm80jaXCOHTvG3XfdRSweV7kx+fvBgQFeW7OGAwcO0Ng4keuuu47SsjKCAFpbW3n88ceZNm0aX7/x64weMwZd08jmckyYMIEf/uAHrFy5kne/612MGz+eFStWsnXrVv75n2/gmmuupaiwEE3XWbhwEQUFBfzm1lsivIehaYwaNYqmxiZeeOEFurq7GD16FMc7OmjdsYMJEyYwcsQIEokkixYt5MEH7ufFF19k0aJzyGYz7Nq1k2QyyaxZs0gosu50QRrPc7nyyiu58MJ/iMK58vIKldiGvOdjJlOMnVhOZXUNsXQBYxomMKO5GQON/W1t/OH+R6gePY6vf+t7zJo1EysWw3NdFi07n7KqGm69/Tc8s/oFrrjySmwfND9A1w3GjWsgCATbt7eSz9nEVBL8bJ2Sty20kRNBxp6madLY1Mj4xgn4moZuWXSfOEFnVxeDuTzCNEHxV2qmhW87EnWq6ZhmjMrKKoqKS4jFE4Am26OHZcKCAPJ5WTUJCEin04wZPYZYLI4IAsrKyiguLuF4RweZwQxv3Jwoh+u6HD5ymHgiQVl5uQxVxPCqquwitiyLxokTSaVSSlVPhgMhvWJhQQHJZBLLsrDzUrVN13VyuRymaXL06FF6erpB1+jp6aavr0/mDoTUhgnzAIODg6xevZqqqpFMamqKzjMMX0DKJzQ3z+Whhx5mzZo1TJ06lUQiwYmeHtauW0dzc7NMCvs+mGZkND1fVs0cx0ErLGRsfX0E8vKDIMKUaJpGKpWicsSI6PghObeu6QwODLJg3jwef+wxHnzwQZqbm6UROH6c7a3baZzYSFVVlapCyRtpKLDfGz8HaXT7+np58KEHkUp5Dr09PeDYEItRV1fPBRdcwDsuuIAlS5diqLBn3779nOg9wejRo+ns6qK3r49sNqvKw4J0QQHd3d1s27aNUaNHs23bNmLxGOcsOoeioiKJCTIMCtJpZsyciWaG+j4C23YoKSmlqamJZ559hn179zF16lQO7D9AV1cX8+bOo7i4GNd1mD17DhUjRtDSInMWnufR0rKdivIKRo0aNVRaVmCwcePHKy9Mht1CSI5igoC85xHouiSs0jVcISQ7mmmhCZ1j3b1s37WXmbNmkvc1tu/eTy6bxTA0HNfG03Syjsea9Ru58NIriMUSUn4UQVFREZqm093Vw8CAzENG3cVnMd42Q+L7cufXNB0rFsPyXTqPHefgkcO07NpFz4kTDA4MSjdeQKA0ZIShSz5S9crZNvFEAtNSQCPFxeEpxu5wuK6D73sYukE6naa8vFwm6jwPy7Kikqiuh1wSb17g6uvrQwgRVTUCzz3tPZWVlXzta1+joryckBQ5Kj2r8Ccelzkdx3EwTJMg8Ekmk7S0tPCTn/wE3TBoqB/L7t1t3HP3PXz7OxORxMhCiWBr9J44wZ49e2hqaiSRTMqzD8uS/tB9mDljBrW1Naxdu5b3XHstxcVFrHv9ddoPH+bTn/60qszI+6DpUjEuZlmYhpTSbBg/ns989rOMHzdO3jtCUJQXiX+XlJREgLchdnjpHY1vaKCiooKdO3dy7Ngxqqqq2Lt3D7t3t3H+eecTj8WUvIRQz0LDd9/YkOjqHK1YjC/80xeiJHJraysrVqygdft2pk2bxvWf//xQ5UzTONHTw6GDB8kOZrj//vt55JFHSKdS2I5DPB7Hzufp7ZM5lQ5VARkYGKCwoJBkKhTHkh6PbuhMamoikUrJkwoCYvE4lmUxerTU7t23by8EsLttN9lslhkzppMuKMD3PGpra5g8aRJtbXs4dOgQQeBz4MB+xowZw8iRI4evGkzDoKa6BpBaRo7jS+F3xyPM5XlCkkV5QuAGgfRedQPfh+NdXZzoOcGq1S+xpWUHiUQc17XJ53PYdl6x3escPnyMEyd6GanIuAHSBQXoukFvXy+5fI4g8KX8xZuskeHjbQxtZFZYaBoD/X08/dyztO3fT0dPN04A5eUVjBpTRjaX43hnJ4EQ5F2PvOMhdIOQjyEWM0mmksNi9SAC7wwHM8mdUy6sfD5PJpOhsLAQoUtsihYaKKHKzroW0fydCl8KvYqw7i8QEXhNnoMcmq5TVFREYVHRyZ875ftC+LNt28Qsi2NHj/KjH/2I1s1buPq97+Xqa67hW9/6Fo/8+VEaJjRyzTXXEAQByaQgFrPYtHkzBw4c4D3veY+U0FQLJrz+AHBsm5EjRzJ37jyWL1/Ozl07KSkt5ZGHH6awoICJEyZgGAamNSQEpWI7KRKmaWi6LhGQhhHlT04dAwrNKy9YRDmMbDbL2Pp6GidO5LHHH2fbtm0UpNM89dTTFBUVsWjRIqxYDMM0pDi6rhOq0506hlfzNV2nvq6epcuWUVJSguu6LFuyhHe+4x/4/ve/x5/v+QMJy+KrX/2qaj1wsEwTO58nHouxZPESmuc2M6Ag664nsT5hN/a8BQvIZLPkcjm54SgJ1TD/I9Sc0kLgoJCuad5xGDd+HBUVFbS27qCrq5PNmzeTy+ZYuHAhvjLauVyeRYsWsWbtWrZu3UIsFqe7u4drr72WRCIZVfRkFdOU+syR6xuy98n1pOsGCB1PaJHedYjEzuXyUgLUNGieP5d3Xnghvb29pNIpQqyq5/vk7TxTp06lrKAYiyEqTsOwCOlENM3A0E2Znzv98URjeHn8bc2RyAWr0690VTu7u0ik01xx8SWUlZVhWRarV69mf3s7pmHiBQGD2azkFmWoyU3TtGhXDHw/wj0MNySWZRGLWXLChDueElEa6O9XIk5+NBnOztLKyeP5noprwnzKkCcQURCofMapMO7w/AsKC8lkMgQE3HnXXaxfv575S5Zwww03UFZezic/+Un+/d//nXvvvZfq6iouuuhicrkc/f0DbN2yhYKCApqbm3E9Fy3kbNWHsAueynXMmD6dhx9+mNfXvc6oUaPZvGULixYupKKyUk1SKdMRIkB9z5Vo6oi3VY/kNt9qRLoyapHphsHlV1zBo8uX89JLL1FVVcXatWuYOWMmlSMqFV5GgO9HvUFvdpSw3GzbdkS9aBoGruMwbtxYPvaxj7GtpYU/3n03M2fO4pJLLiGRiCOEoKysjGQyycKFC7nuvdeRy2YxTVnCD3E5ni8V+06cOIGmCfJ5B8d2hu6tJxd1d0/PkAiXqux5nktZWTkTJ0zg0KFDbN++nR2trcyfP4+amlo830fzPBzHZuzYsfi+z65du6MqW1NTE4lEXCXMdeXVmXieHz1TbZiHC0RKjEKTgldBEGDqOoEn5UZM0wTDYOzYei67/DJ0XSeRSBAukyAA27YlebquMTiYIZGQuRBd1/Fc6fmEsAHfts+Ikj7jXDird/2FI0QHBgR4rkdPT08Uo8Ysi1E1NaRTKfr6+ujq6iKXy8mkomlGxkEEynV2PVDegYYUbdbRlPKdTJoCpJIpCtOFaAgG+vrZv28fuUwG17bp6uxkoL8/0uG17TyubavWaiJhouilaQqSLntfYDhYM4hMcbgQJMbi5OsPJ6uujGBmcJCYZfH6669z1913Yds21157LemCNAJ4xzveweLFi9mzZw+PPrqc48ePS5b3fJ7dbW1MnDiR0pISTNVLIu/x0EFDAe/GpiamTJ7M5i1bWPPaa3R0dLBgwQIs05RNgKrRbLigVACR7gsnXdMbNLCp6wuh/agyby6XY8aMGYwcOZL169fT0tKCbTtMnzGDVCotzyE0wNqQARxqOGJYX5icQWHFKzRaumHgeT79/QPMmzefj3z4I+ixOL/69a9oadkGhDmMEux8ntbW7Ti2TSwWI5GIq8Y+hzVr1vDEE09w/PgxmfupHEEmk+Hw4cMKu0Kk8tfW1kY+m436hoQCTVoxi8bGRo53dLBmzRq6u3uYPXu2rKSp525ZFmPGjKG8vJz9+/exZesWyspKGTFihCq9q80IVF5EQggkhEdisEIUt1A5k2GpOgQCTcjyeGlpGYlkgpaWbRw8eIB0OolhaJHHuGnTRlaskMUNz/NIJpPRrHedIcT2EKvg2Y+3x5AwhE70PElAm0okKEylyfT388Ty5Ty1YgUrnniC7s4uErEYuhC4tk1MN9B8HwPJ5G0Kya5uINXl9EBEr5DQmABGVoygoX4clmaQGxxk1dPPsOrpZ3hi+WM8tnw5x44eUfS7Ab7n4HuulPM81YgAiXic2bNnY9s2O1pbkb03Qz0XQbQAJbgom8ngOjIP4jpOJJgdgo8cBQfftXs3//qv/4v+vn4+8z/+BxdeeKHUDEbucB/64AeZOnUKK1Y8yR133MFAfz/Hjh5ly5YtnHPOOSRTSQmJV+C74c1pvucRU0C9MXV17N27lz/cey/l5eXMmz/UkKUNa8oLOUUhVLPXpZufz0sksHqOQdi96ktJ0lBCIiRiBtkTEo/HKSgo4NJLLmHb1q088sjDlJQUM3/+/DOiSsOdNp/PMzA4iG07ssdHaEp4/PTQKjyWZZnousZll13K0mVL2dO2h9/+9nd0dnZgWRaLFi6ksbGJR/78Z+6++26EMnRCaKxZs5Ybv/51fvDDH3L48BGSiQTvete78H2fm2+5md1tbZHB3bRpMzfffDPk8wpbIuHrArmLSxyKz1NPPcXg4CCzZs3G92UXdhAEWFaMiopKJk6YyPoNG9i4YSNTpkyhsrJyqPcGGf4GBBiGqeaZUkT0FarY86TOtVphqXQKw9BlAlnTyGQyTJjQwLKlS2nZ3sLvf/87unt6IgPc3t7Oz372M7717W/T1tYG6vzDsXfvPnzPo76+ntLS0mFe+NmNtw9HAiAEpmlSNbKKyvIKek70YgiTnTtasV2XRDLJqFGjsN08ucEsvT3d5HMZTE1HE1K7N+QxlrmMIWnOSKrTdzEI0GMWs2bPpL39IG179tDV3cn6Da9H5xOPW1GiT9d16bpqmspan3L+BDSMH49QD+BM5jkIAtrb2/mSwiEkEokIQj1cX7i2tpaLL76I+rp6fvrTn7Jr1y4uuOACrrr6auURKPZ63WB8w3g+9tGP8Z3vfpdf//rX1NXVRXmaxsaJxGLxyNU3jCGjBpLUxnEcbMemubmZ5cuXc+zIET7+yU+eNGl1TRvyRIYlrC3LorV1BzfddFME6BJCSK/wFCPw6U9/mtmzZp1yP+TfmqZx7rnn8qf77+OlF17k6muvldWaSPZi6GaG9ABdhw/zhS98gba23dx007+xZPFiEJy00Ibfd02TmshBEFBTU8sNX7iBtt1trFq1iqlTp/LRj36EKVOmcNVVV9Ld3cW//ehHvPzyK1RVVTEw0M8LL7xIQUEBV1x+Oc3NzQS+z6JFC7n66qv54x//yKc+9SkmT56MEBL2H4vFICYNfng/Qo+ttraWkSNGsGndOsaMb6C4uAjTNHAcF13XsO08BQUFzJkzm2effZZkMsnkyVMoKiqSEqfqOnyF4NX1sFojonsaqhyEuUcIqK6qRtM0fvzjH/PMM8/w0Y9+jKVLlvHZz32O9oMHeOSRR2jbs4f6ujoANm/ezL6dO7nk3e/mggvOx1KA0HDs3LmTwcFBJk+eTFJVIf+S8fZA5EVoN0H4PsXpJP9w3rmUlZWweds2DMMgXVBAw8QJVFVXk8tkONh/iMHeXvq7uykrLsUSOjEhSBkm2Daa56EHAYGdJ6FoQt+zAAAKjUlEQVRJISkBJDSdmOq7KUmnueSid/LKK6/Q3t5Ob28vFRUVTJrUxIneXjZv2UIqlaK0pAQdcRIILTp1ZBy+aOEiaqruorW1lZ6uLgoL0uiaAULqrdSOquXQgYN0dXSetDgirVklZTF27FgmT57MunWv09LSwtj6ej79qU9RUVFBNpsldCINFaMuXbqUq6++mnvuuYc77riD0tJSJXBdS9iFG+4kmhBUVFTIHJIqP8diMSZPmsSCBQvYsWMHi885J+qPsSyTkVVVlFdUoOs6mcGM1Ab2PCorK9m3bx+vvfYqQaAW8TCPZfhYuHAhM6ZPB+D/tHc+v1UdVxz/ztx7373vp/lhorqhgEpMhFoMpMGUHZFVJYDjRkqiRsDKK5pFumkW/AHNIlW6SFdsWLEopFJDKkCNaJDsSKUBhIQUsyDhTzBOn+13f82dLM7M3PvMe/iZZwzF89nw5Pe4d+6POTNzzpnvGRwcVE7FEJnaG/OToSGMHhjF7du3ceDVV9Fo1LG42IKntFrcICDHIc3fSeNEyVGmSaKeA0O1WoVfKqFcLreP3oLC41BO0R07duDwa4fx5b++xOUrlzExMYHt27fh2LFjGBnZi/Pn/4bLV67gmxvfABI4cvQIjrzxBvbt30/3kXNs3LgJJ0+eRK1Ww8WLF3Hr1i1s3rwJ77z9NkZHR/HHDz+Eqd2j2u26LjZtHsQvfrkHs3M/4MDoqEoXyH1n5EyV2DMygp07f45KpYKDBw+qAUFdK2PY8sILePGnL2Ju7gF8vwQhHERRDM9zUalUMLRzJ4KgAtd14fsBDh36NY4fP44vvvgnZr79FmkSI8tS7Ni+DZ/+9VP8/bPPcP36fzE1NQ3OGXbv3o3fvfce3hwfx8CGDZShDLqGMAxx48YN+H6AX73ySlsksOcu3138uZjb1h8ZQIW8HY5YUFhYZBnckocwTsAcDmSASFI4nMFhHCXXhcsdMEl1XqMoRBCU4fslLDQpgSdJU4g0pfRzh5tq647rorW4CJFRrgfnDEG5ggxAIlKwTBW3khKQOjJjctPAQH6UTz75C/791Vf488cfY//+vWY2o8OyDFR/l5YK+TQ8y6QZMSUkuLreOKZQXLVSJecddBCgsMJUEZmS5ymnmjAp60uduEKk5DBVUQWmHJ8iyx2KnDESQAJ1mDiK1IiTIMskKpUyWostQIVwueogj9L0oA2RmWm3zqFxOIertsuXy2XMzc2BMaa22ZN0QCpSRFFsXuDA91HyfcRRhFQIcz+TNEUmBOUM6VkA8no2rq7xC5h/Kds4hFfy4Jd8la9DtWvIGR+Y4uapqoBIWyMY5ufnAdDMrF6vK+esh5Lv49q1a/jgDx9g78henDlzhqQz1eChS2jMN5uQoGWx3oNURKplbqNRx/+aTdSqVbPUYoxyZgYGGojjGHNzP2BgoEEDDeeo1WqkyZJlePBgDo1GHaWSr/pEgDhOkGYCji4uJqkAXJIkygiTr08PNFoY2nFcZJnAvXvf4f33f4/hXbvwp48+wsaNG3vSdHniUZtOUFiUwkkiTRDHERirwOMccZqiEpQB10UchnCYhAPAMZvfBDyHgyNDGkfwHI6o1UIrbMH3SuCAKf4EACwT8FwH9YCcSWmSIIkiLIYhgnKZRtqMboPeN2YqwSs8r4SJiQlMT09jamoK+/aNUFEiKRGGLTOipurBGMcj8umv/jsDUK5U1EtRN87ljktQtT5OtGKWHrXVUqOIo3JmwlYr7xhqeiyEQL1ep06k8jdarRZKvo80SVQ2Lu2q1p0hUVXsElUIvJNuh95PBFD4vFyp0LHi2PgPXNclkSTXRalUopeYMbN721MZvp7nkcFQSwWt2WH2Nam2aKOt/Ta6QBeg/bIk1COEUHttKN1/YMMAopCKtdOMJsz9WzIvhs45x7lz53B3Zga/festjI+PIyiXEUcRWouLmJmZweLCIoaGhlCv17GwsACAsoPTMDTRQf2cIKWJrKm7pvwlHmZnZ1Gv1801coeU+lzXNcelaE6EcrkCxyFHKbWZdpxnmcT8fFM52PP7kKYp9QFBPrBqtYYkSeCosH4cxyYwIERmfHnXr/8HUkqMj7+JRqPRuzBUgbUVNkpo27/LGGqejzRJkQoJz3UgoxgcQMAd8gCnKfRk1tExdB0xUccr+yp0tcTxiEzC5w5krPwCoK3TVT+gAlXQhylmLBSbShGMbdt+hkOHDuHq1at4/fXfUHq6Q+vUTGZwuaMyVrvfeL2WDsNQSexJGrEK3y+daZCTPnvoOJ3QIynjDFy2ZxQ3m838lgAmGQ2MCmwz9a+uttcLxbU748xEtXS4OBUCKByTHLMOZCZNHeQixRBn0RgDMEpzgFQzEVXlD1p5TRXqIJtDJUyFUNsGuNkYyLkqKqauvS0apSIi9VoNM3fvUoKaEBgcHETg+5j++mucPXsWw8PDOHXqlLlefVw/COhYajuCyb2QBekFlWAGANVqja5XCAr7Auq6c9EvzqmjG90d6HKqmQo8ZkpKwc3fEzXocMbAVVsStUykJSfdv+LvGYA4jnD+/HmMjY3h8GuHl03U7Maaij9zRlJwnNPFOgBYKlTugg7poi1JScrc2ceV5gP5COhBZUoSYDmYzKu857MBWVjOFH6r1t71egMnTpxQsni3MTw8bBxiUqW7s2IYtOvJ6WXPMhXK6xJW7YeeBpEVeOF7obgke5QxlWoNt+KRzrSXwq2ONjrma7ZkHMjD8LKHHiFVCF9IibGxMczOzuIfn3+O06dPo9FoIE1TzC8s4OVduzA5OYmtW7e2qZx1bHIPlyXl0s/tx6J3nLRtuOMCAmrmweC6jskBotKjlIgJHRZ+6J50hoGM7oULF+D7PiYnJ0kPWM1ml32nlx7v0T6STp9XDi0i9JSSUqO5Q7VpkzQXPwbaVd275TAAebSi9/MzIyHHC190OpeWtElTmn7fvHkT3393D0ePHUW1QpmCnOdJWytpS8f29fD/n3SltGedtudeMMa5Wz9/v2iGsryPTyufyYwKmzebTdy5cwf379/HfLMJr1TCli1bMLJnD3a+9BIVJAc6KtC1tbWDcVgpxRmaHthIAiPX+dUF37UVKdrO7leuv5FYWFjApUuXwLmDd999x+w0L27WXLad+qhrWWlPgjQ8aCs4TDAXUnf19huxWl2n4E4lyb0ON4m3/b5DgWpAyd/pJ7a+O/bzRa8TemkS1bo+/y6RrsdrVj5dljoRrvg9K2RVP+X3cY3r2jC95M33Uqi/E6v2CLq3oHCKlRor40uwNuQ5o9cH2p7B3O9MdPnTsYc+tp1RO5yfgUFtTQ1JhxhAl8+r21c75Yus9jks6wcJtGnTWJ5Cpb1HG5O1PO/KfmuNjqWINSPtPLMlO58ey8keWSyWpawjQ1LMw7NYLKvJE9n9a7FY1hfWkFgslr6xhsRisfSNNSQWi6VvrCGxWCx9Yw2JxWLpG2tILBZL31hDYrFY+mYdJaQ9f6zmDmmNTduzPA7WkPy/s8q9ngFGAMpi6RVuNzFaLJZ+4VoPzGKxWB4XOyOxWCx9w4vzEYYn48CzWCzPN8bZSoWMC9JuD/30WTQvsmeRWotlPfA44uirwY85nFS0OQn8BQAAAABJRU5ErkJggg==;" parent="1" vertex="1">
          <mxGeometry x="926.97" y="730" width="23.03" height="10" as="geometry" />
        </mxCell>
        <mxCell id="iTeA3gTID6XC6-GJMK1q-28" style="edgeStyle=none;curved=1;rounded=0;orthogonalLoop=1;jettySize=auto;html=1;entryX=0.5;entryY=0;entryDx=0;entryDy=0;fontSize=12;startSize=8;endSize=8;strokeColor=#666600;" parent="1" source="iTeA3gTID6XC6-GJMK1q-11" target="iTeA3gTID6XC6-GJMK1q-25" edge="1">
          <mxGeometry relative="1" as="geometry">
            <Array as="points">
              <mxPoint x="800" y="570" />
            </Array>
          </mxGeometry>
        </mxCell>
        <mxCell id="iTeA3gTID6XC6-GJMK1q-11" value="" style="shape=image;verticalLabelPosition=bottom;labelBackgroundColor=default;verticalAlign=top;aspect=fixed;imageAspect=0;image=data:image/png,iVBORw0KGgoAAAANSUhEUgAAARIAAAB3CAYAAADPec9+AAAABHNCSVQICAgIfAhkiAAAABl0RVh0U29mdHdhcmUAZ25vbWUtc2NyZWVuc2hvdO8Dvz4AAAAmdEVYdENyZWF0aW9uIFRpbWUAZG9tIDMxIG1hciAyMDI0IDE5OjE0OjUzvlLfowAAIABJREFUeJzsnXd4HsW1/z+zu+++Rd2qttxlW5YlF1wDNjbF2ARMMSUxhBsgEGp6vSmQ/O4lN+QhN43chCRgDBiSSxI6xMY0GwLuuDdssCx32ep625b5/TG7q1fFhRpyo/M8ry292p2dnTlz5pzvKSO+d8ed8qZbbyGRTCKEAAQSAYALgPA+/4rkvu8WZNffjzGUXa87GdJO4qb3PnsS+Z561UvHp/+b68nQhPAESC99GNRtZGXPwuS9zMDJ3PPe2Vb0CpL3Tdo/ugMfGRlIiXAlGu9tV/y/TR8GI7x/Leejo16ueO90suL746qhSN7N3BtS9qqwHy0JPqjFKTk5FjzZ63qmjyOT/zNT1/F8/+N7MqLo3YkFv9UTtdhBBlKClMGtEjp+90yezoKml7HeP73PMZQn34IvRN696OrdXD48+hDW0AmmS3BsfO74dx3rYZ3/ZuhCQ3hfCkBK1xMmGkJ0FSInekAvnZjE+16j71YZfm+PE/xzmWG99NFRd+7TNE1DE6JHNODdq0O99GHTx9Wi7qV/bTI0IdCE6NGQ7hUivdRL/xz07s2WD5aU+7d3j+ulHqmXLz54+uB1yvey4Xe/59itnExvjV5m6aVjUy9vfPD0jzdOe4Ysjo+JnajH/zoRM73US730nnDPk7nHkEik7EVDeqmX/llJACJjCUt6xkzej/PEv+9YmkmvRtJLvfTPTl2kQ0+L/YPwwB6vDY3eyNZe6qX/U9QtUbSH795P2z21ZfSKkF7qpX9u6mrGnMyadk8S79V6aLCrMBGAcXLN9dLHif5VhH+vz+jkKBMjOZnMcklnTOWYF/oXd/2iq+CSvYLkn47+VYQI9AqSkybZ5efjCJPjgqYnw1yihwuPERnfS73US730rugYgqS32FEv9VIvnTx1N21Eb8B8L/XS/0XyQdJMHCUTKzmpdX8M86eLIBFe7Yp/JUu8l3rpn5wyC86I7l/5JJG4ovOlXT+dr+/+U08OYEkv2NpLvfRPT2ppS88bIzKESde6uzL41xcaAtDp7sVRbbrHECbdqZMg+eCKAP7j6KTfQfpurH9SQ64rDH+s7/6VSEpUNS7v/48Bva819S5qaUpAup44Eaq6oRA9P1+dEyHRpRIiuuyesqeKnMkTPl56Gk5nsPUjGPtkMkkkEsY0QxiGgaZpaJpGyDAIhUK4rouu6+qjad0+hmFg6DrJREK9qADDyJCHXlX8zI8mBKZpBs9DShzXxXFcNCEImyau64KUCCEIhUJEwqqP/vVCqsHK/OiahqEbCAiudR0H6boYhoGe8W66pgUT2/WjCTA0DU0A0gXpEtJ1DEP3XqqnXE31blK6mKZJLBZT351gEoXnvguZIUCq90ZVxnNdN/j93ZIQqHkNmwhNePlbx19CPY1FMCYn8UzHcXBsm7BpEjIMHMcJ3iEUCqHravwy59avv+Pfq4bc7Z5v5l1vhtS8mmYI0zQJh8NBGz4fCKna6DR+UmLoOrph4Ni24gvpYlt2D2Mnguf7vArHhhhCHh9L11XPlR39FwK1poQWHC/j2g7CEwqaEAjXJazruKk0IQDXQboO0rHBdUA6uK6NwKXjcJrj00du2uTl5hKPJ0gmk8TjcfLz8zFNk5aWFtrb27FsG00TGLrR466STqcxQyH69OkDUtLQ0EQ8HicnJ5uc7BykEGrxZ5AQgiP19cTjcWJZWcRiMUBNiK7rxBMJmhobyc3LAyk5cOAAjuMQjUTUc8CrY9vRHykVc8ZTcdra2nBcFyEEBQUFaEA8HqepqUkxpCeMvM50eydN08jLyyMcNnEdl6NHj4KUSE1QWFTUIRwythcpXaRUgvno0aNYloUZDlNUWHTCOaivr0fTdNJWGikluqbhumrha7pOLBojHA4TjUZxXOfEW6oAx3XZt28/miYoLS3D1XteNF1ue+8kJSHDIJlKsbu2lkg4TJ43f7quc/TIEeKJBKDG13+WpmnohkE4HCYcDuM4Dqb3v3TdjvkRglg0SkNDA83NzRQVF2NZaRobmwKBhCeAXIlazOo2BALLthk0cCCulByuryeRSBCLRunbt7w7duG66JpGMpWi/vBhNF2npKQkEIQdF6p/0mmLvfv2BhtlJmlCQ9fVppWVlY1pqk3RcWxvzAUhI4QuBDmxGK5tIQSkbYv6I/UYhkFxcTHScZRmo/ki4tiz9ZFHtkrXxfak84IFCziwfz9f+cpXiGVl8bdFi1i4cCENDQ1qUo+RkSyl5MwzzuDr3/gGkXCYhx9+mGeeeYapU6dy0403UlpW1u3exqYm/vOOO9i1ayc333wLp0+bhhkOo+k6be3tvPjiizz77DN84xvfoLGhkZ///OfU19fTr18/vv3v32bi+AnE2+O4roPwJb1X6/apJ5/kwYULaWtrY+7FF3PDDTdgmiZ79+7lhhtuACmxbRuhad0m3afy8nLu/PGP6T9gAKtXr+bXv76b/fsPMGDgQL77ve8xZMhgpPQWhK+yev14+eWX+Z/f/AbpSq659houu/QydF3jGMPHkiUvMH/+fJqaGkkkkjiugyY0XOmCVNpdQUEBRUWFfPnLX6a6uuakwPc9tbV869vfZtrUadx6661EIpHjXv++lV8h0A2Dta+/zq/u/hWnnDKer371qxi6jislixcv5u5f/xrTNANN13EcdF0nKyuLwj59mHb66Zwzcyb9+vVTQVWapkwEb/DSlsWDDz7IuvXr+cHtt9PW1sbtt9/Ovv370XVdHdbhujiuxPE2FsMwlGCybRYuXEhJSQkrV6zggQceoKioiP/8zx9RVlYGdGghuqdR/+EPf+ClF19kxowZ3HrrrT0OmqGHOHToEHf853+ya9fbgAeiZmhVmhAITTJm9BjOPOsMPjl7NpFIBMd10HUD13U5XH+EkITSokIcKXGly58e/wtHDh3m1ptuprSwCCNk4HoA7bFKsAmp/vQRCRLpma2C7JwclrywhIcffpj758+ntLSUtvZ22tvb2LplC0WFhYwZMyZgNNtTV30Kh8MMHjiQrEgU3dA5dfIU1r+5jkcffZSBAwdy9Wc/6y1acF1JPB7npZde4umnn2b69OlMnDiRvPx8HMehqakJKV2effZZbNuhpLiEVCLJ3j11HDp0iNrdu9m8cRMjR1Sia/7ilGiaMiEaGxt55ZVXeGvTZnBdmhsbMXQdTQik7dDU0IBt20wYP4FoLEratgNGzxR2xUVFhMNhpJREIxE2bNhIsq2N+iP1rFqxgkEDBqjdyXURntqKlCQTSRb/bRHv7NgBoRD1h+u9DTVDdRG+qaBGVAM2rl9Pbl4eE8aPV7MjpaeWO4Bgy5Yt7Nyxg7d27uRHd9zB9OkzsCzreNNLPJGgrm4v+/btI51OZZhlH14pH9dxSKfT7NjxFnm5eTi2HZg4W7du5XBtLf0qKhgyZLDHQwLLsmhubqZu715+/KMfsWLFCm699VZG19RghELYth1oJnvr6njttdcoLy+npKiIeHs7dXv20NjYyKxZs7AsC9uyMQy9wxMihBIyQlCQl4cuNCZPnMRTTzzJa6++yoL75/PFL3yRvDzFg5qm4doOjz76KPf+7vdMnTqVSy6eS8gweiwz5AuMrdu2cfjAAU6bNo2s7GzSaaVdGpqOlU4RT7Tz0osvsGH9Wtpbm/nUpz6F1DVcx2LJkhf4n1/8iquvuIKrr/gMKdsmpWucdubZfOMrX2HI4KFcfeUVJxx/Hx+Bj0yQCIRQpsGePbU89OBDVFdXUzN6NG2trZ6tJ5GOw/nnn89NN96IYSgb1zB0b/dVDO/vKmp31hg7dgxXXfUZduzcwb333svYsWOpqa4mHIlgmjrPP/88t912G1VVVXz1q1+lpLgYTROkUjbRaJR1696ktraW8847j+zsbHTdIJVKYYZNHNvm1WXLmHvxxeiajpRKiDiOmuLdu2t5a8db5BUV0nzkCI7jYui6WriawHVdqkeN4nvf+x4VFUOJJxJomg5dasBIKcnNzcVxHIW5SAjHYqSSKVatXMmFF15INBpVIykIGHDfvr1s376dkrK+HD50EMtKd9N6MlETzdt1nXSagvx87rzzTu8aMEIhdE3Dsm127drJ/fcv4LlFf2PBggWMHz+ecPh4GobEdRxcxyGVSiG8nf3DJlcqU8x2bCQQCoVwPK1XXeAya9Y5fOHWLyABXdeJhMM0Nzdz8OBB/uvHP+all15E13V+8IMfUFxcHLSraxoHDh6kds8eLpgzh2g0hgDaWtsYVVXFt7/1LfLy8jye0NA0HU1TIy29jcI01eYwYEB/rrnmanbs2M5f//JXpkyewtlnnY0AQiGD1atXc++995KXl8fNN99M5YgRpC1L4RY9vLdh6LiuS1ZuLjfddBPjxo0LeMLQdax0mkSinfn338e9f/g9jzzyMNOnn07/QYPQQyY7t29n57ZtCMcByyIaidBqpxgwaAhnnnkWf370UcaOHMmUKad22gGOlxyoZf7twzwsSwgFlj77zLO8tXMnV111FSHDICs7O7BRtVCIdDqNrhuEwwoc1XUDwwNiQyGTSCRCOBxW1xk64XCEKVOmcP75c6jfu5eHFy7k8OHDSCnZvGkT9/z2t+Tm5vK5a6+lproax3FIpdKkkkl0XWf3O7vRNI2RlZWeVuBiWRaxWIwpUz7BmrVr2b17N/75P67jeJiCy6ZNm7Bsi1FVVaDrGfCH2oNt21bCxVDqpBkyiUUjhIyQApeNEGZIfTShKWHlOkQjYQoL+jBi+HB27drFrp07lZtOKOzIB6LXrllLS0sLEyZMUMi9e4y5E566KwS6rkEyiWVZHaC2DwzrOgUFBYwfP4FLLrmErKwsXn3xJZLJZHA0ieM4JJNJGhoaOHz4EIcPHyKeSCjw0nWRSHRNR9f0HruiNDtJKpVS42PbWJbl7e6dP5a3y2rHMAl1T2hLVwGjEoV7ua6LpmsgBOFwhNzcXLKzsz0eClFWVsYpp5zC1772NUZVjWLjxo2sWbNGaYuOE2xa27ZtIy8vj5rRoxFC0N7ejq7rpFIp0pbVwY9mmHDYJByOYJpmwLMKBHVxXcmUKVOYN28erusyf/79bNu+Hcd12blzJ//7v4/S1NTElVdeybBhw0il00rrFd0hZ13XEJpGJBwhJyeHWFaW4rGQcl4IIYhGo5SUlDDv0/M47bTTOHrkCBs3rCfR1s7h/fs5cuAgpJNY7c201h8k3daCBkTCUWbPnEUkFGL531/HtW00cWwzOZMMn/ul72v6EFxn/u7b2t7O0888w5DBg6mpqSGVSgVIu6bruLaNEIJIJEIsFvUAQNUdXdcRHtpu2w5ZWdmBpy8SiXLppZewdu1ann7qKfoPGMCnLr+c3//h92xZu5bP3ngj551/PrquYzsOANFYDCklmzZvJicnh7Hjxnm7i1oAuqZz0UUX8a1vfZMlzy9hyKDBaEAqmYIwtLS2sGzZMqpGVjF6dA1vvLEc0zTRPM3Fb8OvQCfB27EE4bBC5X27HaG0l1RKHeQuNI3S0hLGjx/Pk08+ycb166kZVY0RNnEdh2QqRWFhIUuWLKG4uJiJEybwt+eeUx6EE3ptNPCwlkDLAWUOAm2trZimSUVFBYamQzIJHj6D69LQ1MjLL7/CkheWcPDAQRzXYeKEiVRVjcQ0TcyQ6e3IPXt/NE1j+WuvsfbNN9VzPQHQEw0ZPJjz58zhWJzsOA6ulKSSycwX7PhZdow9UhIOh0Eo80ZKSU11NXMuuICf/exnPPPM08yYPp1oNIoRChFvb2fN6tUMGzaMvn37kk6n0HWdUEgJCTNkBjgJgk4eG9+8VN1WPJufX8DVV1/DW2/tYtGzz7Fw4UJuuflmHnzwIZ599lkuu/RSPvWpy4nFYui6Hrhxuw6OZduk02lS6VSAN+bk5qiNxMO5BBLXdcjPz1M8b9ukk0lMXec/7vwJf1+2DFIJFtzzP7z8+F/42vd/wLBpZyCQTBwzljGjqnlpyQtcfOHFDB89GjedxnVl91iTjKHu0bT5oGWJ73Z6c+1atm3bxqWXXkLYNINF4wsJArVUem5c33ZXgKWUSq0zTTOw6/3QmYqKYdx80018/7bb+Mtf/kJdXR3PPfccp511Fjd8/vPEotHAs+Iv9ObmZjZv3sTQoUPJz8sjmUrhecwQQjBhwgRy8/JYtWoVV8ybR1FRkXIh6zq1m2rZuGkjN3z+8+TnF3imTObkq11SuYaV29CxHQ/UVDuN60rPVy8CDcGybGxLqeqTJk3imWeeZfmKFcydO5dYLAoejnLgwAFefe01br75ZvILCryBFvgni7xXMgwD3TBYvnw5TU1N5PTtq4A6xyGZTPHXvz7GI3/8I5qmUTliOFJK1q1bx+o1q2lpblamk3tssBxg1epVPP74EySTSaXJeMK9K336U59i5syZSgD0QL6rnmO5rCMRQqEQuTk5xOPxwA3s9ywUCjFlyhQc26a2tpYDBw9SUVGBGQqxt7GRbdu3c+mllxKNRj2QW/MwO0k4rASJa9vBRui7W8HbmD1cRtMEyWSSgoJ8rr32Wt56aydPPvkkDQ1HWbVqNRUVQ5l7ySX07z8Ay7IUDoI8pobpL01/Y/U1ZCEUfiZdtTnv3l1LXV0dZsikvLwc13Wpqqxk87p1NIRCVI4YTs3wgRQX52BGwmjpNAW52Xxi0mReePoZ3nh1Gf0GD0aPRpVb+Dj00WAkQuC4Lq+/8Qau6zJqVDXZOTkdgTMQxGts2LCRu+++O7DJXY8pfY9FJBJh3rx5FBT0CQbctm2iWVmcdtppXDJ3LvfNn88zjz/G0MqRfOnLX6a0rMwTIt7m5jF57e7d7N23j/PPOx9N1wPb1ge0Bg0ayKiqKt555x3q6+spKMgHBKl0irVr1+I6LtXV1ezZU9cRy+LFtriuSzzeTn19PQ899BA5Odm+fAlI05TnYdLEiUycOBHLstA0DduxQcLAgQOZNGkSmzdv4tChQxQVF+NYFoZusPDBBwnpBp+YMoVDhw4Fzz4RaUJAKkU6lWLfnj0AOI5LezJBOBwmHo+zYcMGHnvsMUzT5JprrgGUC3vjxo088OAD9O3bl29985tUVo4EJLW1e/jpT3/K2+s3BHMqu7jLfbJsm/POO5+a6hoi0WgAjvZEeXl5PQRkZ7KVEpxox446sW0bV0oFcHfpkeO6lJaWYIQMmpqaaW1tDXCeFStW0NLSwrBhw8iKZQXajQDqj9Tz4IMPeQImU/P0tUyb2bPPZciQIWrMvYXuuoIRI0Zw/fXXc8eP7mDJ80voV17OlVd+hqqRI1VfPWGn3o8ex9CPlQrpBnV79tCvb1+lnTkuqWSSRLyduro9LFr8HAf27+fMM2cwfvx4DCPEvCvnUX+knrp9e5h+zizmzbkQs6CQZssmbBi0t7QysP8AorEYK9es4ZyL51JwHA+cv29+ZO5fK51m7969pJJJBg0ahBBqB5eeMFBqv2T7ju0cOLAfMxSirb0d27LRDWW7ulIydOhQZs8+l2g0Frg5U6kUjpREwmEmT5nCo3/+M42JBGWlpQwZMgRNiMAFC0qNdx2H5StWkJuTy9hx47Ati0gkguvKQE2NxbI45ZTxbNq0Sam5FRVIKWltbeX1199gaMVQhg6toK5ur6dZaR5Qp3tCQefw4Xoe/fOjXgBR5yXh2+xhM8wpp5yiVFqpdiIpXfLy8qmqqmL58uVs3rKFSg/HaTh6lKWvvMLIyhGMHTuWV155BVzX8wZxXBeJEALy8jh06BA3XP95QEU0Wq7jud1dWlpbyc7K5uqrP8unP/1p8vPySabTrFm7hubmZq6++mqqq2uIxWJI6TJ8+HDOOeccVv/976TT6cCu7kmr1XWdmpoaqqurFeZ0rCA4Txg5th243buS65m5al5lx1nVnhaLBz5KD9uS/vt75DgO4XAE6c257ZnWLa2tbN++nbKyMsrLy7FsC0PTlOkgBEePHmXhwoWeaeWq980I9cnOzqGsb1+GDFWCxPUGQ2ga+QUFTJ4ymbKyMnbVb6S4pIQRlSMwTOUx0jSBnzgbBF9nkOOB2q7jcOTAQe79wx9Y+NBC6o/UEzZVsJwuoLWtBek6zJ41i+uu+1zgAg/HomAaOEYILZJFUdkgWiwbqYFjp3HTaYr79CErK8bevXWkUylsxzmuydwtjkTKDwdqFUKQSKggNE3TKCoqwrFtDMPwtADPdpcw65xzuOjCi4I4BN9D4zNcKpWif/9ypUG4avf3Qa+GxkaWPP88jQ0NIAQbNm5kyZIlXHnFFWoybRvNAxhdx+GtHTsYNGgQAwcMCFTTzAjPcFhn+vTTmX/fvbz297/zyfPOIxwOc7ThKIcOHWLGjOnk5uYof7unokvXRei6CmiLRRk8aDBXXfUZSsvKSKdSnYLlXCnJisUoKSnBdaXnMpWBZhSJhBk6dCjhcJhNGzdyzsxzyEGw/8ABmpqamDRpMtnZ2SrAzgODT0SulNDeTtGQIVRVVQFgOTZ79u2jtraW7OwsLr7oYubMmUNNTQ1ZsRjt7e3YjsPWLVvIyc6hamQVoZARaHixrBiTp0ymdNDAQHOUyB6Zz7Ys0qkUrpRYlhV4G3rimUg47IGWPb+X6wki4dlzvpDIdK8LD9yVPUi2sGmSTCQCQaZ5gLOVTrN+3TqGDxtGYWEhruOA146hGwwZMoTrr7uO4uIStSFKN3DVplMpcvPyqKioQHrCUHptI1Tg2pIXXuTAocMgNN7atZM3VqygYtgwopEIQnaMRU/4kSs7zP1wLEZZWV/y8vIYNGgQhw8fZv2bb2JbFjNnnsWn532K0aOrKSjIx3VtQOACRjiMLSThrBwcCcJ3uTgOupTkRKOUFRWyu24PlpUiFAqdMLjQ+DD8+z1RMpXk8KFDIAR5ubndXIRSStB18vMLmDZtKrpudArA8iMvXdf3gnTcHcuKoRsGTz/9NE8+9RTjTjmFESNG8Oif/sTvfvc7RlZWMn7CBNrb2zE1jbQXDbnzrbc4Z+ZMCvLy1HO6zJptw/DhI5hzwQVsXL+B/fv3M2bMGBYvXozrOpx55plEo1HSqXSwjjObSCVVPMX06dPp378/lmVnhO53YCTqWVYgVP1WhBDU1FRzyimn8MorrzBz5kzOOPNMXnrxRXa/8w4PPbTQ0+zcQN09uYANSSQS4c6f3gUodTxtWTz33HPcfffdLF68mAkTJjB58iSisRhmOIxlWezZXUtBXh5FffqQk5Wt8CzPlIlGowqvkAof0HrQIADCkTA//vGdLF68mFQqhWVbgdfFV+X9Mbrs0kv5whe/GGw4Pb+KxB8x4f0eCI4g/F/2kA8Cmq5ztKEB3dApLi6msLAQwzDYXVtL7Z49XDx3rvL2GIYnFAXpdJqQEeLMM8+ib9++gMRxZWfXqGdK+Sab5mE5qWSSvy1azK/u/hVFRUWccemlPP300yxYsIBhFRWcfeZZCtTs5ADxSPg9IPi3T58+3HTTTYwZM8bzcOqsWrGCH/zgdrZs2cL27dupqRkVQAO2bRMORUglEkjbUV4xJDoC3ZFojkteNIY0WtFcB1yVRqBrOjYnECTH/esHSL43RNM0zHDY84V3LBikROg6Urpomt5pwXUwmYoCzPTmADi2wwsvvsiDDz5ITk4OV111FTOmTyeRSPD0//4vP/x/P+Q3//MbioqLMUIG8XiC7du2kUwkGT16DCHTxPaQ/MxdVJkXuYwaVc0Tjz/B2jffpF95ORs3baJPnz5UVVUhhOaBgd0ZPWSGAqbw1WAhQdcNBYxpLjLgQN/a7Ginra2dfv36UVNTzRvL32Djpk2MGjWK5ctXMKq6mvLy8iAKOBivHntCoCFIKUHztS+1SxuhELFYjNmzZnH06FF++fOfc9dddzFgwACqR41C93I7YrFYAFr6+SlCU8/03b1BdKWnRXbrh4SKoUOpqqoKgEX/I6VE1zVMM4yu6/Tt1y8I8ApiQ45HPkP0IEh8z1SmQBJCsHHDBhzHpbCwkMLCQuVVeuMNotEI1dXVwThpIQOhCWUCShdHuliOHWganZUdlXcrhFDBbZ5DYd/+fdx///24ruTSSy/lM5/5DK50WXjvvTzyxz8yaNAghgwe3GHGZWhZmbZi8JUQhEyTkGkq17zrcNq0qXzjm9/ku9/9dx566CGKi4u46KI5nrdSQQihkIlrWZ6J5Hr5bWoNOpqGJSQpO43EDXDI49FHipEo15nydScSCfJyc6GLxEUIwpGIAq5QUl0LpLN3GV4gkudKdRyXhoYjPPjgg+zdu5cbb7iBT37yk0TCYW695RY2bdrEW2/t5NnnnuW6667HsR0EsPudd8jKzqKqamQXFbwjSUkxr2D0mNHk5OXyxvLllJaVsWPHDubNm0dOTg6WbQVAXgC4SZV/4TgOLirU2nFdhZNIFY4sHbfDayPU8lcCtPO+GY6Eqa6uJhqJsmXzFrZt28aWrVu46cYbFRDtBZlJ0Y2bFQNIiUBpf66vcnnJhLbjYHrCTiLp06cPF190EVu3bOH5xYu59957+e53v0tpSQkIQUlJCXV1dbS1tqoF5MUZIKG9vZ14exzd8EFrt0tfFFm2xdxLL+XSyy8PYkoC97M/195iT6aS+O7TY7Gy7MIfmdGWeCam4yrTRPiJbt6ijMfjLF+5Ak3XGTtuLH0KC2loaGD7jh1UDK2gX9++4PGbEAKZgbUJTeFhdjod/N0X5EF/pET3YjvqDx/mnt/ew9atWznnnHO48ooriEYjXDJ3LrW1u1m2dCmVlSO48cYbyc7O9jS7Dh8Q0Cm7Vw/pSFzSVpq0rXAphBqz06ZOZe4ll3D//Pv43e9/x4gRw6gaOQIjFPLidywl3AwDcMF10V2JIyVx16bNtYink9jSJRw2j4uP+GP9kdRsVfZ+hKLiIjRN45233+7EGEKoHUx6QU3+JKVti2Q6TTKVIm1bWN7fXSRt8XbaEwnqjx7h/gce4PV7HqXYAAAgAElEQVSXX+LMM89k3hXzVNBQOk1FRQU33HADtm3zm9/8lsWLF2HoOvWHDvH84sWMGT2GoqIipSl4ixnZIUgsy0Ii6duvH2PHjGHVqpU8+dSTAEydOlVtEp6XxQXvI1VUolATI4RQdrfjYLvKlnb8+BFvh1DZpWYnswZUOkAqmaKmpoahQ4ewfv16Hn74YcyQyYwZZwBCBXTZNjiZbnPhmRdK2zDDJq6nk+i6HgiSZDKpNAkpsW0HiaSsb1+u/dzn6D9gAM8vXsyTTz5JOBIhmUox8+yzaWps5KGFC6mvrycrK4usrCwSiQRPPfUkDUePKszCC8YL5j/j40r1/n48hGVZpC2LVCpFMpkkmUySSqVIpVIKcAWcQFB3/ijhIJCawJEuUngYkCbQDB2sNELXMUKmWjQCjJChwENN8PhTT/LY44/Tf+AAzjp7JpbnBn777bcZUVlJXn5+ELTn4xyhUIhIJBK4XDM9ih387EUQewBue1sbjz/xBE8/8wxVIyu57rrPkZ0dQ9MEI6squfGGz1NY1If5993Lyy+/RDhsEomGQZNohkDomsdPLi6u+tlVwHg4YmLbFrouMAwdXdeIRiNce+21VI+uYcemTfzunt9ipdIgVUCgbTuEzLCXzOcQNgx0j39tQ6Mh3s7hpiay8/LIys05qYzwj0Qjka5LJBKhqmoUr776Gnvq6pg8ZUrGFSIIeKrdvZuly5apaM8Ml6zv/4/H45imSU1NDYWFhTy/eDGP/PERKkZV84UvfIHS0jLVohAkkkkuueQS6urq+O1vfsPdd9/NkEGDSafSpNJpxo4dG2RYqkAyuihJyrOUm5vLjBkz+Pvf/87iRYuYOfMc+vUrByReDJDXhoreVRqT6ntDYyMrV60K7O9UKqWElfSVMLW4KyqGUVZW2kn11nXljcjOzmbatGmsWr2a559/ntNPn05JSXHgZrZtGxw/GEntyq7r8uJLL9Hc3MLEiRMYPHiw6qMX8anrmkqn98o2SFfd79g2E8aP57NXX81//dd/sXDhQqZNm8aoqiomTpzIaVOnsmLlCr7//e9z+eWXEzJNVq5aycKHH4ZkEkM3vLSG94++nQg7VmEbIohuVfeofVzTNNB1dry1g+eee06VTfBwi1Q6zd9fe40/LVxIdkEBV15xBdXV1aTTaXbu2klLSwunnnqqpw178UpSvVPYC7FfunQpWdnZykti6J62QGCCCKC8f3+GDBnCipUrufvXdxOLxYK8nlQqFWjpY8aO5bLLLuOeX/6C391zDxUVFYwePRrXdXlj+XLq9tQxfPgwpk6dRiqd8h7R4d0JebE/rquisnVNC1z0t9x8E0uXLuO5vz3HnDnn42g6paUlaLrG4sWLKQ7HqK4eTU55P2xNnXez78hhWqwkk8adSnZObpA5fDz6SASJL6HHjRsHwJo1a7jooosUOIcyAeLt7aBpvLb0Fda++WYg7btiAI7jkJOTw3//9KdEolHuve8+wmaY6z73OeVSRDGTJgQhr3bJFfPmsWb1alasXMn999/P4EGDCRkqGMm3z31AL22liUQipK20agtJKBSiYvhwCouLOXzoMMNHjCA/Pw9N07FtC9M0iUaj5ObkoHnJdZoQuJZFXV0d3/ve90in00GofGZdFKQkGo3yg9t/wAUXXIBlWWR5pQ78PmmazoQJEykpKWFvXR2TJk8iOztbeT1cl+ysLLRo1NPYJEZIeaXmz7+fTZs3cccddzB48BBA0t7W7rlWVX6NP1bS23X9UOtL5s7lhRdeYOXy5fz0pz/l7l/9ivLycr785S/zwAMP8MKLL7Ls1VcByM7JYdy4cWzduhXwPBQfSppeV77SCBkhsnNyvDooGrZl4bgOkWgUELz4wou88cZybNtSZq0n4HLzcjl79rlccMEFnD3z7IAPNmzYQGlpKQMyPHmOF4sSMlRUa11dHT/8j/9Q3icP6PZrz/gkpeT2224jKxbjv//7v2lvbeOmm29i8pQpal4hCB6MRqNceeWV1O3dy7PPPssvfvlL7rzzTqKxKH/9y19Z/PzzXHvN1UycOCloPzs7W2FKoRCRWEz1XyqXN5qGIyXV1dXMmzePhx5cwAMPPMCwYUOpqhnL5ImTGDFsGC++8CLvrN/ExRdfwrVf+TISiOgGu7Zvp6WtleqxowlFTFxXQ8qeY30kKE3vw5rkTiQEruNQOWIEwyoq2Lx5M7t372b48OGAYrwJEyfy1a99jXgigW3bgUpphpQN77huEAvgug5Z2dmkkknOOussSktKuOjii4lFo7S3t3cE7Jgmlm1TWFTEjTfeqLQg1yWWncXln7rcM7X0IAkPoKxMqfauRMUoeP7/imHDuPGmm0gmEpx22mlBPkXatqisrOTz11/PqOrqgCGLi4u56dZbA43DB0EDO9rztkgvUW/w4EGEQqoWxDXXXktBQQGRSDSIWOzXry833nADBw8eYtasWQF+g5QMGTqEL33pS9SMGRMUudF0ndmzZzPlE1MYMljFM0gJQysquPmLXyQvL8/DrHQ81SZws6ZSKXLzcvnmN77B8uXLFa6VTJCTk0NlZSXf+c53OOuss9i8aRPhSIThI0ZQXVPN0mXLFJ6CUrNt+/jRkO+XHMehX7++XPWZqxg0aKCq66GryOepp00NNFk3ANEl4XCEWCxG375lzDjjDKKRqNLEHBvLsqmsHKmC5bxoWl9QSCnJzcvjmquvJp5IBFiLgxeBGuBCwkvj1yjrW8bBQ4c444wzOP/88zn//PPJzcnx0vn1oG+u41BSUsI1115D1agqbNumrb2N3Lxczj//PEpKijll/Hja2loxw2GysrO4/PLLSKXS5PcpQIIyrz0zC8+0zc7N5ap/+zfycnOw0ynF51IybOhQvvblr7Di5aUUx7KpGTOOaCxGMtFM69EG1q1cxdCKIUyYPMkrMdAdbu3Ab7yff/Tjn8rrbryB9mQCKZSfWaLCgXu2jATverfxzBPbtlnwwAPcc889/PKXv2T69OlITx3z7U+/g/5ubGcUnPERdAEkkkmi0SjZ2dnE4/Fg14AOpFt5Q0WgEYVMU3kK/PRtL8/HZ0ApvQnxYkFC/i7thcULoD0eD0L+zZBJ0s/B8KqsJeLxYGfSDZ2wGcav+uaH6PsRjFK6SEcxoWmqd5ee4PCDnwSioyiN0IKFYts2lpUOdqFwOEwyncKylBCORqPE43Esy1L5IZ72Jx03SE/wvSZI2c2j4TiOl1MSwnYcNCGIJxJBpTnfbk5ZyvVthlVMRjQaUzuUrpNKpY/LFicC6E5omQuwLdurOaK8efFEnGgk0sH4UnrjqRa647iEzFDAR5qmsocdxyGZSKjiWB5PhsNhL2BS4VWJRALNG+tOgkRKdNFZIwFoaWkJCkQJocpOhMPhIP6mo4sy2LA0XUPXDcUb6hWxbJuQESKdTgWZyY6jwHvDMLBtC1cqk1ZIvDIXIKSLaehoQoLroKn9Al0P0dbaSnF2LjGh0RJPkDRDNKdaeWfrdr7+1S8xbeY0vvjVr5Id64N0Oyfu+QiA5v8sxEenkYDy2195xRW89NJLPPLww0yePJlIJBKo2H5CHdDpZ9X7zjLRNE0cx6G5ubnb4/wFEXjMXBfbcUhn1tTwFoe/EB1QbjxPE4KOiETbsZEeeJhZtcpy7CAeJp1Wi8ZH6X1/f8r73urBfSmEhvBmwPbfz7PLO9qQnUwF13VJBklqvsfGf74IQvV9G9zvbxBVKwQpbxyEEKCJDpwnA9fQDEO16/XblRLT26Uz58bwYkdcx0u8dB3P5DuxXf3eijpmkCQQaqlUGqGpMoWOH2AWeIH8ZDqlKUnfLYzSRNTGoClzAQXWhsJmMP+gNkHDG0sr3SEg/TN0bekEPOJT2AuqTHjzZUbCHUBx5l4s/CqqSjvpxvugTG2PJ/wgPOk5JDq1J7y5FoCUpKy0ej/vyUIKHNslYoRpbWmj1bKwXJeEABGCx/76VyLRbK664jpiZh4yI0Cup/nquWbrh0xCCPLy87nllltYtXo1a9asIRIOdy8p9wFS12jdTNTfkVJFH+K7bLt7B0B2lWGd2upW6s5H8N8n2Og7cGQ3ruugngLQeiq/d8xnSD+kvufrpRC4guN+fAEkpSRkhLw+cMxo1I8raVoPY+Ar3348yAlIiuN//BCHnj/vprfHmC//I6AjndXjbwQOAluArQkcXcMJ6dimgYiEMU2Tt3ftZuXqtXz6is8wfFgluhZSVemP9b58xO5f6GDwtrY2Ro8ezYUXXsiyZctobmk5KffSB0k9uRJ7dC+qnn+kffunJKHyhoTWYfb6xa7/r9DxeeTjQd36J/A2Sk+bFQLb+1gaOLqOGwrh6DrC0Fm3bgNDK4Zz+ukzSKctNHVQBccTXD4ZH+VgCKEK6sZiUW6++WZsywqqPfXSx49ORg74bOYnG/o4gQq2+zB799HScTbmjwUFiqvs9A3qa+HF2nqaJMrUMYQyrzVDw7EsZsw4gzlzLiQaiyJdOnJwurTX07MNX3p1qEIfvrQ1dIO+ffsqD4eX1ftxpEC8eSBWxq+9eopHHXzb+VSUY7kL/9lIBv94lGGFdGNb2XHNe37WcX735USmUOtsyrhoXv+65o1Bx/k10pXqKA2phIwmBEYkQv9BgzGNEI5t47jeugye1UlKdSOjI1HMv/7DXSKu74nJiCBVj/V+ey+T0YN76lh0Ms1mTlZwcJnouD/ARd9FFz8s8krhdkLRT3hPtznuWXs4Putk3C0l+LikH8CF6JGVVNh+x31dI0Iz//5u6INm2wCw7/qcjO4FV3Tlv+P0X3RPzOnSXg99yBynjDB8dY9ECkmQESO9s3a8yRMZssAXHp2eI1RGshL+KsdG13RcSQZPqLnUMp7cRbZiOFKqsFs6ayMf5iJxM1Bz6MLYwc/vgpu6+tNOdPlJXONraH5PMifDf9zHQZBA5wV/oj51zQnx73J7GG95AkbwnysyBkpKLxP2WPdlanae6uy76P0Gj1dd7fi9+WCpmzbi/+pvMq63Ur0zhoAg2vbkn3HsUpMSX0h31KTttPnSgdNqUuVSBfiw9E2ajOsDnlUgekdekirN6D80KDQlOj+tp43Fv8JwkYEPOgBovBu0f5jF4Q/HPxY7UUzjc7f6zkVNiH6y2/WHRl3YKnBVnsSdXoZ1Jml4hzx10U57UpGDP3vRuZmnsfnjEzyrJ2eIIDhWQ2iiQwB5OU+ZKXoyaPvY73by5ROOT101JP/5nYTf+1Z9vEjiDI3Hxy+6mS1BMF1nCjY1TzBoeJiUUDFButACYaLRMYdd23G95ykB09NEi27XH4uMd+Mu/OjpJJ1Kx9zB3t/O5hdKPtrYgKGpgLSoaRIOmSC94LjjrTSg1Ttuwz/Fr6m5mXQ6jWPb2N7RGpnubx83klJSkJdHfn4BqVSSur17iYTDlJaWEg5HVA1bj8ldL1VdSklLczOJRIJoNEpefn7QrmVZJBMJamtrGVFZqarKeW2YZphYNIrtOEHaQueRgIaGBoQQtLS0UFBQgGmaZGVlkUwkaW9vIxGPYxih4FwCfxuQ4B3hqVzj+QX5hIwQjY0NQexNKGRS1reMZEIVvhKa6HSMpmYYpJIp6uvrQUBRYSEAhhHyDrXqKP+QTCSJZcVoONpAS0sLUrreURt6kNsEysQ2dIOs7CyyYjFs28k44rPDpOjEGV4Q3+HDh4hEIvTpU+i9q+AkcUkQoAuNtvZW9h84QP8BAxGargS76DCdpNdHv3J/yIiQTqdJxOMk2+MgJbnZ2USjEZAumpS40iFkGBw+fJC83FxisWxVS1h++HaG8UFJ8w+DOplbXh99KdyJlD7ZZeJPLES6IwWKXFSEr67rpF2bdes3sH7dm2RnZXPeuecysP8AlewWyPGOXSPTyoq3t/OTn/yEPgUFfP7zn6e4pITnHnmEP/7xj7hS0tLS4h2/0Vk78OX6+eeexze+8XXa2tq4f/58li17lcsuu5Trrrue3LxcVZXNdb2dXWP7ju386Ef/xZH6em66+WbmzJkT7LKRSITf//53LF26jIULF7Jlyxa+853vIKWkf//+/OIXP6egoEBF/XbpTzqd5r777mPRokW4jsMXv/hFLrzoIlzHYeXKFfzh939g+/btKuLTN+VlR5yJEKog0PARI7jrrrsoKS3hwIED3HDjjQAMHDCAu+76KWVlZcG5RY6QQexGa0srCxYs4OlnnsayLG6+6WYuvPBCL7LfO3rCo2g0ipVOs3z5cn5854/xq5q5PhicwRZ9Cvswbtw45s6dy+iamuAsomOZVlJK9u3bxxe++AWmTZ3Gt7/97WOx1jFJAG1trTz66J9ZvvwNfvDD/6D/gIEkk8lOprRv1kivBuyhgwd4+umnWPTs32g80oAuBBWDh/C5z13DaaeeSjqdRgiXcMjgkQcfoqmlmW9981tEYzHCkbCXBuILky5aV4Z2nbl1S05+K1YaycdQkgRS2WNGFxSo6IE+CvTs8ppeFpSqwK2u7xS27KuUXsi+JkH3Yh9cZFDbwpWo1HQBiXSaI40NHGlopLUtzq7du+k/YIBiYK92iFJNZfCzAi9dnnvuObZt28Z3/v3fKSgoIJlI4Lgue+rqKCkuZsSI4V4Nkk4vEfxbVFwMQtCnsJBZs8/ljeUrmH///ZSVlXHZZZd3ZBu7kkQiweK/LWLTxk1ccMEcPjl7tmdDK40zlUyy9JWlTJo0SZ394jjsf/tt0DTaWltZ9+Y6Zs+aheOolAH/eArXdWlpbmbZ0qXsfecdNNPkwIEDmIZKx29vb2fHju1Eo1EGDhqYkZ4gOsA/XaUnDK2oICsrhus4HD16lPpDhwFob2tj166dlPfrh2VZ6pAxtZJACNrb2nj11WXs2bSJUJ8+pFKqIrtlWaSSKe+AbP+5qtBVe3sbRw7Xk5uXS/mgfkQikaBvvnDdvGULW998kzfXrOXOO++kqqpKVWujQ5hL2XG9EGCGQtTu3s3ggYPUE3tcaZ0r3WXOrRAaDQ2NvPTSS0yaNInS0hLa2lq83JuMO/z9XUAykeC+++7ljwsfpmZkFWNrqkm2x9m8cSM//++fkbzlFk6fPh0pBZbtcPrU0/nmv3+LCadMYM6FcwDpaSZ+CHN3gRKYVBkbtezy//HIOJ4E/kdRT0JEGBqRWCxg9JAQ3pk4mcdNKjVa09QBUiC8rEjvHb3CNpqmIW1VHQpXYQY2qkKbpqu6nZFYlLZkAmGGCEWjOELDFcILHRcBSu7bt74y75c+3P3Obu5fsIBpU6dSM3q0Ctv2mDGdTjN12jS+/vWvd3t3ITqSvmKxGGHv6I1PnPoJ/u3qz/KLn/2M3/zmt0yYMIERI0agabqqB/LEEyy4fwHV1aO4ct48db6M1zPHsnlr+w52v/0O1193Ha7t4NoO6Dqx7Bwcy+a1Zcs4fepUIpFocIqhX6Nl75466mr30K//APbv30/ENAPbXKCSG2tqqrnjjh8R8Q5C14J6vF4xHk8wmV6eSiqewPRymKxUmucXLWLGtNNVIBsqvN12Ja5jc2D/PuoPHSa7tIy2lhaEhLbmFsxw2Jvnjp00qBLnuLiWxehR1dx2++2Ul5erNh1HJYVqGjveeou77rqLFcuX8+if/sS3vv1tlawnfNPKwyC82iMp3yRNpelIWuiJBH5ytxAdC9Yvubhq1UoOHjzAWWedhaHrOJrodqqeAKSmoWmC1atW8uif/sTkCeP5wfduo3L4cJLxBI899ji/uPtufn//fGomTqCwsA+60KkeM4ZPTJnCwoUPMn7iOAYO9DKZvfwd/OJZHyCkYeBP9MeQfGHiAolEku3vvMO+ffuw0mkMTSMnJ4fS0lKKi4qJmCYShTin4nESiThmOIJu6DQ2NrJv/35sL72/vF8/ykvLCIfUCXMSSCYTtLe1UrdvH/FkgpRtE8mOUda3L2m7o3CR5iXySSECYDpAw4WqhmZoGs8++yyNjY2cP2cOEe9cX+hgrlgsRnZWVrd3DpK3hMqjsbyT6HTD4LxPfpIN69azeNHf+MlPfsI99/wOKdNs3LiR++6bTygU4tZbv8CwYcNJW2nMkInllUN4+eWXCYfDDBk8xKvvqZZCWVkpEti5cyd79+4LMrL9yO1UKsWKlSuwbZtzzpnJAwsWKCyk0zzJ4ETBmJ+xbHRoFW4gSDwd2hMWsUiU/v37k0qnWblyJUeOHKFPnz54Q0koFKI1mWTtmrXEYlEGDRzIqtWrgI4iyJoQ3RYg4NVXkURjMQoKCsjOysJ2HAwvSdMwDMaMGcP111/Pxo0b2b5jB8lkknA4rGIxhEYikaS5uVnV+jVN+hQUqPYt6/iLUEpcVxUfyhQkQgiampt4/vklTJo0iSFDBiuTBNENVJWAY1uEDIOlL70Its2nL7+MgYMGYrkO4ZwsLv7UZSxd8TqvvPoaa9av44wZM0gk24llRZk9exbf++7LrF21kqGDBmCnU4oHdQ/H8irbfVDGyEdWavG9kOu6pF2Xww1HeX3FCnbufofm5ha1s6TTRKNR8gsKGFNTw8TxE4hGI8STSZY8v4TaPXvIzs1hyJAhbNy0icbGRnVkRMigIDeXieNO4bTJn1DmEtDY1sbrbyxn19tvq+prySShsEn/gQNIJlOqshmA0PEjBQN/ZfCf2nHq9uzh8SeeoKammhEjRnQCTvyq6alkMjiFHvwT5AXSY0DbVifwhUIKUNSEoKi4mGuuuZqtWzbz8suvMH/+fZx77if59a/vpq6uji996YuMGzfWy2z2NU1BPN7OmjVrGDxkMKWlpei6rurMauqclb59+/LnP/+ZDRvWU1FRERxYpnk1Np54/HHOPXc2lZWV6j09qSkQnldAZaRqQoXGG5ruVfBSQiazgpiUCiQN6QaagGHDKsjPL2DB/PtYvmI5c86fE4yJfzzmsldfpbq6mtzcPN5ct06Nl7/le1pmEF8hREbejEq2S6fTKtHRExDCAyCbm5vJysoinU7T2NhIU2MjBfn5mGaY2tpannrqSV555RWaGptwbIdTTz2VmTPPBsPolLjXaS16As6VkgXz71fHnQYV8CTvvP02b65dy+jRo1n44ENkZWVx6mmnUV5e3s2kyI5EOXBgP68vXcbQAf0ZN3oM4WiEtO0QTyaJxqJMO2MGL7z8Ejs2b2TW6dPQzRCabXPm1KlUDhnMHx9ayNQpn6Bv375IAU6Gf8Y3zT6IqF0js1bmx438ytvbt+1g46bNpB0H3TC8804dWltbSdTXw5YtDBo6lPJYOUnb5nBDA0eaGmlPpzjS2IRlpcnKyaWlvU2VHHAl6zdtpqZ6NH3y87Bdybadu9iwdSvt7W1ouk6uV2bvndo9KrNUqshAoFOQD+D5+dUCi0bCvPnmWhoaGrj88suIRsJkHjwuBNjpFFnZWaRTKitUQieQz58PVePVd7qpHWv4iOHceuut/PD//ZDf3nMPGzZsYOnSpcydewkXX3wxphnGdR0vU1X168iRI9TtreOcmTPJzc0JShRo3lEf1dXVPP3006xatYpZs2aTm5sb9GPFihUcbWhg1qzZqoaqd6Kgb0JoHi7V3tZGW0sLUTPsnSvTESuk67oqM5BMouk6hm5gejiNJgSjR48mkpXF84uf54wZZ5DjPV/XNDasX09tbS3nn3ceBw8ePC4Q6vfZB58Rmio4lZujzpfOPNtIqFIHK1euxG5qovzUU8nJySGVVtXznnjiCX77299SVFTEKWPH4tgOa9es5u1dO9XZyV1KJHTDFRyHxx57jPa2NlWiwDuKpKWhgVAkwqaNG9m2ZSsDBvRn0MCBDOzfv+Nd8NzeUhJvbqG9pZnKQQPJzYoRQaC5ENFD5IRj9M3Jx0imSB45QtSxyTLDylsWNpkxdSoLH/kjO7ZuZ0B5f1Xi09N8enT2ys7vkPluJ7JZPrZgK0BLUzOJdJrdb7+Nk7bIzctl5uxZ9C0v53B9PX9btIj6I/XsOXiAQw0NlA8cSMqySDk2rhC0JxIUFxdz7ifPpbCoiM3btrJu3TqsVIrG5iZ219aSk1vD/kOHWLNxA03xdjQhqKmpoaa6muzsHFave5NVq1djW44X3+CroJ18SgEjxxPtvP7633GlTVXVSBzH7mQ6Oo4N0mXr1i088sjDgK+mOxnCRgGk586eTb/yfhnxDYJQSGf2ubPYunULv7v7Vyx54XlGjBjO9ddfR2FhEY5jB8d1mKaBbdscPnyYxoZGTj/9dEKhEI6jCmC7XjmBqqpRDK2oYMuWLbS3t5Obm4uUkEwmWbTob+Tn5VNRMZRdu3YFh3gFHCPUWUB1dXv462N/JRzyD3rSOl2Tl5fHhEkTGTJ4aKCVtbW2IaVk3LixjBg+gk2bNtHY1BQIkngizqbNm9A0jVNOOYUXXnzRa7CzP0F68S+ZRaOEEOA41B8+zI4db1GQnx8UafZrsLz08sv86U9/IlpSzOTJk8nLzycnO5s3li/nkYcfZtDAgXz/ttsYOmQI0XCY2to93H777QAdJytm9Karx+P2226jrU1tTJFIhC2bN/PII3/ksssvY9iwYRQXFQFQWVnZobGhYjoEkErGiSfiSNclbBrIdBqtPU6WDYZmEJYJ+keyKM/Kxm1uJlsIDMtS5pIZonrUKKTrsm3rVs488wz8ejZOBqAfWDeyZ4FxMkIEfNMmQ44ocKyn8OaPtOIAADlZ2YQjDhdfeDG1+/aRV9iHAYMHYUkXiUZOfgEHjzZgGCFSlo2UAunlbPtg4eRJk6iuqcEwdHJyc3l71y7qGpsI60awwBubmzjS3ETCTjOwX3+mTptOXm4uuq4z9bSp1O3dR92+vTioYkQCGbihA4TfVaZnOm2xdu1aNE1n5MiRykzwzwVG7bLoGitWrmD9+vXBu/oxIYZhYDs2hX36cPrp04I6r75wkRJCpsnZ58zkd/f8BiuVZMTISgYPHkR+QS7x9rjn6pQkkz4UDLQAACAASURBVEksy2LRokUUFOQzevQY/Dq0rpTguqTTFqWlpUwYP55HH1XmzdChQ2lvb6OpqYlVq1bRr18/KiqG8dZbOzuEnSY80NnFdh1qa99h4cKHiMfj6LrhVbOTnikkKC8vp09REUOGDEHgYjsWqhC9RXFxEQMG9GfL9m3s37ePysoRtLa20NrawtKlrzBhwilUjhzO08885eXwBHC86otvagWBXjKocr9+wwa++c1vBhpfPB5XpTTTaQ4dPEC/8v5c/dmruWTuXLJiMdpaW3nyscepP3SYW2+5hUkTJiiMSmhUVVby1S99ies+9zlM0/TmzY8UVtzkeqUpjFCI06ZOVeafpk5H2LZ1G2VlpXz605+mpLhEFVTyDorzTw/wK/+DOhXvaCpOQpdYuosULilpY2oGwnFV2cyQjmMatOHQrqtgN0dqRHSd4tJStFCITdu20tjaSkGfQjpiX9W/Op5n6hhr8GRdwEanq48pKz56jSUTdMzKyWbY8OE0tDTzxvIV7N5TSzyV5OjRo2phSBW0Y3sn6QnPYxMydEqKinEtW5WM+//MvXd8HdWZ//8+025Tb5Zlq1juxpbcZBtXMM0JkA2QJSGNJTiEhBRIApvCZlOXH5DsNwQ2GzohxnRML6a6YXA3rhj3bkkuarfMnfL745wZXdnCmCxs9vDSC0sazZ1yznOe8nk+H9cFX0oIRKNSSV7XNFzHVYzxUFpWRkF+PolojM5kF0WFhRQWFrL3wAHpkfg+GjKBGDI9CIHQQAgf09TZvWcXfSv7UlRUIOVGvSBVC64nGd/HjTudr37lK+H9BpUSXddJpZJEIhH69++nUKiyi8ZXZYTtO7Zx2+23AT44DouXLObll1/ioosulhowGQdN14iYFm1t7by/ZQszZ55FQUGBrHqpEji6zGVEo1EaGhp58sknWb16Deeccw6+D2vXvkdLayvf+MaVUnojmyWYLOHE96UWzZgxY/na175CJBLFNA2V15GMX9ID0WlsbAjzL7ZtY0WskInti1/6Ei/Pn8+LL73EjDNmYJomO3fuZN++fVx66aUYuhGW7Xub2jK07JbBCHIoxcXFDBo0iKCosH/ffjZs3Ai2zVXf/S4XXnABNTU15OXlITRBV1cX+/btw4pYDBo4CNMwurlIPJ8xY8YAhJy+8sPVU3HVRqM2scDzy2Rc9h84wLyn53HR5y+ivKwMIXyiEQuiiq3Ozubcm6/uAaIe5HlQjEYkYpEVoFsWlh6lq7OTFA6e4eMJPywG6EIn6/vokQhGxKK5tVUyq5kmruOeOjjkYwwjSAIGTF//l9IlvhCgaew/eJB3V65k286dtB49gqbrxPPy8DWBpvR2g8URlOWED3nxBNFIhKydlUlLBBEzgi40dKHhux5C/UWg5B6NRiWwyvdChbVoNCZzA8EL9iEENYdgAvm7zq5ODEMnLz+hJtVxbjg+uA4D6wdwwQXnq58qVndNygl0dnbJYxU1oGFooQGIRiO89dZbLHv3HUaNGUP9wHqeefoZnnjySUaOGsWwoUPDiozneezbt4+2Y22MHTsGTROh7ITn+aGh9n2PQYMG0r9/NZs2bWT79u1UVfVj9epVJOJxzj77LI4ePUp7extB30cPEIUPpSUlzJgxQ4pyG4Y0zD5KhlSQzdF/cXssOEAIJk2cSG1tLYsXLZJ5LDfL0qVLqa2tpbGxAR8f3dB7gM9yR4Ba9XPCTCyLESOG88PrrqOmthZ8n9179jDvqae48847WbBgATOmT6egoIBkMgkKuZtKpdRGUKg8GTA0DcPSQ1nPiCqBA0qrWcEJAE3I8vecOXNwHEnjuGfvXrZt28b69eu46667yDo2WdumrKyMiRMnMiQIb/zAT5abY6FhUuBCwvUQAiKJPHwM2h0PL2bQbifxhIduBMqVMmnvei5mJApCo629XUmAZPE/pcjif5WP5OMMX7mIew8c4LmXX2bvgQOga0yeMoXKykoS+fksWLKYzn1p/MDdVl+BMbHTNhoa8WgM35U0cxHTQqDh2A66kJPcByV8LcjaTogWtUyLZCYteVqFhm5qYRz+YfbWMi2y6bQ0aqrqIcMI1DUKsCLk5xeQTKY+9P7DheEHdwaWZfLCCy9y+x2347ou//7vv6C4uIRUV5I333iLu+68ixtvvJG8vARCaGTsLAsXLiSdSTN4yBAMw8RxXHWvvkrmyhJvTU0tkyZNZO7ch9m5cycgWLLkbZqamigvryCVTqn+HHn3UnjbV1USLfxKpzMIkQnRurbtHndPGp5nd2MshGRpT8TzOPucc7jrrrtYsWIFjY0NvPXWWwwbNpQBAwYQhC4fazc1DOLxBIVFRaE4WW1NDd//wQ9IZzL89S9/4ec33sjtt9/OwIED8TxP8atCW9sxUkoX2DQMNGRy1k5n8FyXTCqtGuXUXPW68y+u7+HZHnfdfTednZ2k02m8tjaIRJg/fz6vvfYa4GGn0wwcPJj6gQMZMnQox3fiO45DcUEhCStCW0sL7W3t5BdV4msaKS+LrsPhY61ks2n69ukDQuB48v0GEreS3NxXYb/ayHKBaHwyDoohT9adhf+/ginxAdt1eH/bVpqPHMaIRSivrGTqzDMoKiwi6zi8svCt4zAEgm6lOj8Me0DgKQJlT/VHBzubaRhErWjIBnXg4CGaW1oZXD8AJ+vRdayNY+0dEvugGxyvhHf8sCwLoetksw6O40gPIIerI9jNQ5DcSYcIQV3xeIyNGzdx+x2309Hezo033khDQyPZrM33v/8DNqzfyMsvv8SUqVP4zKxZEt5v22zavIma6hr6VFRIxTkClcLu8CSoDjU0NnLvffexdOlSOjs72b1nN1/72ldxXRfLtIIbUNVsBQLM8VCEKr12c8x++P1JbldN7eY+mUya6dOn8+CDD/L4448DPuvWreMLX/gCkUiASg08oVN0mz0P27alOp76M003iJkmP/7Rj3jnnaW8v3wFf/zjH7n55pspKipCKy6mvKKC1atXc/DgQSnbqcsytyYEx44dxVAyJz3elJBepefJMMUwDW6++WYEglWrVnL/Aw9ww/XXM2ToUJysLSt5ChxZU11N0KCX+8Q816W0qorqoUPYuWMzra0t9Os7AM0wMA1pkJv376WrvZ3+NXXopoHvC1xPklK7cofEdWV/f6Aw+GmMgBO2O27+PzIC4mHdMNEMA9vx6Eym2L5rNzv37uXZ55/nSHMrltCJ6iamMDBNC01o0tPwhIRaezKp2F2q9BQmSkcIHeELKsrK6V9VhY7G4SNHeXn+a6xcs469hw7x6htvsm//Adky7nrKqn+4TxKLxaiuqaGtvU2C57JZlVtQ9+XLioGTzapF1/uXBK3F0DSBZZm0tLTw3//932zZsIFZsz7DF77wz5imRI/2r+7PZV++DNux+cudf2H1e2vw8Dnc2sLmzZtoaBipSI+lIfFVMlbW+zyVpzAZNXIkNdXVvPnmWzz9zDMk4gkmTpwI+BimlN/InSNCyOmj6RqJRIJkMhkuXNd1epS0g593qdDPMHRkJVaGf7FYlKFDBlFXU83ihQt44L57GTp4EKdPasIyNAQemnLMLUOWjwEyqRSe64YAslxpEYL2iJxr9n2fjG0Ti8f46U9+SrSigrfffpvnn3sOz3MpLCxkyuTJuK7Li8+/wJHWw8SsCHg+tm1z9z334mRsUinpTQYdtrpmINDwXTB0E9/zmXz6FM4++xyOHD3GuLHjufjiSxg/bjwTJ05ifNMExo9vYuzYcfTpWyXbMnr41Aael4cWy2fyGWfQcbSDN15/nc62o1imwBUu+w638Mrrb5JfVEr9kGH4QlN9YvKrK5mi5fBhJW0SBU07gR7jkxo5gDTl8vi+Qr31dIH+IcP3KS4uQtd0MukOWlsP8/gTT+K5HsL3iRoqeSQEjq1U7REYuoEuBIZqp8bz0DUNXYiwT0ee3iebsSnKL6Bx5CiaW1s5cuQoW7ZsYcuWLRQWFNDW2UnEMvFcB0PlO7yTeNie53HWzJnMmTOHrdu2MWzYcIkdURovnidb+Hfs2MnChYtOevuJRJyamhpKSkq55557ePHFFxk7YSKzZ19JYWEh6XRaGk/d5ZIvXMzefXt47LHHueO/7uA3v/o1K1Yup6urk8bRjViWSeClua6rNqbA/ZVPpLi4hDPOPJP77r2XQ4cO8bnPXUh5eQWWZeF5UnZVaCqfpPI5Atnbsm/vPhYvXkxJSbHqyg0AaDIEsjMZYvEYNTW11NcPIBqVwutCJbA7OtopKSpiQlMTD/7lv3k71clnP/NZBtTVItsoRXh8xDKxlLSIAB595FFiiQRnnXU28Xii25go2Q+UZyrDOfl5Wc9j9OjRXHLJJTx09908/sQTjB03lpEjTuP0yZM555xzeXX+fPCl4HdRQQELFizg+eefI5KIhwzxEORmJJN+UKUKZFi3b9/O8889z+9+9zssK6oSz90hq27IhsITeEl8HV+zyOhZZpz/Gd545inmPDQXfJ1JU6dxJJvmngfuZ92m9/nKZZcxYMgQbMdFCKVTJDR2792L63oMHzGCaCyGbui4WbebtOuks+/jDSM4na/coAAj4P2D7Yjw5c4zZEA9TaPHsPidd+my0xi6TjKdZlB9PXXVNaxYvpx0Mkn7sWN0dnZK0JHvE7UsaTh8CezRhUDPMSLC9/E9V7qIjsdpQ4eSyaRZvGQxBw81YzsOGdOguqqSwoJCtm15n4gnMyqOkKxUei9uYiaTYdy4cTzwwF/ZtnUbEQXECoZlWegKCPX222+f9Bn069eP//iP/2Dnzp089/zzxOIxrrnmOzQ2jsa2MwSVHIEgHk9w8cWXsHjxYt595x2efe45WptbqK2pobGhsRv/oWL6XBdX5nE8DENn0sSJzJ07l65jx5g8ebJKPKO6cqX2UBAWBiJhuqGzZu1a1m9Yh2EasgfK9RCaCJsKPc+jrKyMm266ibq6upx8CyFORmgan/nMLB5+ZC6pZIoxY8cqA+wQseTC9VyJGvWVhpDv+9x2221Y0RhDhgzthrGDFHFRI7dZM6iORGMxrvzGN1ixYgUbVq3i6aefoa6mlvoB9VxzzXfwXYdly5fzxhtvUJCXR0dHJ+fNOo9nn3suzAEJgvKpHz5fXdewbZtMJsMTTzxJZWVfBg8ejK5r6lk6BD1VoWxHD6i/BpqBMCAtPArrqrnyhh9z91/u5qHHH+XBRx+Wy9YwueSfv8hV3/0+BcWF2Km0LCKotbttx3Y8YNiI4WhG7uz/5IeRe24R4O97QFX+MdYkcPBMXWPG1MkMGjSQ7bt343oulZWVVFf1w3Nc6qr6sm/vPkpLihGuQ0EsysSxYzl08CCxqEVhIk5ElzmAqKEz+rSR9C2vIJ1MUlXRR/JXCsiLWkwYN5qafpXsP3CA1sOHqR84kIo+FSS7kvQrKyZqGVRV9gHvRAKcYFiWyWmnjWTUqJEsXLSQr33tq5SXV4TcG0OGDOF73/seR44cDlGWH3b/paVlxBNxDhzYz3nnnsuQIUM57bTT8H0PwzDxFK+mFGeKMGjQQG644QZWK8nTmuoaJp8+mUQiTpBURsXyfSr68M3Zsxk+fDimZYUlzmHDhnHdtdfS2dnJmDFjQnS/EIK+ffvyjW98g9qaWtXDIxgwYADfuOIbdLS3E3g8ud3Qx4+SklLSaZsBA+q5/PJ/YfDgIcq7kcpzo0Y18OMfX4/rOkyfPh3DMPGVvvHk06eQn1/IwPqBZLNSKtUwTS7/l8tJZ9KUlBTJ/hZNY9SokXzzmmsYNWokhq736MkJfBtN06ipreXXv/oV8199laqqKtra2onH4owYPoL/9//+yLp161j2zjukU2mampoYN34cNbW11A8c2L0pCWQsrjq5A+GqtrY2NmzcwLRp0xg6bJiUE3VdBeLrri6duGdLbhFb+Lg46IbG5HPOYeDAYSxd9i779uymOJZg9ISJ9B06kPziQpysA0KQdRx0TSdr2zz+xBPU1w9gxowzJEixB6/uJzvEv990iz/7qm+RtKVyu+MFHay+qmr8bw9VFUAWOlwh9ThcZOctQuY+8D18zyeTToexuxCya1MgZTKzmbRyoeWO6gupWq8JTaYHXNlUpZsGHl6IXPVQSn7xGMlUSirtATErQjaTwVAAJF3RS2lCejgBTL6zs4s5c/7Gvffex69+/Ss++5nP4KrynW4Y2BmbSMTCtrMf9hDCCalpmmytN0xs21Z4k26hru4Wdy1Ex/q+h2VF0BTLph6Ilwfn1jQ6OjrISyTU7u7juVLj2PdlPsRVSWJdl9Gv57nEYnHS6RRSk1l6MJZl4rpy8kr6BiX9+SH5Nk3XpXsvpMi7QJbwA49EvkNfSX5KHeZA+BtfinjLJLaD5/mYpkEkGqW9s1NhRwClehePx0mn0zhOVl6frxQFlXpesODl85bVo0D1UQhBRPU5OVmZrI1EInR2duL5PtlsVuYd6N57gyqYj4+renz27dtHaWkpZeXlYSgm6KYbRes2cLnL3EOQ1Dx0XCzPxXQhakQRGnhuFgNBxnFxTA0HDx0wNV12drser732Gjf860+4/sc/Zvbs2aEx9nzRTZdx0nUIOSnUjxz6GWed88ux45vIuvIhy5BSdJfn/teH6PHvYIczhY6hCYTr4tlZNM/DsWU7N2riGpqGoaDZuiYrNZomSKVSKrknwpyJYehETBPXsdE1gRASaCbDIIiYBgYyvIqZJoam4TtZTE1HeF6APgmvOKSzE9KIFRcXs3TpUuyMTWPjaGKxuColWkSjUVKpVAjO6vmlqRyEFoYUhmGq8EgoY6WHzycs6+UQ+AaSj64jF6CdszgCa6cbUg0vAO8FDX4IQSaTxgukJUS3sp4QgmQyiefLEM3Hp6urSzGOIxeionbwfWmQA+ExT+VKXBXyOI7bzZGh7hshME2LVDqF0KQIvOt6SiFRGhrbDpLUuqqSeKQzmRBpqutGiFfJlSTV9AAvJEKH20dVz9T1dh8jF7rjOAQCax4+6UyGtC1zPYm8PKmeKKQzgiarJVnXUYvPRzN0SkpKyS8sIJ3OyPskYGDrvuduz1/k/OfjCh/T9YigYWomCI1MxkY3DKnsp+nY2azSEFKIKN/HTqeYM+dv6IbBVVd/i9KSUtmq4fmh0QswJx9vPX740M8469xfjh0/XhkSXb2EIM76Bydb1VINHpDwJKWcLghRqUESVReyC7U7gecq0iJfgaK6vQZd+eue66AJX+W4pTEQyijJao/8v++6YeVHeF4Po3HCg1Zvqri4BBC89trrDBhQT13dgDAJmM064TPu3rzVRMqZWNKYawqEaqhKUwi5y/kK0gHKEAEKahs25gUxuE/PnATBRysj4vm+TKhq3QqEcpOXi1Y3DLVoXDxfynTK6lfuG8t9Pj1ep8rnB16UUEhkHV9o+AgcJf3pq2fp+yACEJUISsv0+AxN0/H9bk9WqPvp2QQpwtcThHi533u+L7WZc84bgDR9FHeq8mB83yerQhSECPlp5GMXoWEMcTLKeAbvQF6OOGHq9Hyj8v+GeqceQR3EUDB8KXgVeqbCR8MjHomycsVK5j48l2/MvpJx48YqWdIcXt0exYIPX+Oe+OhjgmH0uHQ/XLZ0ZylyH/cnOYI8zKmM3j+/twxOb0ce/3IIp4cf/qJHVugkl9X7r3pO1GBccMHn2LlzN6tXr2H69BmAQBM6bhireif8fe5VftTzkevE+8jjTmk76HXTyM0qfIy3JXqL+/+H42Ntaqd27N+F8cy5jtwyasDgp5G7Sk98p4En8FFXKBAYfs8jPZE7iwPDGTD7SRL3zs4O3nj9NcaNG8tZ55yDYVlyl3E/6fXbcxjhhZ2gIfBpeiPBZ33UzXk513Fq19PDCPRiEUROwcLv7YWKj3jJH2OFxGIxrvnOd0LXXNeNHqqCvYPbPu5zV+GVCHbf3J+d/Fw9f5/zb//EqxC5OY/w9x/+94jjf/8/GIKTatB+op/1YR8hgmfa87MCvtPwJx8xpQNh81MLKk52VHf+0heBEoSHbphccdVV6IZOIi+PdCaDoWmYn3LTbQ6O5Hhr9+lasFMfH/86ul/qiX8b8Gf0OI7j9t6PesuneEmappGXn//3/OnfMT6ewT3pmUQvMhQ533/4UjjB/PyPrqOHzT6pHflwbZhPfvR+IR8hJnAKZ/j7riFoIfVULlE3NMoq+mBnJa9K0DwZLIWPQ2KUKwb2UeM4hrTeQprcn38S5aPeApJTGZ/cVDne0BwfN/f20WE58x9sX4NybK4GS3f7fM4Ivj+lkED0/Ncp3qPfi08XfFxIHSiO/73cpE4FRH2ygPrvnUWf9Pg4iw0++WuWoQ1hTikA7hm6jqN0goKEscyPBRfS+5UE7Rxhro1Tuz+ju1IQ/L87EfYPXzWf0Ogx6TzFIep7ys0UynVGJcx6crEI6BYREoqxLEdIStf1HKRi77MqoDkISJ1BlQq93vTt1PD9EGKeW9UJPwdZWTBNQ+446p5cz1NKaX44GXIXtB9MNvV94GpLukJ1x1pOluZkK96XyT5JZNTtEUkEZbYHD2nY7KjKuwG5UcCZG4R8Hx6O+Sd8F3gBjuviIzlAgg5a6H3b+6SIzkMSJTXcE4yjTNDqmsSwuKoLODdBGoDSfPWutZySfq9DAQkl6bmnktWaYtH3wZM9NYYmk9+eLzu7A9GyIOnsi54bkeyb8kPQoQzD1VoI7+bk4x/G2ep/mnHtcTF+7kPQNE1q5Prdi8f3A9Wxk0elQcds1nZIp1IUFReHwCLD0NF1o9e/dz1PcnzmeBCaEDgnwVuEFQq/p9paQHis67rUtXE9PDx1jJyMkiHNpbfnG0D0DYVmPf65qRvFR/YjGUbvVJwBWlXTBKZp5HT7ZsGXBqo3cXhfGTrXDRr+6PU6QRlwIakTNYWSzTWkQnlmmmoB8lxXcnKcBOj3SQ1PkUgHjaGBfEcwhNqQfGU8JB7IJuCcCYwCai4EG0D3Jt5zaKrC1f2K/NBoCkWqpQkdzfMVqlhDE15IqHWyIYRGPB6ReJ2MIon+mNnyf4gh6dYc/eQMSY8cqzgxZg2+3bZzJ60tzQigvr6eouKingf1cMRkVtzzPFzHYffu3bS3tTF48BBKSkrYvXs3q1atoqurC891yTrZE+/J99F0nX79+jF69GgilsV769bR3NzM0KFDGTCgrhvZqY4Pdui3lyyh9fBh6mpraWhowDBNDF2W6Hfu2MHa995jQlMTumHw7rvvYNsZ+vatZPjw4ZSUlOIpAubckc1m+eCDjaxYsZKS4mIGDx7M4EGDiFgWyWSKhQsXKHVAXwHPXGVAczwaIYFhs2bNIhqLcuzYMd544w3sbJY+FRVMnjKVRH5eiObN3dU0Idi1ezebNm3CzmQ4beRIampqQhzI8e/M8zz2HzzA4sWLcLNOeE9hAK522ZKyMuprB1BdU0MsHjsh7Dq+kPJhIdyHbUAnHCcEGzdtYt176xg5aiQjRoyA44xAR3sHq1atorOzkz4VFYwZOwbTtML+H13X2bNnDytXrsT3PKZPn05RcXGvn+X5Pu+tWcPmzZsZUF/PiBEjME3Jl4Mn4QmGZcjeHc/DV1KoJ1SZxYkZ0Kxt8/prr5HISzChaYIK809y872M/3VD0m1EPsFzcuI5e/0MAZu3beXNt95ER3DO2Wczbdo0NSkDvoacfIGapIaus3vnbn77m9/RMGoUQ4cOx9AtNm7YzA3X/6uctILuhes6kFOR0QyDpqYmbrzx5wweNJjt27dz6623EolEuOvOOxlx2ojQnXVcF8s0WbtuHb/69a+xbZsbb7wxDI/QJLHxnXfdxaLFi3jskUc5cuQIN910E60H9lNcUcFvf/sbZp03q9eKXzQa5cUXXuS+P/0JkZfHtT/4AY2jGshms+zbt49//8UvONLaSnFJKZ4iLQZpgAIZTV3Xqezbl6Zx46is6suuXbu45ZZbOdrSDLrOnXffw5kzz+x1Z21vb2fu3Ln87f77wXX5zc03SwazXl+sRN2+v+V9/uOmm0gnkxi6EfanaH43EF9oGgX5hZw3axY/vv56SoqLu8Wwg3MRhHXBRtNLVS/3xx8yV4O72r93L//xu99x3qzz+MUv/51EXMmLqPtevWoV373mGjzPY/jw4Tz66KOSpU/9Xtc0dmzfzi233EJxcTETJ02SIL3jvAjJEpjPWwsWcMdtt3HtD3/IaSNGYJkWBw7s46knnmB0QyOTJ08iKzw001CggBxcUXjdMrTpaVwEK1au5PXXX+dPf7otVAvINbr/4NCmZ8LPF8FizfVI/mdeSW+duLlp4VzD5eHhmAYZTWAKgSN6Fph7uxQhJP3eY489huM4fPGLXyIaidKV7ELXdaKxGHV1tVx++ddJJOISmh2LY2ezKuSR2jl5+fkMGFBPLBbj0ksvZeOGDTz+6KP86fbb+c///E/y8vIAiEYj7Ni+g9tu+yMtLS3ccMMNzJgxQ7KO2TYYBkdaWli/bh0jho+gvKKCjs5OefFCcLS1lWXLlnHGGWeE8PZgyESaxosvvYRWUBD218jci+QX8TyP2roBXHfttRQUFIRhQgAeCyDksViM8vJyNE0LoeIgwHV58cUXaBzd2GN3DcLC5pYWNm7ciB6J4CaTp7SpCMDOZKiqquIH3/8+hQWF0rtRxjeVTvPOsmU8/+zzPPLAAyTy8rjhhht6NFX+PZvXCWoBdKeR8KF//2oKCvNZv+49jrS2UjSgIEyEA2zasBHHzjJk6BA2b9rEnt27GTJ4CI4rIfd2OsPOHTvoaGvjwgsvlBSMvSzbbDZLMtnFxIkTSV11FaNHjyYvLw9N13nyiSe58847+cPvfy/xSbpOVsmuhnkc/+Q5d9M0+dGPfsjChQu4//4H+PnPf0ZBQWGPYzQ+QkT8FJ7n3z2C/IGuS3U6fGQizlMPJ5XGzti4SrAoPy+vh4g1HTtMSQAAIABJREFUyPxC0LkZi8WkBsmxY3R1dZGXn0+ioAAzYklvQMWGQtPQDYNUJkPGznDkyFEiEYt4foIMPlmF2nSQhkj7iHjw/fc388orr3DxxRdTXd1fkgFrulL10ygrLePMGWdSXl4exrm5qEpdD3hbfTLpDLFIjOuuvY61a95jyaLF3H/v/Xzve99VLqnB448+zoplK/jCF/6Zi/7pImKRmJwUpmy427F9JwcPHOLrX7ucqGXhOQ6e4xDPzycvL4+lS96mo71doWuDXVbGzqtWr+Lg3r1U19ayb+/enHcVhC0axUVFjBkzhqp+/UI9lqBz1nVdIpGIjOkdB1/toI7rEMvPwzQt1q5dSyqdJidoxMlmMS2Lffv2sXv3biorK9m3fXtoYHLxNccPT+UP8hJ5TJ06lYqKPggRSLdKmP1ZZ51NTf8abrnlFha8+SaXf+1r9KuqkveGwDCNEGkaqjIqjhFPzT91cPiZpmkQjcbo6OhA0zSSqSQRK4JhyvChb99KBg8axOo1q9m/fx/19fXgy7xb1rZZt24tJaXFfOmLl/Lrn/6UV155mYH1A8IEdyaT4r331uL5HsOGDSMej2Pbtny+rouuaViRCC0tLRimyfjx45kyZQoCyZ4mhdN0MoobpaiohGOd7WF1RnrJPromsExJDdnW3k4kGpWUG5oW3rLvwxVXXMHvf/8HZs48kwsuuIBstmeeTSPXCeg5ej69sMR5ssLbqQ/ZKi7P5LoSXq3pBps+2MzWrdvZsXMXHR0dCCGIx+JUVVUxfPhwBg6slxlsH7Zt386hQ83k5ecxdMhQVq1axZq1a0mmkhSWFFNdW8vIhgb6lJfLRj3HAc/jQGsry1euYMfOnXR0dFBUXMzg4UPosm0c5d55QoLjtQ+5V8syOXLkKM8++xyGrjNj2vSQZwJk4lA2YgnVLOXKBjjfUzkPH9/1cBTtne/7aEKSTZeVlHHdtdfxs5/9jHvvuYcxo0dz+qTTeWjOQ9x///1MmDCBb131LUqKi0mlJH2ChsDNumzauBF8OP+z56NrOulUms7OTvLy4gwfOpTVa9awcf0Gpk6bBvSsiDw9bx6FxSWMHz8+NCS5DG6O8qRC/lBlyINzGErOImPbyp+UicNUMkn//v3p168f7y5bztq1a+nbt294XtOysG2bhQsXAjBp0iSe3L4d13UxDUM25X3I8JGNhzKkEepZBjNUGjnD0Jl13rn8+b/uYN+ePXS0tYMyJJ7nkklm2Lx5Mxs2bMBW4dro0aMZMngIBQUFipZBCpJ1dXVx6NAhtmx5n0OHmgGf4SNGUFdbx7yn5lFeXs60aVMpyC9g7NixrF2zht07d6FNnYrrSyb3PXt2s2njRsaNGU1T03gS5WW8t3YtqZRksXcch2QqSUtLM30qKjjttNPI2DYvvvgiHe3tnHHmmSxfvpy2tjYKCwo4b9YstmzZwsKFC5k4cSKjGxt59bVXWbR4MWYsJom+jh1j5tlnUVhcDAi6ujrZt2cPO7ZtJ51KoflQ1a+K+oGDiCfyiCmyo6D9Y9y48ZimyfPPv8D4ceMpLav4yDUejNAjyd11ECK0aP+TESJIfdQ5fTZs3MBrb77FoeYWMrbs4sQHw2zjYHMz+w8dxMOnfuBAANauW8fyFSsAmDp1KuvXr6f18GEMy+LgsaPsPHiAfYcOMfPMM6mu6ofQdPbu38f8N15n244dYfNV67Gj7G05SGlZGY7v4fthh82HXr9tZ2luPsRrr73GmFGjGFBXB74s55qGGSYDhaZKnq604KF2So5hDlxeyQsiCZhnzjyTiy76PPfddht//ONtpK5K8ec//5mysnKuuOIK6urq6OjokH+jHqjne6xatZq6ujrKyspIpbpIJruIRaP0q+rH9OnTWbd+PUvfeYep06YRED1FY1EOHjjIyhUrGTF8GOPHjeOZp58O34/arJVCXndI2gOrog4OdkvHdTAVwtJULf1TpkxlyZIlvL1kCbNmzZLn9zziiQQtLS0sWLCAiRMmhHmRbpb8k80jadQC4xyMICz1XJesbUv2fcsiHo0Sj8fC4w63tnLvvfcyb97TJFPJUPy9oKCAc889l9mzZ9OnTx9Aqu+9/vrrzJkzhy0fbCEejyOEoKO9g0sv/Wcee+xxJkxoomn8eGJWhGGDh6Brgh3bt2ErESzdMNm8cSNHjxxh6pSp9Kvqx5DBg9m6bSsHDx2irrYWz5PSGC3NzZRXVFBeXkZnRwePPPwwO3buZMHChbz+6qsUFBVRWVnJgPp6Fi1cyB9vvYUf/Ph6ysrKmDPnIT744ANcz2XR0rdZu2E9I0aNoqi4GA149NFHmfvQQ7QeaiZimiEMYOrUaXz1a1+nYdQoTNNCCI2opVNWVsbkyZN555132LZt299nSD6N4altQ2brNbpSKVatXsPRo8dIpdMMHjKcwsIiDMNg06ZNpFIpdu/dx/6Dh6gdMBDf97EdDzTZeLZi5WoGDx7MmHHjOdTayuYPPiCVttm2cxcjDrXQv181R9uOsmLVat5//wMMTaOkqIiB9fVYkQibd2yl5chhbNclZnz0rXuex8KFi2jZu5cJV84mX+UxBDKnEJTqWltaaTvWRldXUlIOaD3xHpqmU1hQQCQaJZu1JY2BMtbf//4P2Lt3H/Nfeok//OcfaG1t4cc/vp7x48aTyWTU+bQQiNbaepgVK1Zw9dXfCj2HWCym4Pc+Q4cOZ2D9IFavWkNLcyv9+/dXpVbBu+8u48DBg1x22Zd7UBIKVWYVQlBUVERHRwethw8TiUbCCknY4q9K0fFEQoahKg7XFefHtGlTefTRR3jt1Ve59fe/lwQ/jvRyVq5YQUtLC01NTd0eyCk4vrLcLUMT27YlabaveqU8idVIplI89thjtB5uZdq06ZSWlqAhaG1p4U9/vI3HHnuUKVOm8qUvfYl8hTb+698e5K8P/pW2tmP8/vd/wHUdtm3byp///GdaWpq57LLLmDlzJulUivnz5/P008+Q6mgnnc6gG5KJbOiwYRQWFvH++1s4ePAQxcVFFBdHeeutt9B1nTFjxlCQn09lZV+279jBgf376d+vH5FIhPc3b2b/gQN8+cyZFBUV09bWhuO6NH/wAasdh1/95jcyPBPQ2NjIihUrwJbUnRUVFfzi3/6NO/7rdl5+/HG++o0rOf3006nu1w9daDxw3/3c9sf/x5AhQ/jmN66ksqICASxavJinn3mWPXv2ctuf/kRVVZXUWhKCWDTKsGFDeWbePDa//z5TpkzDViXrjxqfqiEJ0kaSB0JOwvKKPviaTAiddc4siktKaG9vxxWwdOk7SuAHdFNKGmQ9j6wnO35HDhvKmWfOpLJvJUfb2th7z910HT6MJwTprA26xrFjbezbtx8BxCJRZkyeytgxY0DAkH1DePqVFzl67NgpXX82m2XRooUYiQT5+fmSAMiXvKFu1pHs9Z7P1q1b+fq/XI6hGxiGJH4OQGEgyXx+/vOfM3bsGOnB6JImQNcNTNPkiiuuYNWqVezatIkzz7+Az3/+nxCalHAwTZMAGyiE4K233sS2bRoaGkNQV0De7HoefftWMXLUKB555BFWrFhBXV1diAlZsuRtysrKmDVrFm+99Vb3ewqAeQiyWYeDBw7yw+uuw/U8ksmkMiTy97ZtU1JSwtVXX83nP/9P+F63xyI0jXg8wVlnncV9t9/OK6+8zDnnnIvrGNiZDKtWr6ampobBQ4awYcOGU55HvjIau3bv4sEHHyQeVEeUUUsmk6xcuZJt27YxZNBgvvvtqykuKsS2s6zfsI4lixcxdcoUfvXrX1FTUxuSHA0eOpSWlhZWrV7N1q0fUFtby8svv8zOnTv4yle+yve++10SiTwSiTgTJkygK5nkuaefCT1t13Xp378f48aNZe3a92huPsjQIYPZsXMHW7d+wGmnDadv3z5Eohaf/ewsXnrxeRYtWsj0GdPwPZ+VK1fiui4jRowgm82gCUjE42CaXHLJJVx++eXSy1HsdtlsFjSFqdE1hg4bSl1dHWiChoYGzjprJi0tLWzfvp15856itqaWX/zbvzF2zFhcx0HzYdy4cXi+z8MPP8qihQu56OKLicVi+L7koxk+fASJ/HyWLl3KZV/6MoZ5aibiUzMkgXaKoVTXQBBPxBkzbiwukHVd8vILaT58mJbWVtqSXegRU7qprqQYcoEsHlnh43gOffv3p6yiAk8IEgUF1A8ezIGjR8DQ0UwTwzA4fOQIh48eRbMs4iVF1A8aiHA9EvE4A+vqKSstY9/BA+AGOINclEPPkUql6OzsorCggOKSkjCU0VTo4rsunuNQUl7G4EGDQnIf2WrefZ5EIo7jOJiGGQK5BBouMoxob2+nq6sTIlGOHj3KoYOHaGhsxM5kZKu+p6EZOr7nSTHwuloqK/vgZLOhip9EUcr8TWNDA8888wzLly+nqWkC/fv3o7W1hXXr1jG6cTTV1f0Vh+uJI51Ok0gkqOrXj1gsBr4vyYRcSSTkOg6FhYXkJRKS8MfSeshzFhUVMqqhAbOomJdffIkzzziTdCbDkcOH2bhhA0OGDKF+wABWr1r1EfMnZwgJRksfPcbcuQ9LFjQEdjoN6TS4LkX9+nHhhRdy1owzGD16DKkuqVOzatUqdu/YzvQZ0+ns7GT58mWhZ6UZBoMGD+K5Z59l0aKFlJZexNJ3llJcXMzFF19ESWkJTjbL0WNHKSoq4guXXMybb7wh0aRAJGLhug719QN5/fU3OHBgP8lUFwcPHuTwkcOMHHkahYWF4PuMahhFaXkZGzZu4PDhVjRNZ9v2bZSWllJbW4PnedhZW4IE4zGmTp1COpXCtiVALD8/n2RXJ9gZxeoniEWi5CUSEIkSiVgku5IUFBSyZcsWPvjgAyZMaCIakTrDjiJViicS1NbUkkgkeO311znzzJlh1U1ogj59KqioKFc6Ru2UlZefEhr4U/VINLWVBgQ5AYx5165dHGhuZs++g+zZu5eOZBLDMknZGcmrakhXyxOQFWBrAsswMGNRfEXj7/geWc/F8VwcpSXihAbIxxY+yYiBHotSmJeHrwhxKsor5O7uy4y/5gewpRMfluNkOXLkCELXpYyA64Txtaag3QhBdXUNv/rlr4jF4+HfBpgSuXsY5OXl4Sh5RteR2jmek2X3rt3cdttt6LrBxMmn8+4773L7HXdwyy23UFRUpLSDCcWu1q9fz6hRo0gkErJqpIS9NBUqRaIRGhoaqOrbl2XLlnH55f+CrhssWryYD7Z+wOzZszFNKySjhqBiI5nVHCdLdb/+/PKXv6SsrCwkzQlYz3Inla5QtEIIqTLnSUGvyaefzsBBA3nvvfc4eOAgpeVlLFu+nJ27dvFPn/88fav6npRm0oceWAeBJE3qW1fHtddeS1GRrAft2rWTZ+Y9zYb165nQNIHZV15JbU0NvisrLseOtXHo4EFwHJ595hmee+5ZLMtS5EganoD2tnb8dIqDhw6SyaQ4criVWCxKnz7lJLu6pGKhZaJpUF1TTTQWQeCj6ZLt33V9Rjc2ommCd955l/PPP5+NGzfQ2tpKU1MTliUpMWuqqxk9upE1a9Zy8MBBurq62LFjBxOamhg4cKBSDoB0OkVBYT55eXGcbAbLNDANQ5JvKci2JiRHjpPNyBK+65JKpfF8H0MIDh48hN/VxYply/nm7NmYpklKeZaO49HW3oHf3kaH4pHNLTjH4wmaW1rRdUMC6QK9nIBb9kPGp2ZIAvCL58kch+/7dHZ1suTdZax67z2OdnTgoVFYVMyAyj4kMxn27t4j422tm6jWR/bAuAH4yA+alCQRjeNK7VkXXy0OBezyfVxNw9OEZPjyZM+B67mSbvH4amPQUJN7D0LHR+B5kHVcdN1UVILBHWpomoGuS0Rhfl5eWNFxPUmtGBieAELtA76Ct7e3t3PPvfeycflyvvqtb3HhhRfyne98h4ULF/LXv/6V6667Ds+TYUssFmXH9u3s2bOX2bO/SVFRcZgYD758JPVknz59GDt2HHPmzGHHjh3U1dUx/5VXyM/LZ/DgwWQy6RN2me5ksKQuLC0tobCgIDQgQek0BJn5fghWC4Bfwgc3m6WouIhBAwexYMECVq1aybmzzmPlypVomsbw4cMB0UOE+6OGjwwzCwoKmDRpEuXl5QCcccYMZkyfwY0/+xnzX36J/IIEP/3Xn1BcWIjnZLF0QcTUMeMxZkyfSl1tLYYVQdMlOZHre0RjMSzLYuRpI6X4NoDnhnQTvfmrsnYgVNnYpLqmhrraOjZsXM/+/ftYs2YVJcVFjG8aRyQqkazJjg6mTp3C6y+9yOo1qyguLqa5uZlRo0bJKo6XVSFT9ycFYWvQUqGqFkHdKiTZJud6AglUhGDUqAamTZsq15MCV3kqTIxEItTW1hGLxUJGufBz1Xv2VB4wYMg72fgUPRL1FnzJo+oLjebmZt577z2OHDmKZppc/vXLySsowIxEeH3BW+zetQuhB3LEx0307mJfdy9A8H3OMfn5+VLG0/ZJZ20c38fT5CLrTCZpbmnFcTx0T51HBN5J9/fhHQiBrulhOOO6XtgXHSSgQjdZ04lGu1+K5itaRE3DcyXtYUCtmIgnyGRs7r/vARYuXMSwceO55jvX0KdPJT/5yU/55S9/ycMPP0Jj42jOOGMGjuOSTmfYuGkTRUXFjB49JsR8hA19yIkWj8eJJxKMHz+OeU/PY9myd6mrq2P16tUMHTaU/v37hbD3Hs9XVZaEwlm0t3dQXl4R5hOCjH+uIfE8D0/lacLzqFLily+7jOefepJly5bR2NjIurVrmTZlCtXV1SH37KnPJHlvWSerFosT3nv/fv344Q9/xPe+/z1eeOFFBtUP5NvfuprOjg50TcpmZLNZxjSO4crZs3F9j3RGClRpuk4kEiGZTFJSUsL7m99HExrt7e2yrO/L+4lEo3iOS7KzE9fOqiY5uZx13aCgoIDaulrWrVvLhg0bWbduAw0NjZSXVdDV2UXGtjFMk2HDhqNFpdBZIpEgYkU4beRIVeETOV9yBMajJ+u/+rf6ebAuNBTznwq58aGyTyXXXfdDWb53XUm6pDSTkqmUTNJrOo6T7Qbzim6KyogVkSkK1z2pBxl8/qcyQouZ08Fq2zbpdFol5nTq6+spKyvDtm2aDx3CztiKoNbrxj6or8B9FznnP36X8IGS0lIVErgcPnqUFWtX4+oajhAcam2htfUwGvIlSe1fCVXOfY3BZ8SiMQoKCqQ31dkVCo0D4YIKqi+mYWJZEQINYVnlCIS0dQxdVl881yOVzvDSyy/zxFPzaO/o5NprryORL6s655x7HhdffAmtBw5y9933sGfvXlkqTKVYvWYNDQ0NVFfXSD2fXkrXqZSUCx05chR9KytZsuRtFi5cyO7du7nsS5cRi8VPWtcPdGg83yOTyZBMpbBtKQjV1dlJR3s7He3ttLe3h+/VV9iJcCdzPSaMH0+iuJglixezds0ajh49yqSJkyjMLwiTpKc6BCB02Y8ku631sCUBIRhx2gguvfRS0sfaePTRx3h3+XLyCgvRDJM+VVVYkSjLli/nWFsbum4Qj8ewrAimYfLa/FeZ87c5rF+3nqLCQoYNG4bveWzatIl4PI6uaXS2S6O0Yf0GOjrau+eImgyRaIRBgwfT2ZVk+YoV7N2/n8bRo4nG4jiuh2laRKMx6uoGUFpaxrat29i8+X3q6uqoqa4mEon0+i4DQGdvzY89hicXu6lQ1KWlpWixGFs+2ML2bbIs7ToOjpMFXyZ55z70EKtWrsJxJFAwGJlMGoQk5YonEicFCuaOT7VNUlYm9BxchZTIDEqIf33grzz00EM8+cQT7Nyxk2g0Gv4+l4RQQ2nSqJyLgJDINoDAB19WNEqfykp8z+PI4SMsWryEvz3yMI/Me5JnX3qRro4OYqYZ6t1Io+KH5801JJqukZeXwM5kaGtvO2mc6Pm+hMV70gh6ik096BKVeQ4fwzTZuXMn999/P4ebm/n65ZczZvw4NEOnK5XEikT40pe/TPWggby79G2efOophKHT3NLMth3bGT1mtFxMvbScK9gb6UyGsvIypkydyoGDB3jyqScpKS3l9NMnfag3F94HkmbB82VfTky5/tFojFg8TiIvj0Qij7y8fAU0VG6vCn08z8e0LOKJBF//2tc5fOQI99xzL3l5eTSObjyxiSy4jl4WSxAOCiGNvaY6ZzXlaSAEhmWimwaXXXYZTdOmsXPrVu6+9146u7pw8Bk+ciRllX1Y9PbbzJk7l86uLkWO7bNixQp+/Zvf8F9//i8OHTpESWkps2bNQmgaDz30EPv370fXDaKxGJs2bWLu3Lk46Uw4Q4K5p5smDaNHk1eQz3MvvIBmGIxqbJQawEi8i+O6xGNxxowZwwdbt7Jy5UoGDxlCLB4/Ac0NAaF3d8gZPKfcp9f9yKSxkdy1MGL4CMaOHceO7dv585//m7ZjbcQiUaKRKFu3buX22+/g5ptvYfHiRXR0dJAJdZcER48cxXVcysvLQ02jUwGUfcrlX7nwXdfFiESpqOhDdf/+tG1+H8s02bb1AwzTIhKNUNevH4cONeM6WVqaW+jo6JBcG65PFI24ZeFlsriZrMRWeBJN6Xqy67arowPwKSoqZPKk0+ns6mLD5k0cO9TMe8k0lqHj+bJ6YyqEZNTQMIR0X7XjXpOGzMqff/5neWfxIhYuXsjESROkDIMuqW7jeXkYlsWOnTv53ve+RzabDSUdepRthCA/P59Lv/hFhg4byh//dBvLFy9i1sUX881vfpNoNCLRsZ5MeNYPHMDvfvdbrv721dz/wP2yeuA4OFmHM848AzNq4mQdZbBc8gsLMSLRUK5DNwx8YMLEiTw0dy6bNm/mO9dcQyI/n0g0RjbrEInF8X2BppsITacgvxDTtMhL5HPgQDPf+c53KSjIV4Aluj3LnNv69tVXM23aNAnu82SoZRgmmtBJp23OOfdcHnp4LuvWrOaKb36T8ooK0pmMKmkLzLy88J4ty6K9vZ2LLrmYPXv2cMutt3Lh5z6Hh0skGkMzDKVnK8vnnif5VjwfDNOitq6OX//mN1w5ezaLlizh7vvu47prr+Wsc84mlU7z21//mlt/fysvvTKfQYMG0drayuK33sKMxbjmmmsYM3Y8yVSGz55/ITt37+GOO+5g4umTmT59OvF4nAULFlBdXY2wovhKPNRXs0bXNKqqqigpK2fH2vcY3NRE7YB6HM9HM0yJZvYhlshjyrTpvPraGwCMGz8eKxqlM5kkEomSSWcoLi5B1wxJCWCYofg5mo4ViYFuIISOphlksw5VVf3RYwmuv/5fmfO3ufzoh9cxdsxYbr7pZq6//sc89chjvL34bcaNHYvQBG+8+SbpVIrzzpvF5y/8PPlxuSGYRoRkKsnbi98mm7aZNm268pTkC/8ov+RTb9rzFbeb73mUlpQw67zz6Ne/hqXLlqPFE1hWhJGjRjF8+DDmz5/Prl276Th2DM/OYkYiFCXyMHyw0CjMy0P3QbgulhAUxxOUJwpkotOKYgodJ2PTt7yCC8+bRXWfSjZt2kSyK0lhYQHDhw5BeB7rVq/GAcoKChGuJCqSLN89czO6rjNhQhNVNTWsWrWKo8eOUphfGBrodDpFWVkZLS3NrFu/XsH6/VAJzg/Po1FWVkZ7RzuvvDKfxYuXMKihgW9f/W3yC/LBJ6w+abqOpmuMaxrPl758GfPnv8qzzz1HYWEhfftVUVBYSDqVltl2oeM4svelqm9f8vISMjGmjMnYsWOZPGUKW7ZsoampKYyNdd0gv6CAftXVmJZFZ1eSaCSCaUUoKyunubmZtrZjtLS0SMmKHghXwma2vXv3kk6niUWj1A8YQJ8+laHH4AN1dXU0jGpg166dTJ06VU5MIWSuQ0A0FsOwLKnxrNC7FRV9sLNZIpbUr9FNg3giTnV1Nfn5+cqASPkQzwPPdzF0nc5kF1X9+vG5z13I448/weLFi/nc5y6krm4AM86YQf9+d/Lsc8/x8kuv8MYbb6BpOuedfwGXX345I0eehqZrOK5LIhHny1/+MkVFRcybN4/Vq9dQVFTE5Zf/C1OnTuWa716jJDaDGS4XWZ/KSkY1NNLc0sq48U3kFxbKpC7Su5atBlA/aBBV1f1JJBIMV5/r+T62k8X1faxIhIKiIiKxWKgA4HkedsamuKSE8tpaCvILsKwI2azN9GnTuOqqq3j++RfYu3cvu3buYsSw4dTW1HDTTf8fLzz/PC+88AIrVq7E933GjxvPBeefz8yZMykuKQkT6el0mva2NtasWUv/6mrGjxsfSqKcikcifnnTH/zZ37qarnQWoRtSIEtdvDiBiPLjUS0KEZRJpeaHdJml2FVbRyfFxaXYto1ty53c8z2crCNFjyJRpTkiyVkymTSlxSWSecuV5V9hGjhIHIYuNKKRCPn5eaSSKSktqWkca2vDMqW4VCIRw8tm8bMOmuei+T75eQkEkPXc8P66DYCB47jcfsftPPnkk/zut79l+rQZ6EIPF1Yy2UVAZSeU8TneTdc0jVQqRX5BAalkinQ6TWVlH1LptNyRkW48vq8EpJywE1cSzXhEozEsy5RYFdfrDheVt5BJp3FcWdkIuj5dzyOdTmGZEr4uG70cLNOio6MDhCBiReR5DYOuzi6ytk00GlGNiTLP43teKGkRzCnhS8xJfn4+hmmSTqXIZrPk5+d3J2Q1sO0MmYyNYcq5ZZmmxMQgQ710Oo1lmZJEyTTo6uyUZWXTxEN2Q3e0t0sQoOsSi8fDruWA8CkSichmN9NCCMGhQweJxeJEIlbI4CZlKzTSyTSW6hcyDFOKq6vXlcmkSacz2LZNUVERsViUQ4cOIYQgGo2yZs0arr762zQ1jecvf/kLkUgE3TRIpaVGUZdqnkulUpSWlqpQr1tIXVPX0JWUCGjbtslLJMgqwS9DiacZhoH+NVmbAAAHo0lEQVRpWt3dyzlhM75PQUEB7W3tWJYVaiBrmtQccrJZlczPUFhQgA90dnRgGlLGwjCkzKpQfCWoeZJ1HbZs+YBrr72WiZMmcsNPfkJcwRl6C4GPH59e+VdVq7JZRwGWtNDd1zWNksIifNfF1DSMiKVg4wYEiR/fQ0dIvRPNx4hESXV2YukGugDh+3h2lqimEYnnyZ4Lz8PrSqFnswhXCjMXmBKNGrMi4Eh2MN8AQ7ek6BU+juee8KCChWpZFuecfTZPz3uapUvfYWLTJNnshKS8kwLbXk483zPzHoz8fBN8KcQdiUbIZOwwEx4ytItA4Er2lOi6LoW7w9AiYDgTOSVZWS6PJxII4XeXmEGpzSXCa5CTyEQgKC4u7pms9nzi8RgiEVd4lKjsrj3JbhTgZjy1k0ZisR75Dt/1VHJTTjOje12EJdRYTPXECClGHo1298gIAZmMrVQDgz+WZXkAXcjPymSyCKGRzUpBq/LyPmFOTiaCA50cqZEs8DEMM7yWYMNzXZd58+bx4osv8qMf/YipU6dQWlomsT+uw6JFi0inU0yePJn8/HxJ3OQLBFJYLkhkx0LkLQi0Hht6eBxgmhY+SES0Lq/HSJjB4+hevUKEapL4PulUCsuS4aHjOKEWczyRCL1F0zRx1TNIJBI9yti+et8iPL3EOi1dupS29jbOPvts8lTYearj00O2hmsjKI8KdKGFi0YpcoT/aWES7riJq8INYQg8T+A5kl5f9xUfhasAbwqC7zsOlgCNXOJbJfqlLszXAA1c0bM61OP6kaQ6mUyGwYOHMHPmTBYsWMCsc89lzJgxBPprmq4rZbmginLy/HXgFMv2ey94SDnPTRlbXe9++X7AB+oHD4TA45TeTG4t66NHb8fIHUqEqFGpghdo+eYcl/PHuecJVOpOykP7ERcVgtCOO4EIbrS36w4qRTnGXEqcGgpk54el5iBleXxeN3DfTdMiErFYv2E9t956C4cPX0nfvpW0t7ezes0aHnzwQUaNauCSS75Ad/9J7xcW/vRUylO9GeteX1KgwpdzWOAhBn8S/qP3U4lefi40jcMtzTz33HOcNXMmU6dOPYWL7jk+3RyJyrbLHcjr3op8F4QXlgEFKKk40eOhyg23exvTNPB0IevaonvWeb6LcINJFfxttxavXG2qVKk+w8PHVe398pgT35yma+GWddllX6T1cMv/394ZLLUNA2F4JZzAAY6lHWYKnBjKwIlTemCm7ZG+AL1RBh6CPkt5CPoA9F2YKY9AhxCrh5Vk2VawHNnGTv/vkkmsWIotr3ZXm126+31Huzs7tL6xka0S+snmGic+Kc6/0iZwpkxgZAl4885eYy6ZcWXtPeLCjn2hRzg7DWU1hQVRrk5u7td4ulEmVUJk/6bv0ufOA+PrxI00FoKjn8kIkartU+JcLePxiE5OTuji+wXd/rql6x/XNnxcCkmTyUc6Pz+nzc03HKwlJfdjTZDYK1AalpULblJrQ24uiawkR1UJIFkY4t/HR7r5eUPJKKGzs28shPWzVHnpNO0KEkWlPXBpBYXyCOKCNeY4epRiDYFXF2GzaLuzLncTlXOD9exTqeL8C3p1F7YT/9gVccHxFSlpd3eHri4v6eHPg93W5rqy2cM3n7LGUPSjVPmzfCZGM+KjcE53q9G3Jav8/c0dg6g4Hjqu8ikrx2AytBfblC+lsHfm/fY2XV5d0eHRId3f39ti6VtbW3R8fExv375jn98zB/U9z2Y2WC/1DWJBtO6ZP50ofCLy7UO6N0LZzf42fZ7S/v4+TSYTOjj4wO10LWlBYaLxFZI/17vSbrSpUlygWup/oroJeUpnFR4zg0MVs7cBQ00dB/Pe3h4dHR7ROBnRk3b66qW7zg8Kbztw0soL3D2Fpap8XKW0vrFOn758piQZaZ8Ub8GOkoSd4XrbfWYWsy5xNQ/zkfM+pACW9QsRPxJra2t0+vWUwxdMRjzTMJBXK0dRC+tvkTry0qzQMrfiVN3UXKRxzb55N4ZXuakTmCZbn0jFqe935oJmMNa3lCs2JaN5fZpOKdGmjNGIi6bpEDBlRmekTWW9SzteXbVF45Vxx/XCtGkYV1C4PoP2O+aaIUJoU00HQwkpKCTpyzKhSvr2HAYs67L/E5UO6PufasfncFGOGqOEoJVRwgF+xgVA9ZTnQQkSohd8BS1PbqVFtCAdbZLqJM+tzia/Ih7v0Kv+/ot+iJjrWNGnKLz3tYnpK/T75t/Ocw7WGMXihI4/Z+rUnBqKiEga/05aPhbI4ARJGR2IH1CEdeE1RPH5jTAxu0vzHJLN8TpCxLRqWteqikoo7gbVKcztY97XmxID7gPcxiwIHb/duVkEn4a5wKmWQJAwLExa7GA4JjDoELtNP1QaGvzSCJIIfaMmTVz5YVjXMaYB6Ia+CLElEiRdEnP7hvMotm0agGbogzD5v7YcBkUfpgcAYUAj6Zy2XHPdMOzRY/xtAY0EABANBAkAIBrp95z5FKg+KlQAgD4gyaanNUWvzasrOPpqmQEA+kBm2uQSPUBoAADCgY8EABANBAkAIJok84uk+l9Sbm4mmDgAgGoKGgkEBwCgPjBtAADRQJAAAKKBIAEARPMPDbb8Ek0GD0UAAAAASUVORK5CYII=;" parent="1" vertex="1">
          <mxGeometry x="950" y="730" width="23.03" height="10" as="geometry" />
        </mxCell>
        <mxCell id="iTeA3gTID6XC6-GJMK1q-12" value="" style="endArrow=classic;html=1;rounded=0;fontSize=12;startSize=8;endSize=8;curved=0;entryX=1;entryY=0.5;entryDx=0;entryDy=0;fillColor=#1ba1e2;strokeColor=#006EAF;" parent="1" target="AOtOt-XeIziq4LyHe5DE-105" edge="1">
          <mxGeometry width="50" height="50" relative="1" as="geometry">
            <mxPoint x="1140" y="620" as="sourcePoint" />
            <mxPoint x="1140" y="692.782566236413" as="targetPoint" />
            <Array as="points">
              <mxPoint x="1140" y="765" />
            </Array>
          </mxGeometry>
        </mxCell>
        <mxCell id="iTeA3gTID6XC6-GJMK1q-18" value="" style="endArrow=classic;html=1;rounded=0;fontSize=12;startSize=8;endSize=8;curved=0;entryX=1;entryY=0.5;entryDx=0;entryDy=0;strokeColor=#333333;" parent="1" target="kHn4_M405axso_W69Q0X-47" edge="1">
          <mxGeometry width="50" height="50" relative="1" as="geometry">
            <mxPoint x="1060" y="880" as="sourcePoint" />
            <mxPoint x="1070" y="570" as="targetPoint" />
            <Array as="points">
              <mxPoint x="1060" y="750" />
            </Array>
          </mxGeometry>
        </mxCell>
        <mxCell id="iTeA3gTID6XC6-GJMK1q-25" value="&lt;font style=&quot;font-size: 8px;&quot;&gt;FW_B&lt;/font&gt;" style="shape=trapezoid;perimeter=trapezoidPerimeter;whiteSpace=wrap;html=1;fixedSize=1;rotation=-180;size=10;" parent="1" vertex="1">
          <mxGeometry x="780" y="360" width="50" height="10" as="geometry" />
        </mxCell>
        <mxCell id="iTeA3gTID6XC6-GJMK1q-26" value="&lt;font style=&quot;font-size: 8px;&quot;&gt;FW_A&lt;/font&gt;" style="shape=trapezoid;perimeter=trapezoidPerimeter;whiteSpace=wrap;html=1;fixedSize=1;rotation=0;size=10;" parent="1" vertex="1">
          <mxGeometry x="780" y="275" width="50" height="10" as="geometry" />
        </mxCell>
        <mxCell id="kHn4_M405axso_W69Q0X-3" style="edgeStyle=none;curved=1;rounded=0;orthogonalLoop=1;jettySize=auto;html=1;entryX=0;entryY=1;entryDx=0;entryDy=0;fontSize=12;startSize=8;endSize=8;fillColor=#008a00;strokeColor=#005700;" parent="1" source="iTeA3gTID6XC6-GJMK1q-29" target="kHn4_M405axso_W69Q0X-2" edge="1">
          <mxGeometry relative="1" as="geometry" />
        </mxCell>
        <mxCell id="iTeA3gTID6XC6-GJMK1q-29" value="" style="rounded=1;whiteSpace=wrap;html=1;" parent="1" vertex="1">
          <mxGeometry x="190" y="60" width="120" height="60" as="geometry" />
        </mxCell>
        <mxCell id="iTeA3gTID6XC6-GJMK1q-30" value="CTRL" style="rounded=0;whiteSpace=wrap;html=1;" parent="1" vertex="1">
          <mxGeometry x="270" y="70" width="40" height="20" as="geometry" />
        </mxCell>
        <mxCell id="kHn4_M405axso_W69Q0X-5" style="edgeStyle=none;curved=0;rounded=0;orthogonalLoop=1;jettySize=auto;html=1;entryX=0;entryY=0.5;entryDx=0;entryDy=0;fontSize=12;startSize=8;endSize=8;fillColor=#008a00;strokeColor=#005700;" parent="1" source="kHn4_M405axso_W69Q0X-1" target="AOtOt-XeIziq4LyHe5DE-36" edge="1">
          <mxGeometry relative="1" as="geometry">
            <Array as="points">
              <mxPoint x="500" y="100" />
              <mxPoint x="500" y="70" />
            </Array>
          </mxGeometry>
        </mxCell>
        <mxCell id="kHn4_M405axso_W69Q0X-6" style="edgeStyle=none;curved=0;rounded=0;orthogonalLoop=1;jettySize=auto;html=1;entryX=0;entryY=0.5;entryDx=0;entryDy=0;fontSize=12;startSize=8;endSize=8;fillColor=#008a00;strokeColor=#005700;" parent="1" source="kHn4_M405axso_W69Q0X-1" target="AOtOt-XeIziq4LyHe5DE-37" edge="1">
          <mxGeometry relative="1" as="geometry">
            <Array as="points">
              <mxPoint x="500" y="100" />
              <mxPoint x="500" y="90" />
            </Array>
          </mxGeometry>
        </mxCell>
        <mxCell id="kHn4_M405axso_W69Q0X-1" value="" style="shape=dataStorage;whiteSpace=wrap;html=1;fixedSize=1;flipV=1;flipH=1;size=10;" parent="1" vertex="1">
          <mxGeometry x="400" y="90" width="70" height="20" as="geometry" />
        </mxCell>
        <mxCell id="kHn4_M405axso_W69Q0X-2" value="&lt;font size=&quot;1&quot;&gt;&lt;b style=&quot;font-size: 8px;&quot;&gt;NOP&lt;/b&gt;&lt;/font&gt;" style="shape=trapezoid;perimeter=trapezoidPerimeter;whiteSpace=wrap;html=1;fixedSize=1;rotation=0;size=10;" parent="1" vertex="1">
          <mxGeometry x="400" y="80" width="60" height="10" as="geometry" />
        </mxCell>
        <mxCell id="kHn4_M405axso_W69Q0X-7" value="" style="endArrow=classic;html=1;rounded=0;fontSize=12;startSize=8;endSize=8;curved=0;exitX=1;exitY=0.5;exitDx=0;exitDy=0;entryX=0;entryY=0.5;entryDx=0;entryDy=0;fillColor=#008a00;strokeColor=#005700;" parent="1" source="kHn4_M405axso_W69Q0X-1" target="AOtOt-XeIziq4LyHe5DE-39" edge="1">
          <mxGeometry width="50" height="50" relative="1" as="geometry">
            <mxPoint x="530" y="180" as="sourcePoint" />
            <mxPoint x="580" y="130" as="targetPoint" />
            <Array as="points">
              <mxPoint x="500" y="100" />
              <mxPoint x="500" y="110" />
            </Array>
          </mxGeometry>
        </mxCell>
        <mxCell id="kHn4_M405axso_W69Q0X-8" value="" style="endArrow=classic;html=1;rounded=0;fontSize=12;startSize=8;endSize=8;curved=0;entryX=0;entryY=0.5;entryDx=0;entryDy=0;fillColor=#008a00;strokeColor=#005700;exitX=1;exitY=0.5;exitDx=0;exitDy=0;" parent="1" source="kHn4_M405axso_W69Q0X-1" target="AOtOt-XeIziq4LyHe5DE-53" edge="1">
          <mxGeometry width="50" height="50" relative="1" as="geometry">
            <mxPoint x="460" y="100" as="sourcePoint" />
            <mxPoint x="546" y="120" as="targetPoint" />
            <Array as="points">
              <mxPoint x="500" y="100" />
              <mxPoint x="500" y="130" />
            </Array>
          </mxGeometry>
        </mxCell>
        <mxCell id="kHn4_M405axso_W69Q0X-9" value="" style="endArrow=classic;html=1;rounded=0;fontSize=12;startSize=8;endSize=8;curved=0;entryX=0;entryY=0.5;entryDx=0;entryDy=0;exitX=1;exitY=0.5;exitDx=0;exitDy=0;fillColor=#008a00;strokeColor=#005700;" parent="1" source="kHn4_M405axso_W69Q0X-1" target="AOtOt-XeIziq4LyHe5DE-35" edge="1">
          <mxGeometry width="50" height="50" relative="1" as="geometry">
            <mxPoint x="470" y="110" as="sourcePoint" />
            <mxPoint x="546" y="140" as="targetPoint" />
            <Array as="points">
              <mxPoint x="500" y="100" />
              <mxPoint x="500" y="150" />
            </Array>
          </mxGeometry>
        </mxCell>
        <mxCell id="kHn4_M405axso_W69Q0X-12" value="" style="shape=dataStorage;whiteSpace=wrap;html=1;fixedSize=1;flipV=1;flipH=1;size=10;rotation=90;" parent="1" vertex="1">
          <mxGeometry x="85" y="60" width="70" height="20" as="geometry" />
        </mxCell>
        <mxCell id="kHn4_M405axso_W69Q0X-16" style="edgeStyle=none;curved=0;rounded=0;orthogonalLoop=1;jettySize=auto;html=1;entryX=0;entryY=1;entryDx=0;entryDy=0;fontSize=12;startSize=8;endSize=8;" parent="1" source="kHn4_M405axso_W69Q0X-15" target="kHn4_M405axso_W69Q0X-12" edge="1">
          <mxGeometry relative="1" as="geometry">
            <Array as="points">
              <mxPoint x="110" y="10" />
            </Array>
          </mxGeometry>
        </mxCell>
        <mxCell id="kHn4_M405axso_W69Q0X-15" value="&lt;font style=&quot;font-size: 8px;&quot;&gt;NEGD_CLK&lt;/font&gt;" style="rounded=0;whiteSpace=wrap;html=1;" parent="1" vertex="1">
          <mxGeometry x="35" y="5" width="50" height="10" as="geometry" />
        </mxCell>
        <mxCell id="kHn4_M405axso_W69Q0X-18" style="edgeStyle=none;curved=0;rounded=0;orthogonalLoop=1;jettySize=auto;html=1;entryX=0;entryY=0;entryDx=0;entryDy=0;fontSize=12;startSize=8;endSize=8;" parent="1" source="kHn4_M405axso_W69Q0X-17" target="kHn4_M405axso_W69Q0X-12" edge="1">
          <mxGeometry relative="1" as="geometry">
            <Array as="points">
              <mxPoint x="130" y="-15" />
            </Array>
          </mxGeometry>
        </mxCell>
        <mxCell id="kHn4_M405axso_W69Q0X-17" value="&lt;font style=&quot;font-size: 8px;&quot;&gt;LOGICAL_1&lt;/font&gt;" style="rounded=0;whiteSpace=wrap;html=1;" parent="1" vertex="1">
          <mxGeometry x="35" y="-20" width="50" height="10" as="geometry" />
        </mxCell>
        <mxCell id="kHn4_M405axso_W69Q0X-19" value="&lt;font size=&quot;1&quot;&gt;&lt;b style=&quot;font-size: 8px;&quot;&gt;IF/ID STALL&lt;/b&gt;&lt;/font&gt;" style="shape=trapezoid;perimeter=trapezoidPerimeter;whiteSpace=wrap;html=1;fixedSize=1;rotation=-90;size=10;" parent="1" vertex="1">
          <mxGeometry x="75" y="60" width="59" height="10" as="geometry" />
        </mxCell>
        <mxCell id="kHn4_M405axso_W69Q0X-22" style="edgeStyle=none;curved=1;rounded=0;orthogonalLoop=1;jettySize=auto;html=1;fontSize=12;startSize=8;endSize=8;" parent="1" source="kHn4_M405axso_W69Q0X-21" edge="1">
          <mxGeometry relative="1" as="geometry">
            <mxPoint x="566" y="660" as="targetPoint" />
          </mxGeometry>
        </mxCell>
        <mxCell id="kHn4_M405axso_W69Q0X-21" value="&lt;font style=&quot;font-size: 8px;&quot;&gt;NEGD_CLK&lt;/font&gt;" style="rounded=0;whiteSpace=wrap;html=1;" parent="1" vertex="1">
          <mxGeometry x="541" y="700" width="50" height="10" as="geometry" />
        </mxCell>
        <mxCell id="kHn4_M405axso_W69Q0X-24" style="edgeStyle=none;curved=1;rounded=0;orthogonalLoop=1;jettySize=auto;html=1;fontSize=12;startSize=8;endSize=8;" parent="1" source="kHn4_M405axso_W69Q0X-23" edge="1">
          <mxGeometry relative="1" as="geometry">
            <mxPoint x="1070" y="650" as="targetPoint" />
          </mxGeometry>
        </mxCell>
        <mxCell id="kHn4_M405axso_W69Q0X-23" value="&lt;font style=&quot;font-size: 8px;&quot;&gt;NEGD_CLK&lt;/font&gt;" style="rounded=0;whiteSpace=wrap;html=1;" parent="1" vertex="1">
          <mxGeometry x="1045" y="690" width="50" height="10" as="geometry" />
        </mxCell>
        <mxCell id="kHn4_M405axso_W69Q0X-26" style="edgeStyle=none;curved=1;rounded=0;orthogonalLoop=1;jettySize=auto;html=1;fontSize=12;startSize=8;endSize=8;" parent="1" source="kHn4_M405axso_W69Q0X-25" edge="1">
          <mxGeometry relative="1" as="geometry">
            <mxPoint x="1470" y="670" as="targetPoint" />
          </mxGeometry>
        </mxCell>
        <mxCell id="kHn4_M405axso_W69Q0X-25" value="&lt;font style=&quot;font-size: 8px;&quot;&gt;NEGD_CLK&lt;/font&gt;" style="rounded=0;whiteSpace=wrap;html=1;" parent="1" vertex="1">
          <mxGeometry x="1445" y="710" width="50" height="10" as="geometry" />
        </mxCell>
        <mxCell id="kHn4_M405axso_W69Q0X-28" style="edgeStyle=none;curved=1;rounded=0;orthogonalLoop=1;jettySize=auto;html=1;entryX=0;entryY=1;entryDx=0;entryDy=0;fontSize=12;startSize=8;endSize=8;" parent="1" source="kHn4_M405axso_W69Q0X-27" target="kHn4_M405axso_W69Q0X-1" edge="1">
          <mxGeometry relative="1" as="geometry" />
        </mxCell>
        <mxCell id="kHn4_M405axso_W69Q0X-27" value="0" style="rounded=0;whiteSpace=wrap;html=1;" parent="1" vertex="1">
          <mxGeometry x="370" y="105" width="10" height="10" as="geometry" />
        </mxCell>
        <mxCell id="kHn4_M405axso_W69Q0X-29" value="" style="endArrow=classic;html=1;rounded=0;fontSize=12;startSize=8;endSize=8;curved=0;entryX=1;entryY=0.25;entryDx=0;entryDy=0;fillColor=#008a00;strokeColor=#005700;" parent="1" target="AOtOt-XeIziq4LyHe5DE-50" edge="1">
          <mxGeometry width="50" height="50" relative="1" as="geometry">
            <mxPoint x="630" y="70" as="sourcePoint" />
            <mxPoint x="730" y="-10" as="targetPoint" />
            <Array as="points">
              <mxPoint x="630" y="-97" />
            </Array>
          </mxGeometry>
        </mxCell>
        <mxCell id="kHn4_M405axso_W69Q0X-37" value="" style="endArrow=classic;html=1;rounded=0;fontSize=12;startSize=8;endSize=8;curved=1;entryX=1;entryY=0.456;entryDx=0;entryDy=0;entryPerimeter=0;strokeColor=#006EAF;fillColor=#1ba1e2;" parent="1" target="AOtOt-XeIziq4LyHe5DE-50" edge="1">
          <mxGeometry width="50" height="50" relative="1" as="geometry">
            <mxPoint x="740" y="710" as="sourcePoint" />
            <mxPoint x="430" y="180" as="targetPoint" />
            <Array as="points">
              <mxPoint x="910" y="380" />
              <mxPoint x="750" y="-71" />
              <mxPoint x="610" y="-70" />
            </Array>
          </mxGeometry>
        </mxCell>
        <mxCell id="kHn4_M405axso_W69Q0X-39" style="edgeStyle=none;curved=0;rounded=0;orthogonalLoop=1;jettySize=auto;html=1;entryX=-0.001;entryY=0.617;entryDx=0;entryDy=0;entryPerimeter=0;fontSize=12;startSize=8;endSize=8;fillColor=#1ba1e2;strokeColor=#006EAF;" parent="1" source="AOtOt-XeIziq4LyHe5DE-9" target="AOtOt-XeIziq4LyHe5DE-50" edge="1">
          <mxGeometry relative="1" as="geometry">
            <Array as="points">
              <mxPoint x="160" y="300" />
              <mxPoint x="160" y="-50" />
            </Array>
          </mxGeometry>
        </mxCell>
        <mxCell id="kHn4_M405axso_W69Q0X-40" value="&lt;font style=&quot;font-size: 8px;&quot;&gt;ra_addr&lt;/font&gt;" style="rounded=0;whiteSpace=wrap;html=1;" parent="1" vertex="1">
          <mxGeometry x="195" y="-55" width="30" height="10" as="geometry" />
        </mxCell>
        <mxCell id="kHn4_M405axso_W69Q0X-41" value="&lt;font style=&quot;font-size: 8px;&quot;&gt;rb_addr&lt;/font&gt;" style="rounded=0;whiteSpace=wrap;html=1;" parent="1" vertex="1">
          <mxGeometry x="195" y="-38" width="30" height="10" as="geometry" />
        </mxCell>
        <mxCell id="kHn4_M405axso_W69Q0X-42" value="&lt;font style=&quot;font-size: 8px;&quot;&gt;rd_ex&lt;/font&gt;" style="rounded=0;whiteSpace=wrap;html=1;" parent="1" vertex="1">
          <mxGeometry x="285" y="-76" width="30" height="10" as="geometry" />
        </mxCell>
        <mxCell id="kHn4_M405axso_W69Q0X-43" value="&lt;font style=&quot;font-size: 8px;&quot;&gt;mem_read&lt;/font&gt;" style="rounded=0;whiteSpace=wrap;html=1;" parent="1" vertex="1">
          <mxGeometry x="270" y="-103" width="45" height="10" as="geometry" />
        </mxCell>
        <mxCell id="kHn4_M405axso_W69Q0X-44" value="&lt;font style=&quot;font-size: 8px;&quot;&gt;ra_addr&lt;/font&gt;" style="rounded=0;whiteSpace=wrap;html=1;" parent="1" vertex="1">
          <mxGeometry x="890" y="738" width="30" height="10" as="geometry" />
        </mxCell>
        <mxCell id="kHn4_M405axso_W69Q0X-45" value="&lt;font style=&quot;font-size: 8px;&quot;&gt;rb_addr&lt;/font&gt;" style="rounded=0;whiteSpace=wrap;html=1;" parent="1" vertex="1">
          <mxGeometry x="890" y="760" width="30" height="10" as="geometry" />
        </mxCell>
        <mxCell id="kHn4_M405axso_W69Q0X-46" value="&lt;font style=&quot;font-size: 8px;&quot;&gt;rd_data&lt;/font&gt;" style="rounded=0;whiteSpace=wrap;html=1;" parent="1" vertex="1">
          <mxGeometry x="980" y="760" width="30" height="10" as="geometry" />
        </mxCell>
        <mxCell id="kHn4_M405axso_W69Q0X-47" value="&lt;font style=&quot;font-size: 8px;&quot;&gt;rd_wb&lt;/font&gt;" style="rounded=0;whiteSpace=wrap;html=1;" parent="1" vertex="1">
          <mxGeometry x="980" y="745" width="30" height="10" as="geometry" />
        </mxCell>
        <mxCell id="kHn4_M405axso_W69Q0X-48" value="&lt;font style=&quot;font-size: 8px;&quot;&gt;regw_dt&lt;/font&gt;" style="rounded=0;whiteSpace=wrap;html=1;" parent="1" vertex="1">
          <mxGeometry x="980" y="732" width="30" height="10" as="geometry" />
        </mxCell>
        <mxCell id="kHn4_M405axso_W69Q0X-49" value="&lt;font style=&quot;font-size: 8px;&quot;&gt;regw_wb&lt;/font&gt;" style="rounded=0;whiteSpace=wrap;html=1;" parent="1" vertex="1">
          <mxGeometry x="980" y="783" width="30" height="10" as="geometry" />
        </mxCell>
        <mxCell id="kHn4_M405axso_W69Q0X-51" value="&lt;font style=&quot;font-size: 8px;&quot;&gt;&lt;b&gt;pc&lt;/b&gt;&lt;/font&gt;" style="rounded=0;whiteSpace=wrap;html=1;" parent="1" vertex="1">
          <mxGeometry x="305" y="220" width="35" height="10" as="geometry" />
        </mxCell>
        <mxCell id="kHn4_M405axso_W69Q0X-52" value="&lt;font style=&quot;font-size: 8px;&quot;&gt;&lt;b&gt;cpsr&lt;/b&gt;&lt;/font&gt;" style="rounded=0;whiteSpace=wrap;html=1;" parent="1" vertex="1">
          <mxGeometry x="305" y="230" width="35" height="10" as="geometry" />
        </mxCell>
        <mxCell id="kHn4_M405axso_W69Q0X-53" value="&lt;span style=&quot;font-size: 8px;&quot;&gt;&lt;b&gt;sp&lt;/b&gt;&lt;/span&gt;" style="rounded=0;whiteSpace=wrap;html=1;" parent="1" vertex="1">
          <mxGeometry x="305" y="240" width="35" height="10" as="geometry" />
        </mxCell>
        <mxCell id="kHn4_M405axso_W69Q0X-54" value="&lt;span style=&quot;font-size: 8px;&quot;&gt;&lt;b&gt;lr&lt;/b&gt;&lt;/span&gt;" style="rounded=0;whiteSpace=wrap;html=1;" parent="1" vertex="1">
          <mxGeometry x="305" y="250" width="35" height="10" as="geometry" />
        </mxCell>
        <mxCell id="kHn4_M405axso_W69Q0X-56" value="&lt;font style=&quot;font-size: 8px;&quot;&gt;&lt;b&gt;pc&lt;/b&gt;&lt;/font&gt;" style="rounded=0;whiteSpace=wrap;html=1;" parent="1" vertex="1">
          <mxGeometry x="-200" y="280" width="35" height="10" as="geometry" />
        </mxCell>
        <mxCell id="E23xJgEdby3LYfqKXK8S-1" style="edgeStyle=none;curved=1;rounded=0;orthogonalLoop=1;jettySize=auto;html=1;entryX=0;entryY=0.5;entryDx=0;entryDy=0;fontSize=12;startSize=8;endSize=8;exitX=1.005;exitY=0.669;exitDx=0;exitDy=0;exitPerimeter=0;fillColor=#1ba1e2;strokeColor=#006EAF;" parent="1" source="E23xJgEdby3LYfqKXK8S-2" target="E23xJgEdby3LYfqKXK8S-6" edge="1">
          <mxGeometry relative="1" as="geometry" />
        </mxCell>
        <mxCell id="E23xJgEdby3LYfqKXK8S-2" value="" style="rounded=1;whiteSpace=wrap;html=1;" parent="1" vertex="1">
          <mxGeometry x="-200" y="790" width="120" height="120" as="geometry" />
        </mxCell>
        <mxCell id="E23xJgEdby3LYfqKXK8S-3" value="INST&lt;div&gt;SECT&lt;/div&gt;" style="rounded=0;whiteSpace=wrap;html=1;" parent="1" vertex="1">
          <mxGeometry x="-140" y="810" width="60" height="40" as="geometry" />
        </mxCell>
        <mxCell id="E23xJgEdby3LYfqKXK8S-4" style="edgeStyle=none;curved=1;rounded=0;orthogonalLoop=1;jettySize=auto;html=1;exitX=0.5;exitY=1;exitDx=0;exitDy=0;fontSize=12;startSize=8;endSize=8;" parent="1" source="E23xJgEdby3LYfqKXK8S-2" target="E23xJgEdby3LYfqKXK8S-2" edge="1">
          <mxGeometry relative="1" as="geometry" />
        </mxCell>
        <mxCell id="E23xJgEdby3LYfqKXK8S-37" style="edgeStyle=orthogonalEdgeStyle;rounded=0;orthogonalLoop=1;jettySize=auto;html=1;entryX=0;entryY=0.5;entryDx=0;entryDy=0;fillColor=#d80073;strokeColor=#A50040;" parent="1" source="E23xJgEdby3LYfqKXK8S-6" target="E23xJgEdby3LYfqKXK8S-25" edge="1">
          <mxGeometry relative="1" as="geometry">
            <Array as="points">
              <mxPoint x="190" y="870" />
              <mxPoint x="190" y="975" />
            </Array>
          </mxGeometry>
        </mxCell>
        <mxCell id="E23xJgEdby3LYfqKXK8S-38" style="edgeStyle=orthogonalEdgeStyle;rounded=0;orthogonalLoop=1;jettySize=auto;html=1;entryX=0;entryY=0.5;entryDx=0;entryDy=0;fillColor=#d80073;strokeColor=#A50040;" parent="1" source="E23xJgEdby3LYfqKXK8S-6" target="E23xJgEdby3LYfqKXK8S-26" edge="1">
          <mxGeometry relative="1" as="geometry">
            <Array as="points">
              <mxPoint x="190" y="870" />
              <mxPoint x="190" y="1020" />
            </Array>
          </mxGeometry>
        </mxCell>
        <mxCell id="E23xJgEdby3LYfqKXK8S-49" style="edgeStyle=orthogonalEdgeStyle;rounded=0;orthogonalLoop=1;jettySize=auto;html=1;entryX=0;entryY=0.5;entryDx=0;entryDy=0;fillColor=#d80073;strokeColor=#A50040;" parent="1" source="E23xJgEdby3LYfqKXK8S-6" target="E23xJgEdby3LYfqKXK8S-48" edge="1">
          <mxGeometry relative="1" as="geometry">
            <Array as="points">
              <mxPoint x="190" y="870" />
              <mxPoint x="190" y="1130" />
            </Array>
          </mxGeometry>
        </mxCell>
        <mxCell id="E23xJgEdby3LYfqKXK8S-50" style="edgeStyle=orthogonalEdgeStyle;rounded=0;orthogonalLoop=1;jettySize=auto;html=1;entryX=0;entryY=0.5;entryDx=0;entryDy=0;fillColor=#d80073;strokeColor=#A50040;" parent="1" source="E23xJgEdby3LYfqKXK8S-6" target="E23xJgEdby3LYfqKXK8S-47" edge="1">
          <mxGeometry relative="1" as="geometry">
            <Array as="points">
              <mxPoint x="190" y="870" />
              <mxPoint x="190" y="1150" />
            </Array>
          </mxGeometry>
        </mxCell>
        <mxCell id="E23xJgEdby3LYfqKXK8S-84" style="edgeStyle=orthogonalEdgeStyle;rounded=0;orthogonalLoop=1;jettySize=auto;html=1;entryX=0;entryY=0.5;entryDx=0;entryDy=0;fillColor=#d80073;strokeColor=#A50040;" parent="1" source="E23xJgEdby3LYfqKXK8S-6" target="E23xJgEdby3LYfqKXK8S-82" edge="1">
          <mxGeometry relative="1" as="geometry">
            <Array as="points">
              <mxPoint x="190" y="870" />
              <mxPoint x="190" y="1199" />
            </Array>
          </mxGeometry>
        </mxCell>
        <mxCell id="Bdlb1lmYMD555LV4zm37-6" style="edgeStyle=orthogonalEdgeStyle;rounded=0;orthogonalLoop=1;jettySize=auto;html=1;entryX=0.5;entryY=0;entryDx=0;entryDy=0;fillColor=#d80073;strokeColor=#A50040;" edge="1" parent="1" source="E23xJgEdby3LYfqKXK8S-6" target="7UdGeY0yiiPvAIjpiM3S-4">
          <mxGeometry relative="1" as="geometry">
            <Array as="points">
              <mxPoint x="160" y="870" />
              <mxPoint x="160" y="730" />
              <mxPoint x="-473" y="730" />
            </Array>
          </mxGeometry>
        </mxCell>
        <mxCell id="E23xJgEdby3LYfqKXK8S-6" value="INST_B" style="rounded=0;whiteSpace=wrap;html=1;" parent="1" vertex="1">
          <mxGeometry x="90" y="860" width="60" height="20" as="geometry" />
        </mxCell>
        <mxCell id="E23xJgEdby3LYfqKXK8S-14" value="&lt;font size=&quot;1&quot;&gt;&lt;b style=&quot;font-size: 8px;&quot;&gt;BRANCH_PARAL&lt;/b&gt;&lt;/font&gt;" style="shape=trapezoid;perimeter=trapezoidPerimeter;whiteSpace=wrap;html=1;fixedSize=1;rotation=0;size=20;" parent="1" vertex="1">
          <mxGeometry x="-185" y="780" width="90" height="10" as="geometry" />
        </mxCell>
        <mxCell id="E23xJgEdby3LYfqKXK8S-22" value="" style="rounded=1;whiteSpace=wrap;html=1;" parent="1" vertex="1">
          <mxGeometry x="250" y="920" width="120" height="165" as="geometry" />
        </mxCell>
        <mxCell id="E23xJgEdby3LYfqKXK8S-23" value="REG BANK" style="rounded=0;whiteSpace=wrap;html=1;" parent="1" vertex="1">
          <mxGeometry x="330" y="940" width="40" height="40" as="geometry" />
        </mxCell>
        <mxCell id="E23xJgEdby3LYfqKXK8S-25" value="&lt;font style=&quot;font-size: 8px;&quot;&gt;pa_addr&lt;/font&gt;" style="rounded=0;whiteSpace=wrap;html=1;" parent="1" vertex="1">
          <mxGeometry x="250" y="970" width="30" height="10" as="geometry" />
        </mxCell>
        <mxCell id="E23xJgEdby3LYfqKXK8S-26" value="&lt;font style=&quot;font-size: 8px;&quot;&gt;pb_addr&lt;/font&gt;" style="rounded=0;whiteSpace=wrap;html=1;" parent="1" vertex="1">
          <mxGeometry x="250" y="1015" width="30" height="10" as="geometry" />
        </mxCell>
        <mxCell id="E23xJgEdby3LYfqKXK8S-42" style="edgeStyle=orthogonalEdgeStyle;rounded=0;orthogonalLoop=1;jettySize=auto;html=1;entryX=0;entryY=0.5;entryDx=0;entryDy=0;fillColor=#d80073;strokeColor=#A50040;" parent="1" source="E23xJgEdby3LYfqKXK8S-27" target="E23xJgEdby3LYfqKXK8S-39" edge="1">
          <mxGeometry relative="1" as="geometry" />
        </mxCell>
        <mxCell id="E23xJgEdby3LYfqKXK8S-27" value="&lt;font style=&quot;font-size: 8px;&quot;&gt;pa_data&lt;/font&gt;" style="rounded=0;whiteSpace=wrap;html=1;" parent="1" vertex="1">
          <mxGeometry x="340" y="1025" width="30" height="10" as="geometry" />
        </mxCell>
        <mxCell id="E23xJgEdby3LYfqKXK8S-43" style="edgeStyle=orthogonalEdgeStyle;rounded=0;orthogonalLoop=1;jettySize=auto;html=1;entryX=0;entryY=0.5;entryDx=0;entryDy=0;fillColor=#d80073;strokeColor=#A50040;" parent="1" source="E23xJgEdby3LYfqKXK8S-28" target="E23xJgEdby3LYfqKXK8S-40" edge="1">
          <mxGeometry relative="1" as="geometry">
            <Array as="points">
              <mxPoint x="460" y="1050" />
              <mxPoint x="460" y="1025" />
            </Array>
          </mxGeometry>
        </mxCell>
        <mxCell id="E23xJgEdby3LYfqKXK8S-28" value="&lt;font style=&quot;font-size: 8px;&quot;&gt;pb_data&lt;/font&gt;" style="rounded=0;whiteSpace=wrap;html=1;" parent="1" vertex="1">
          <mxGeometry x="340" y="1045" width="30" height="10" as="geometry" />
        </mxCell>
        <mxCell id="E23xJgEdby3LYfqKXK8S-31" value="&lt;font style=&quot;font-size: 8px;&quot;&gt;&lt;b&gt;pc&lt;/b&gt;&lt;/font&gt;" style="rounded=0;whiteSpace=wrap;html=1;" parent="1" vertex="1">
          <mxGeometry x="295" y="940" width="35" height="10" as="geometry" />
        </mxCell>
        <mxCell id="E23xJgEdby3LYfqKXK8S-32" value="&lt;font style=&quot;font-size: 8px;&quot;&gt;&lt;b&gt;cpsr&lt;/b&gt;&lt;/font&gt;" style="rounded=0;whiteSpace=wrap;html=1;" parent="1" vertex="1">
          <mxGeometry x="295" y="950" width="35" height="10" as="geometry" />
        </mxCell>
        <mxCell id="E23xJgEdby3LYfqKXK8S-33" value="&lt;span style=&quot;font-size: 8px;&quot;&gt;&lt;b&gt;sp&lt;/b&gt;&lt;/span&gt;" style="rounded=0;whiteSpace=wrap;html=1;" parent="1" vertex="1">
          <mxGeometry x="295" y="960" width="35" height="10" as="geometry" />
        </mxCell>
        <mxCell id="E23xJgEdby3LYfqKXK8S-34" value="&lt;span style=&quot;font-size: 8px;&quot;&gt;&lt;b&gt;lr&lt;/b&gt;&lt;/span&gt;" style="rounded=0;whiteSpace=wrap;html=1;" parent="1" vertex="1">
          <mxGeometry x="295" y="970" width="35" height="10" as="geometry" />
        </mxCell>
        <mxCell id="E23xJgEdby3LYfqKXK8S-35" style="edgeStyle=orthogonalEdgeStyle;rounded=0;orthogonalLoop=1;jettySize=auto;html=1;exitX=0.5;exitY=1;exitDx=0;exitDy=0;" parent="1" source="E23xJgEdby3LYfqKXK8S-22" target="E23xJgEdby3LYfqKXK8S-22" edge="1">
          <mxGeometry relative="1" as="geometry" />
        </mxCell>
        <mxCell id="E23xJgEdby3LYfqKXK8S-68" style="edgeStyle=orthogonalEdgeStyle;rounded=0;orthogonalLoop=1;jettySize=auto;html=1;entryX=-0.004;entryY=0.106;entryDx=0;entryDy=0;entryPerimeter=0;fillColor=#d80073;strokeColor=#A50040;" parent="1" source="E23xJgEdby3LYfqKXK8S-39" target="E23xJgEdby3LYfqKXK8S-64" edge="1">
          <mxGeometry relative="1" as="geometry" />
        </mxCell>
        <mxCell id="E23xJgEdby3LYfqKXK8S-39" value="PA" style="rounded=0;whiteSpace=wrap;html=1;" parent="1" vertex="1">
          <mxGeometry x="531" y="995" width="60" height="20" as="geometry" />
        </mxCell>
        <mxCell id="E23xJgEdby3LYfqKXK8S-69" style="edgeStyle=orthogonalEdgeStyle;rounded=0;orthogonalLoop=1;jettySize=auto;html=1;entryX=0;entryY=1;entryDx=0;entryDy=0;fillColor=#d80073;strokeColor=#A50040;" parent="1" source="E23xJgEdby3LYfqKXK8S-40" target="E23xJgEdby3LYfqKXK8S-64" edge="1">
          <mxGeometry relative="1" as="geometry">
            <Array as="points">
              <mxPoint x="640" y="1025" />
              <mxPoint x="640" y="531" />
            </Array>
          </mxGeometry>
        </mxCell>
        <mxCell id="E23xJgEdby3LYfqKXK8S-40" value="PB" style="rounded=0;whiteSpace=wrap;html=1;" parent="1" vertex="1">
          <mxGeometry x="531" y="1015" width="60" height="20" as="geometry" />
        </mxCell>
        <mxCell id="E23xJgEdby3LYfqKXK8S-76" style="edgeStyle=orthogonalEdgeStyle;rounded=0;orthogonalLoop=1;jettySize=auto;html=1;entryX=0;entryY=1;entryDx=0;entryDy=0;fillColor=#d80073;strokeColor=#A50040;" parent="1" source="E23xJgEdby3LYfqKXK8S-47" target="E23xJgEdby3LYfqKXK8S-65" edge="1">
          <mxGeometry relative="1" as="geometry" />
        </mxCell>
        <mxCell id="E23xJgEdby3LYfqKXK8S-47" value="PDEST_REG" style="rounded=0;whiteSpace=wrap;html=1;" parent="1" vertex="1">
          <mxGeometry x="521" y="1140" width="70" height="20" as="geometry" />
        </mxCell>
        <mxCell id="E23xJgEdby3LYfqKXK8S-75" style="edgeStyle=orthogonalEdgeStyle;rounded=0;orthogonalLoop=1;jettySize=auto;html=1;entryX=0;entryY=0;entryDx=0;entryDy=0;fillColor=#d80073;strokeColor=#A50040;" parent="1" source="E23xJgEdby3LYfqKXK8S-48" target="E23xJgEdby3LYfqKXK8S-65" edge="1">
          <mxGeometry relative="1" as="geometry">
            <Array as="points">
              <mxPoint x="610" y="1130" />
              <mxPoint x="610" y="710" />
            </Array>
          </mxGeometry>
        </mxCell>
        <mxCell id="E23xJgEdby3LYfqKXK8S-48" value="PR_ADDR" style="rounded=0;whiteSpace=wrap;html=1;" parent="1" vertex="1">
          <mxGeometry x="526" y="1120" width="60" height="20" as="geometry" />
        </mxCell>
        <mxCell id="E23xJgEdby3LYfqKXK8S-53" value="BRNX_CB" style="rounded=0;whiteSpace=wrap;html=1;" parent="1" vertex="1">
          <mxGeometry x="536" y="40" width="60" height="20" as="geometry" />
        </mxCell>
        <mxCell id="E23xJgEdby3LYfqKXK8S-54" value="BRNX" style="rounded=0;whiteSpace=wrap;html=1;" parent="1" vertex="1">
          <mxGeometry x="536" y="20" width="60" height="20" as="geometry" />
        </mxCell>
        <mxCell id="E23xJgEdby3LYfqKXK8S-60" value="" style="rounded=0;whiteSpace=wrap;html=1;" parent="1" vertex="1">
          <mxGeometry x="660" y="500" width="10" height="10" as="geometry" />
        </mxCell>
        <mxCell id="E23xJgEdby3LYfqKXK8S-81" style="edgeStyle=orthogonalEdgeStyle;rounded=0;orthogonalLoop=1;jettySize=auto;html=1;entryX=0;entryY=0;entryDx=0;entryDy=0;strokeColor=#333FFF;" parent="1" source="E23xJgEdby3LYfqKXK8S-63" target="dd-VZcG4zQwspWTg3lg_-11" edge="1">
          <mxGeometry relative="1" as="geometry">
            <Array as="points">
              <mxPoint x="740" y="520" />
              <mxPoint x="740" y="432" />
              <mxPoint x="670" y="432" />
              <mxPoint x="670" y="340" />
            </Array>
          </mxGeometry>
        </mxCell>
        <mxCell id="E23xJgEdby3LYfqKXK8S-63" value="P" style="shape=dataStorage;whiteSpace=wrap;html=1;fixedSize=1;flipV=1;flipH=1;size=10;" parent="1" vertex="1">
          <mxGeometry x="665" y="505" width="60" height="22" as="geometry" />
        </mxCell>
        <mxCell id="E23xJgEdby3LYfqKXK8S-65" value="" style="rounded=0;whiteSpace=wrap;html=1;" parent="1" vertex="1">
          <mxGeometry x="660" y="710" width="10" height="10" as="geometry" />
        </mxCell>
        <mxCell id="E23xJgEdby3LYfqKXK8S-66" value="" style="rounded=0;whiteSpace=wrap;html=1;" parent="1" vertex="1">
          <mxGeometry x="660" y="689" width="10" height="10" as="geometry" />
        </mxCell>
        <mxCell id="E23xJgEdby3LYfqKXK8S-67" value="P" style="shape=dataStorage;whiteSpace=wrap;html=1;fixedSize=1;flipV=1;flipH=1;size=10;" parent="1" vertex="1">
          <mxGeometry x="665" y="694" width="60" height="22" as="geometry" />
        </mxCell>
        <mxCell id="E23xJgEdby3LYfqKXK8S-78" style="edgeStyle=orthogonalEdgeStyle;rounded=0;orthogonalLoop=1;jettySize=auto;html=1;entryX=0;entryY=0.5;entryDx=0;entryDy=0;fillColor=#0050ef;strokeColor=#009999;" parent="1" source="E23xJgEdby3LYfqKXK8S-70" target="AOtOt-XeIziq4LyHe5DE-107" edge="1">
          <mxGeometry relative="1" as="geometry">
            <Array as="points">
              <mxPoint x="730" y="460" />
              <mxPoint x="660" y="460" />
              <mxPoint x="660" y="295" />
            </Array>
          </mxGeometry>
        </mxCell>
        <mxCell id="E23xJgEdby3LYfqKXK8S-70" value="" style="rounded=0;whiteSpace=wrap;html=1;" parent="1" vertex="1">
          <mxGeometry x="720" y="510" width="10" height="10" as="geometry" />
        </mxCell>
        <mxCell id="E23xJgEdby3LYfqKXK8S-72" style="edgeStyle=orthogonalEdgeStyle;rounded=0;orthogonalLoop=1;jettySize=auto;html=1;entryX=0;entryY=0.5;entryDx=0;entryDy=0;exitX=1;exitY=1;exitDx=0;exitDy=0;fillColor=#1ba1e2;strokeColor=#006EAF;" parent="1" source="E23xJgEdby3LYfqKXK8S-71" target="AOtOt-XeIziq4LyHe5DE-71" edge="1">
          <mxGeometry relative="1" as="geometry">
            <Array as="points">
              <mxPoint x="800" y="710" />
              <mxPoint x="800" y="620" />
            </Array>
          </mxGeometry>
        </mxCell>
        <mxCell id="E23xJgEdby3LYfqKXK8S-73" style="edgeStyle=orthogonalEdgeStyle;rounded=0;orthogonalLoop=1;jettySize=auto;html=1;entryX=0;entryY=0.5;entryDx=0;entryDy=0;fillColor=#1ba1e2;strokeColor=#006EAF;" parent="1" source="E23xJgEdby3LYfqKXK8S-71" target="AOtOt-XeIziq4LyHe5DE-105" edge="1">
          <mxGeometry relative="1" as="geometry">
            <Array as="points">
              <mxPoint x="800" y="710" />
              <mxPoint x="800" y="765" />
            </Array>
          </mxGeometry>
        </mxCell>
        <mxCell id="E23xJgEdby3LYfqKXK8S-77" style="edgeStyle=orthogonalEdgeStyle;rounded=0;orthogonalLoop=1;jettySize=auto;html=1;entryX=0;entryY=0.25;entryDx=0;entryDy=0;fillColor=#647687;strokeColor=#314354;" parent="1" source="E23xJgEdby3LYfqKXK8S-71" target="AOtOt-XeIziq4LyHe5DE-105" edge="1">
          <mxGeometry relative="1" as="geometry">
            <Array as="points">
              <mxPoint x="810" y="700" />
              <mxPoint x="810" y="743" />
            </Array>
          </mxGeometry>
        </mxCell>
        <mxCell id="E23xJgEdby3LYfqKXK8S-71" value="" style="rounded=0;whiteSpace=wrap;html=1;" parent="1" vertex="1">
          <mxGeometry x="720" y="700" width="10" height="10" as="geometry" />
        </mxCell>
        <mxCell id="E23xJgEdby3LYfqKXK8S-88" style="edgeStyle=orthogonalEdgeStyle;rounded=0;orthogonalLoop=1;jettySize=auto;html=1;entryX=0;entryY=1;entryDx=0;entryDy=0;fillColor=#fa6800;strokeColor=#C73500;" parent="1" source="E23xJgEdby3LYfqKXK8S-80" target="dd-VZcG4zQwspWTg3lg_-11" edge="1">
          <mxGeometry relative="1" as="geometry">
            <Array as="points">
              <mxPoint x="770" y="595" />
              <mxPoint x="770" y="420" />
              <mxPoint x="680" y="420" />
            </Array>
          </mxGeometry>
        </mxCell>
        <mxCell id="E23xJgEdby3LYfqKXK8S-80" value="P" style="shape=dataStorage;whiteSpace=wrap;html=1;fixedSize=1;flipV=1;flipH=1;size=10;" parent="1" vertex="1">
          <mxGeometry x="670" y="585" width="60" height="20" as="geometry" />
        </mxCell>
        <mxCell id="E23xJgEdby3LYfqKXK8S-86" style="edgeStyle=orthogonalEdgeStyle;rounded=0;orthogonalLoop=1;jettySize=auto;html=1;entryX=0;entryY=0.5;entryDx=0;entryDy=0;fillColor=#d80073;strokeColor=#A50040;" parent="1" source="E23xJgEdby3LYfqKXK8S-82" target="E23xJgEdby3LYfqKXK8S-85" edge="1">
          <mxGeometry relative="1" as="geometry" />
        </mxCell>
        <mxCell id="E23xJgEdby3LYfqKXK8S-82" value="" style="rounded=1;whiteSpace=wrap;html=1;" parent="1" vertex="1">
          <mxGeometry x="250" y="1169" width="120" height="60" as="geometry" />
        </mxCell>
        <mxCell id="E23xJgEdby3LYfqKXK8S-83" value="SIGN&lt;div&gt;EXT&lt;/div&gt;" style="rounded=0;whiteSpace=wrap;html=1;" parent="1" vertex="1">
          <mxGeometry x="280" y="1199" width="40" height="30" as="geometry" />
        </mxCell>
        <mxCell id="E23xJgEdby3LYfqKXK8S-87" style="edgeStyle=orthogonalEdgeStyle;rounded=0;orthogonalLoop=1;jettySize=auto;html=1;entryX=0;entryY=1;entryDx=0;entryDy=0;curved=1;fillColor=#d80073;strokeColor=#A50040;" parent="1" source="E23xJgEdby3LYfqKXK8S-85" target="E23xJgEdby3LYfqKXK8S-80" edge="1">
          <mxGeometry relative="1" as="geometry">
            <Array as="points">
              <mxPoint x="620" y="1199" />
              <mxPoint x="620" y="605" />
            </Array>
          </mxGeometry>
        </mxCell>
        <mxCell id="E23xJgEdby3LYfqKXK8S-85" value="PIMMD" style="rounded=0;whiteSpace=wrap;html=1;" parent="1" vertex="1">
          <mxGeometry x="531" y="1189" width="60" height="20" as="geometry" />
        </mxCell>
        <mxCell id="7UdGeY0yiiPvAIjpiM3S-5" style="edgeStyle=orthogonalEdgeStyle;rounded=0;orthogonalLoop=1;jettySize=auto;html=1;entryX=0;entryY=0.5;entryDx=0;entryDy=0;" parent="1" source="7UdGeY0yiiPvAIjpiM3S-2" target="E23xJgEdby3LYfqKXK8S-2" edge="1">
          <mxGeometry relative="1" as="geometry">
            <Array as="points">
              <mxPoint x="-310" y="785" />
              <mxPoint x="-310" y="850" />
            </Array>
            <mxPoint x="-185" y="690" as="targetPoint" />
          </mxGeometry>
        </mxCell>
        <mxCell id="7UdGeY0yiiPvAIjpiM3S-2" value="" style="rounded=0;whiteSpace=wrap;html=1;" parent="1" vertex="1">
          <mxGeometry x="-533" y="750" width="120" height="60" as="geometry" />
        </mxCell>
        <mxCell id="7UdGeY0yiiPvAIjpiM3S-4" value="BRANCH NEXT" style="rounded=1;whiteSpace=wrap;html=1;" parent="1" vertex="1">
          <mxGeometry x="-513" y="750" width="80" height="25" as="geometry" />
        </mxCell>
        <mxCell id="Bdlb1lmYMD555LV4zm37-5" style="edgeStyle=orthogonalEdgeStyle;rounded=0;orthogonalLoop=1;jettySize=auto;html=1;entryX=0.5;entryY=0;entryDx=0;entryDy=0;" edge="1" parent="1" source="Bdlb1lmYMD555LV4zm37-4" target="kHn4_M405axso_W69Q0X-56">
          <mxGeometry relative="1" as="geometry" />
        </mxCell>
        <mxCell id="Bdlb1lmYMD555LV4zm37-4" value="pc+1" style="rounded=0;whiteSpace=wrap;html=1;" vertex="1" parent="1">
          <mxGeometry x="-490" y="275" width="120" height="60" as="geometry" />
        </mxCell>
      </root>
    </mxGraphModel>
  </diagram>
</mxfile>
